<svg width="38" height="42" viewBox="0 0 38 42" fill="none" xmlns="http://www.w3.org/2000/svg">
<path d="M7.95142 4.29756L7.78923 5.02981L8.8232 5.25883L8.69601 4.2076L8.696 4.20755L8.69599 4.20747L8.69593 4.20693L8.69554 4.20363L8.69383 4.18907L8.68719 4.13033C8.68151 4.07881 8.67355 4.00391 8.66467 3.91224C8.64686 3.7282 8.62568 3.47982 8.61165 3.21884C8.59747 2.95512 8.59136 2.69226 8.60092 2.47508C8.60819 2.30986 8.62318 2.22212 8.62883 2.18902C8.632 2.17044 8.63224 2.16909 8.62651 2.18092C8.67688 2.07685 8.71337 1.97414 8.73934 1.89784C8.75138 1.86243 8.76077 1.8341 8.76907 1.80904C8.78229 1.76912 8.79278 1.73744 8.80696 1.69853C8.82654 1.64484 8.84148 1.61157 8.85374 1.58913C8.86038 1.57697 8.86517 1.57 8.86781 1.56651C8.91442 1.54316 9.11217 1.48433 9.68162 1.60938C10.1876 1.72049 11.5584 1.8362 13.2663 1.9354C15.0078 2.03654 17.1799 2.12422 19.3465 2.16671C21.511 2.20915 23.6814 2.20675 25.4157 2.12623C26.2813 2.08603 27.0528 2.02577 27.6665 1.93899C27.9729 1.89566 28.2533 1.8439 28.493 1.78055C28.7175 1.7212 28.9685 1.63623 29.1726 1.49852C29.2654 1.43589 29.3378 1.39556 29.3921 1.36956C29.4063 1.43456 29.4166 1.51282 29.4217 1.59739C29.4255 1.66094 29.4256 1.7161 29.4249 1.75416C29.4245 1.77296 29.424 1.78692 29.4236 1.7949L29.4233 1.80077L29.4232 1.80163L29.4232 1.80186L29.4232 1.80205L29.4214 1.82655V1.85418V4.29756V5.18779L30.2987 5.03667L30.2988 5.03665L30.2995 5.03654L30.3023 5.03606L30.3139 5.03407L30.3605 5.02616C30.4015 5.01921 30.4622 5.00901 30.54 4.99612C30.6957 4.97032 30.9199 4.93375 31.1928 4.89085C31.739 4.80498 32.4781 4.69406 33.2524 4.59339C34.0288 4.49245 34.8309 4.4031 35.5059 4.35879C35.8438 4.33662 36.1401 4.3264 36.3802 4.33038C36.6202 4.33436 36.7581 4.35229 36.8172 4.36648C36.8334 4.38158 36.8707 4.42916 36.9115 4.55473C36.9822 4.77252 37.0131 5.09542 36.9874 5.46757C36.9621 5.83361 36.886 6.19027 36.7881 6.45638C36.7399 6.5873 36.6935 6.67678 36.6587 6.72916C36.6508 6.73157 36.642 6.73419 36.6323 6.73703C36.5726 6.75433 36.4936 6.77447 36.3946 6.79689C36.1969 6.8417 35.9405 6.8909 35.64 6.94158C35.0399 7.04276 34.2886 7.14567 33.5266 7.22898C32.7636 7.3124 32.0013 7.37489 31.3773 7.39723C31.0646 7.40841 30.7966 7.40914 30.5854 7.39891C30.48 7.3938 30.3956 7.38628 30.3312 7.37748C30.2628 7.36813 30.236 7.35987 30.2372 7.36026C30.157 7.33356 30.0608 7.30581 29.9593 7.29102C29.8717 7.27826 29.6927 7.26089 29.4962 7.33482C29.2452 7.42925 29.0674 7.63297 28.9982 7.87549C28.9441 8.06498 28.9696 8.2308 28.9842 8.30685C29.014 8.46195 29.0816 8.62653 29.1239 8.7295L29.125 8.73221C29.1399 8.76863 29.1548 8.80441 29.1698 8.84036C29.2089 8.93442 29.2486 9.02967 29.2912 9.14065C29.5128 9.71852 29.7372 10.5364 29.4597 11.5504C29.4476 11.5633 29.4221 11.5875 29.3745 11.6215C29.2562 11.7058 29.0615 11.8069 28.7725 11.9136C28.197 12.1262 27.3719 12.3169 26.3527 12.475C24.3234 12.7899 21.6537 12.9567 18.9743 12.9643C16.2943 12.9719 13.6408 12.8201 11.6428 12.5095C10.6385 12.3534 9.83683 12.1626 9.28883 11.9487C9.01359 11.8412 8.83784 11.7413 8.73778 11.6623C8.70916 11.6397 8.6915 11.6227 8.68125 11.6117C8.48288 10.49 8.68657 9.75579 8.90321 9.24629C8.98385 9.05664 9.04558 8.93717 9.11074 8.81102C9.15649 8.72247 9.20393 8.63063 9.26081 8.50892C9.31362 8.39591 9.37992 8.24169 9.41365 8.0722C9.44972 7.89091 9.45796 7.64446 9.33577 7.39179C9.24996 7.21432 9.12082 7.10872 9.03821 7.05311C8.95162 6.99483 8.86588 6.9578 8.80079 6.93384C8.67125 6.88617 8.53051 6.85701 8.40511 6.83687C8.14824 6.79561 7.82167 6.77201 7.46844 6.7577C6.75541 6.7288 5.8278 6.73425 4.8998 6.7444C4.72272 6.74633 4.54552 6.74844 4.3694 6.75054C3.61292 6.75953 2.87619 6.7683 2.25232 6.76218C1.86801 6.75841 1.53832 6.74904 1.28111 6.7317C1.15251 6.72303 1.04982 6.71286 0.971932 6.70186C0.959466 6.70009 0.948246 6.69839 0.938201 6.69678C0.913451 6.64895 0.881702 6.56999 0.851275 6.45194C0.775071 6.15628 0.73931 5.74361 0.75279 5.29757C0.766179 4.85457 0.826625 4.42745 0.914286 4.11079C0.943837 4.00404 0.973418 3.92112 0.999711 3.86008C1.03305 3.86006 1.07144 3.86073 1.11519 3.8623C1.3311 3.87002 1.62222 3.89741 1.97304 3.94204C2.67159 4.03091 3.54863 4.18049 4.41564 4.34251C5.28013 4.50406 6.12393 4.67595 6.75234 4.80764C7.06633 4.87344 7.32604 4.92909 7.50706 4.96825C7.59756 4.98782 7.66837 5.00327 7.71642 5.0138L7.77104 5.0258L7.78484 5.02884L7.78823 5.02959L7.78903 5.02977L7.78921 5.02981L7.95142 4.29756ZM8.85609 1.57446C8.85567 1.57404 8.85875 1.57119 8.86656 1.56715C8.86041 1.57285 8.85651 1.57487 8.85609 1.57446ZM36.8088 4.36048C36.8089 4.36013 36.8112 4.36122 36.8154 4.36481C36.8107 4.36264 36.8086 4.36084 36.8088 4.36048ZM36.6324 6.76392C36.6324 6.76385 36.6334 6.76269 36.6355 6.76066C36.6335 6.76297 36.6325 6.76398 36.6324 6.76392ZM8.66895 11.5969C8.66899 11.5969 8.66942 11.5975 8.67013 11.5986C8.66928 11.5975 8.66892 11.5969 8.66895 11.5969ZM0.966156 6.74244C0.966151 6.74246 0.965806 6.74207 0.965137 6.74122L0.966156 6.74244ZM1.05752 3.75153C1.05757 3.75172 1.05592 3.75413 1.0524 3.7582C1.0557 3.75338 1.05747 3.75134 1.05752 3.75153ZM0.856369 3.8669C0.853063 3.86759 0.851274 3.86786 0.851206 3.86781C0.851138 3.86777 0.852791 3.86742 0.856369 3.8669Z" stroke="#58DCE3" stroke-width="1.5"/>
<path d="M28.4846 28.0005C28.7318 28.5991 28.4846 31.4354 28.4846 31.4354C28.4846 31.4354 33.3111 31.5764 34.3165 31.8583C35.3219 32.1401 34.9199 34.8187 34.3165 35.1006C33.7131 35.3824 27.8867 35.1006 27.8867 35.1006C27.8867 35.1006 29.0893 36.74 28.4846 38.9068C27.8799 41.0735 9.99298 41.1796 9.58105 38.9068C9.16912 36.634 10.3853 35.8054 10.1844 35.3825C9.98336 34.9597 4.1512 35.3825 3.3469 35.1006C2.54261 34.8187 2.74364 31.7173 3.3469 31.4354C3.95016 31.1534 9.58105 31.8583 9.58105 31.8583C9.58105 31.8583 9.29526 29.1978 9.58105 28.5991" stroke="#58DCE3" stroke-width="1.5"/>
<path d="M28.4846 14.8574C28.7318 15.4561 28.4846 18.2923 28.4846 18.2923C28.4846 18.2923 33.3111 18.4334 34.3165 18.7152C35.3219 18.9971 34.9199 21.6757 34.3165 21.9575C33.7131 22.2394 27.8867 21.9575 27.8867 21.9575C27.8867 21.9575 29.0893 23.597 28.4846 25.7637C27.8799 27.9305 9.99298 28.0365 9.58105 25.7637C9.16912 23.4909 10.3853 22.6623 10.1844 22.2395C9.98336 21.8166 4.1512 22.2395 3.3469 21.9575C2.54261 21.6756 2.74364 18.5742 3.3469 18.2923C3.95016 18.0104 9.58105 18.7152 9.58105 18.7152C9.58105 18.7152 9.29526 16.0547 9.58105 15.4561" stroke="#58DCE3" stroke-width="1.5"/>
</svg>
