<svg width="37" height="41" viewBox="0 0 37 41" fill="none" xmlns="http://www.w3.org/2000/svg">
<path d="M22.0007 7.05664C21.5669 7.05664 21.2148 7.40664 21.2148 7.83789C21.2148 8.26914 21.5669 8.61914 22.0007 8.61914C22.4345 8.61914 22.7866 8.26914 22.7866 7.83789C22.7866 7.40664 22.4345 7.05664 22.0007 7.05664Z" fill="#58DCE3"/>
<path d="M14.1491 7.05664C13.7153 7.05664 13.3633 7.40664 13.3633 7.83789C13.3633 8.26914 13.7153 8.61914 14.1491 8.61914C14.5829 8.61914 14.935 8.26914 14.935 7.83789C14.935 7.40664 14.5829 7.05664 14.1491 7.05664Z" fill="#58DCE3"/>
<path d="M35.1374 23.9219C35.8119 22.9155 36.1493 21.6598 36.1493 20.5718C36.1493 18.9315 35.4163 17.4075 34.1586 16.374C34.4369 15.7128 34.5776 15.0251 34.5776 14.3218C34.5776 12.1456 33.3001 10.1184 31.4008 9.17178C31.6889 6.79568 30.1315 4.61771 27.8236 4.06217C26.9202 1.98615 24.9096 0.571777 22.7898 0.571777C20.8165 0.571777 19.0467 1.716 18.0746 3.38553C17.1025 1.716 15.3327 0.571777 13.3595 0.571777C11.2395 0.571777 9.22892 1.98615 8.32573 4.06225C6.00393 4.62131 4.46114 6.81014 4.74853 9.17178C2.84927 10.1183 1.57171 12.1456 1.57171 14.3218C1.57171 15.0251 1.71238 15.7128 1.99073 16.374C0.732966 17.4076 0 18.9315 0 20.5718C0 21.6655 0.340275 22.9196 1.01194 23.9219C0.355599 24.843 0 25.9346 0 27.0562C0 28.5105 0.593163 29.896 1.64236 30.9247C1.10295 34.1663 3.70334 37.4468 7.07269 37.4468C7.09705 37.4468 7.12102 37.4464 7.14452 37.4457C8.26161 39.3615 10.3352 40.5718 12.5737 40.5718C14.9067 40.5718 16.9914 39.1796 18.0746 37.1738C19.1579 39.1796 21.2426 40.5718 23.5756 40.5718C25.8141 40.5718 27.8877 39.3615 29.0048 37.4457C29.0284 37.4464 29.0522 37.4468 29.0766 37.4468C32.0585 37.4468 34.5776 34.8351 34.5776 31.7437C34.5776 31.4804 34.5543 31.2097 34.5069 30.9247C35.5561 29.896 36.1493 28.5106 36.1493 27.0562C36.1493 25.9346 35.7937 24.8429 35.1374 23.9219ZM17.2888 12.3984C16.8261 12.1316 16.2894 11.978 15.7171 11.978C15.2831 11.978 14.9312 12.3278 14.9312 12.7593C14.9312 13.1908 15.2831 13.5405 15.7171 13.5405C16.5837 13.5405 17.2888 14.2415 17.2888 15.103V29.96C16.1359 28.6599 14.4501 27.8374 12.5737 27.8374C12.1396 27.8374 11.7878 28.1872 11.7878 28.6187C11.7878 29.0501 12.1396 29.3999 12.5737 29.3999C15.1736 29.3999 17.2888 31.5027 17.2888 34.0874C17.2888 36.7553 15.1295 39.0093 12.5737 39.0093C10.7543 39.0093 9.07937 37.9397 8.30656 36.2843C8.16408 35.9792 7.84141 35.7993 7.50499 35.8369C7.44943 35.8433 7.39418 35.8506 7.33894 35.8581C5.1024 36.1622 2.58373 33.6444 3.26554 30.8279C3.33556 30.5386 3.23418 30.235 3.00416 30.0447C2.09383 29.2916 1.57171 28.2023 1.57171 27.0562C1.57171 26.3475 1.77328 25.654 2.14837 25.0458C3.09092 25.8138 4.26334 26.2749 5.50098 26.2749C5.93501 26.2749 6.28683 25.9251 6.28683 25.4937C6.28683 25.0622 5.93501 24.7124 5.50098 24.7124C3.36825 24.7124 1.57171 22.7772 1.57171 20.5718C1.57171 19.2339 2.25768 18.0031 3.40684 17.2794C3.76086 17.0565 3.87662 16.5965 3.66986 16.2341C3.32055 15.6217 3.14342 14.9783 3.14342 14.3218C3.14342 12.2132 4.87245 10.1812 7.07269 10.1812C9.16589 10.1812 11.002 12.1161 11.002 14.3218C11.002 14.7533 11.3538 15.103 11.7878 15.103C12.2218 15.103 12.5737 14.7533 12.5737 14.3218C12.5737 11.2304 10.0545 8.61865 7.07269 8.61865C6.80958 8.61865 6.5479 8.63982 6.2888 8.6799C6.28841 8.65936 6.28683 8.63936 6.28683 8.61865C6.28683 6.87514 7.71057 5.49365 9.43025 5.49365C10.2697 5.49365 11.0593 5.81873 11.6536 6.40889C11.9606 6.71381 12.4581 6.7135 12.7649 6.40834C13.0717 6.10303 13.0714 5.60842 12.7644 5.3035C12.0475 4.59154 11.1407 4.13748 10.158 3.98701C10.851 2.96428 12.0035 2.13428 13.3595 2.13428C15.4527 2.13428 17.2888 4.06912 17.2888 6.2749V12.3984ZM30.6483 26.2749C31.886 26.2749 33.0585 25.8137 34.001 25.0461C34.376 25.6541 34.5776 26.3476 34.5776 27.0562C34.5776 28.2023 34.0555 29.2916 33.1452 30.0447C32.9151 30.235 32.8138 30.5387 32.8838 30.8279C32.9671 31.1719 33.0059 31.4629 33.0059 31.7436C33.0059 34.1686 30.7996 36.1284 28.8104 35.8581C28.7552 35.8506 28.6999 35.8432 28.6443 35.8369C28.3074 35.799 27.9851 35.9792 27.8428 36.2843C27.07 37.9397 25.395 39.0093 23.5756 39.0093C21.0198 39.0093 18.8605 36.7553 18.8605 34.0874C18.8605 31.5027 20.9757 29.3999 23.5756 29.3999C24.0096 29.3999 24.3615 29.0501 24.3615 28.6187C24.3615 28.1872 24.0096 27.8374 23.5756 27.8374C21.6992 27.8374 20.0134 28.6599 18.8605 29.96V15.103C18.8605 14.2415 19.5656 13.5405 20.4322 13.5405C20.8662 13.5405 21.2181 13.1908 21.2181 12.7593C21.2181 12.3278 20.8662 11.978 20.4322 11.978C19.8599 11.978 19.3232 12.1316 18.8605 12.3984V6.2749C18.8605 4.06912 20.6966 2.13428 22.7898 2.13428C24.1458 2.13428 25.2982 2.96428 25.9913 3.98693C25.0086 4.1374 24.1019 4.59146 23.3849 5.30342C23.0778 5.60834 23.0775 6.10295 23.3842 6.40826C23.6909 6.71357 24.1886 6.71381 24.4956 6.40889C25.09 5.81873 25.8796 5.49365 26.719 5.49365C28.4474 5.49365 29.8625 6.88326 29.8625 8.61865C29.8625 8.63928 29.8609 8.65936 29.8605 8.6799C29.6014 8.63982 29.3397 8.61865 29.0766 8.61865C26.0948 8.61865 23.5756 11.2304 23.5756 14.3218C23.5756 14.7533 23.9275 15.103 24.3615 15.103C24.7954 15.103 25.1473 14.7533 25.1473 14.3218C25.1473 12.1161 26.9834 10.1812 29.0766 10.1812C31.2756 10.1812 33.0059 12.2122 33.0059 14.3218C33.0059 14.9783 32.8288 15.6217 32.4794 16.2341C32.2728 16.5965 32.3885 17.0565 32.7425 17.2794C33.8916 18.0031 34.5776 19.2339 34.5776 20.5718C34.5776 22.7851 32.7748 24.7124 30.6483 24.7124C30.2144 24.7124 29.8625 25.0622 29.8625 25.4937C29.8625 25.9251 30.2144 26.2749 30.6483 26.2749Z" fill="#58DCE3"/>
<path d="M15.5153 17.2947C15.2259 16.9731 14.7292 16.9456 14.4056 17.2333C11.8855 19.4743 7.85687 17.6833 7.85687 14.3218C7.85687 13.8903 7.50504 13.5405 7.07101 13.5405C6.63698 13.5405 6.28516 13.8903 6.28516 14.3218C6.28516 17.0339 8.28178 19.2901 10.8903 19.7169C10.5877 20.6644 9.69466 21.353 8.64272 21.353C8.20869 21.353 7.85687 21.7028 7.85687 22.1343C7.85687 22.5658 8.20869 22.9155 8.64272 22.9155C10.5568 22.9155 12.1547 21.5476 12.5014 19.7435C13.5943 19.6014 14.6229 19.1365 15.4535 18.3978C15.7769 18.1101 15.8046 17.6162 15.5153 17.2947Z" fill="#58DCE3"/>
<path d="M7.07101 30.9624C6.63698 30.9624 6.28516 31.3122 6.28516 31.7437C6.28516 32.1751 6.63698 32.5249 7.07101 32.5249C9.16421 32.5249 11.0003 34.4598 11.0003 36.6655C11.0003 37.097 11.3521 37.4468 11.7861 37.4468C12.2202 37.4468 12.572 37.097 12.572 36.6655C12.572 33.5741 10.0529 30.9624 7.07101 30.9624Z" fill="#58DCE3"/>
<path d="M13.361 24.7124C10.6981 24.7124 8.41171 26.1644 7.20778 28.2755C6.99379 28.6509 7.12637 29.1277 7.50389 29.3404C7.88149 29.5532 8.36102 29.4215 8.57509 29.0461C9.513 27.4011 11.2926 26.2749 13.361 26.2749C13.795 26.2749 14.1469 25.9251 14.1469 25.4937C14.1469 25.0622 13.795 24.7124 13.361 24.7124Z" fill="#58DCE3"/>
<path d="M27.5063 21.353C26.4544 21.353 25.5613 20.6644 25.2588 19.7169C27.8672 19.2901 29.8639 17.0339 29.8639 14.3218C29.8639 13.8903 29.512 13.5405 29.078 13.5405C28.6441 13.5405 28.2922 13.8903 28.2922 14.3218C28.2922 16.4757 26.5295 18.228 24.3629 18.228C23.395 18.228 22.4648 17.8747 21.7434 17.2333C21.42 16.9456 20.9231 16.973 20.6338 17.2947C20.3443 17.6162 20.3721 18.1101 20.6955 18.3978C21.5261 19.1365 22.5548 19.6014 23.6476 19.7435C23.9943 21.5476 25.5922 22.9155 27.5063 22.9155C27.9403 22.9155 28.2922 22.5658 28.2922 22.1343C28.2922 21.7028 27.9403 21.353 27.5063 21.353Z" fill="#58DCE3"/>
<path d="M29.0747 30.9624C26.0929 30.9624 23.5737 33.5741 23.5737 36.6655C23.5737 37.097 23.9256 37.4468 24.3596 37.4468C24.7935 37.4468 25.1454 37.097 25.1454 36.6655C25.1454 34.4598 26.9815 32.5249 29.0747 32.5249C29.5087 32.5249 29.8606 32.1751 29.8606 31.7437C29.8606 31.3122 29.5087 30.9624 29.0747 30.9624Z" fill="#58DCE3"/>
<path d="M28.9425 28.2756C27.7416 26.1694 25.4583 24.7124 22.7893 24.7124C22.3553 24.7124 22.0034 25.0622 22.0034 25.4937C22.0034 25.9251 22.3553 26.2749 22.7893 26.2749C24.8561 26.2749 26.6371 27.4008 27.575 29.0461C27.7893 29.4219 28.2693 29.553 28.6462 29.3405C29.0238 29.1278 29.1564 28.651 28.9425 28.2756Z" fill="#58DCE3"/>
</svg>
