<svg width="38" height="41" viewBox="0 0 38 41" fill="none" xmlns="http://www.w3.org/2000/svg">
<path d="M24.375 2.91553C24.375 3.0642 24.39 3.2117 24.4177 3.35639L19.9486 5.8135C19.5309 5.46217 18.9955 5.25928 18.4375 5.25928C17.8793 5.25928 17.344 5.46225 16.9263 5.81342L12.4573 3.35639C12.485 3.2117 12.5 3.0642 12.5 2.91553C12.5 1.62318 11.4486 0.571777 10.1563 0.571777C8.86391 0.571777 7.8125 1.62318 7.8125 2.91553C7.8125 4.20787 8.86391 5.25928 10.1563 5.25928C10.7145 5.25928 11.2498 5.05631 11.6674 4.70514L16.1364 7.16217C16.1088 7.30693 16.0938 7.45436 16.0938 7.60303C16.0938 8.62147 16.747 9.4899 17.6563 9.8124L17.6563 16.0187C16.747 16.3412 16.0938 17.2095 16.0938 18.228C16.0938 18.3767 16.1088 18.5242 16.1364 18.6689L11.6673 21.126C11.2496 20.7747 10.7143 20.5718 10.1563 20.5718C9.60688 20.5718 9.07992 20.7689 8.66523 21.1099L4.64039 18.695C4.67148 18.5419 4.6875 18.3856 4.6875 18.228C4.6875 16.9357 3.63609 15.8843 2.34375 15.8843C1.05141 15.8843 0 16.9357 0 18.228C0 19.5204 1.05141 20.5718 2.34375 20.5718C2.89313 20.5718 3.42008 20.3747 3.83477 20.0337L7.85961 22.4486C7.82852 22.6015 7.8125 22.7579 7.8125 22.9155C7.8125 23.934 8.4657 24.8024 9.375 25.1249L9.375 31.3312C8.4657 31.6537 7.8125 32.522 7.8125 33.5405C7.8125 34.8329 8.86391 35.8843 10.1562 35.8843C10.7145 35.8843 11.2498 35.6813 11.6674 35.3301L16.1365 37.7872C16.1087 37.9319 16.0938 38.0794 16.0938 38.228C16.0938 39.5204 17.1452 40.5718 18.4375 40.5718C19.7298 40.5718 20.7812 39.5204 20.7812 38.228C20.7812 38.0794 20.7663 37.9319 20.7386 37.7872L25.2077 35.3301C25.6254 35.6814 26.1606 35.8843 26.7188 35.8843C27.277 35.8843 27.8123 35.6813 28.2299 35.3301L32.699 37.7872C32.6712 37.9319 32.6562 38.0794 32.6562 38.228C32.6562 39.5204 33.7077 40.5718 35 40.5718C36.2923 40.5718 37.3438 39.5204 37.3438 38.228C37.3438 36.9357 36.2923 35.8843 35 35.8843C34.4418 35.8843 33.9065 36.0872 33.4888 36.4384L29.0198 33.9814C29.0475 33.8367 29.0625 33.6892 29.0625 33.5405C29.0625 32.5221 28.4093 31.6537 27.5 31.3312L27.5 25.1249C28.4093 24.8024 29.0625 23.934 29.0625 22.9155C29.0625 22.7669 29.0475 22.6194 29.0198 22.4747L33.489 20.0176C33.9066 20.3689 34.442 20.5718 35 20.5718C36.2923 20.5718 37.3438 19.5204 37.3438 18.228C37.3438 17.2096 36.6905 16.3412 35.7813 16.0187V9.8124C36.6905 9.4899 37.3438 8.62154 37.3438 7.60303C37.3438 6.31068 36.2923 5.25928 35 5.25928C34.4418 5.25928 33.9065 5.46225 33.4888 5.81342L29.0198 3.35639C29.0475 3.21162 29.0625 3.0642 29.0625 2.91553C29.0625 1.62318 28.0111 0.571777 26.7188 0.571777C25.4264 0.571777 24.375 1.62318 24.375 2.91553ZM9.375 2.91553C9.375 2.48475 9.72547 2.13428 10.1563 2.13428C10.587 2.13428 10.9375 2.48475 10.9375 2.91553C10.9375 3.05732 10.8991 3.19623 10.8261 3.31764C10.6838 3.55506 10.4334 3.69678 10.1563 3.69678C9.72547 3.69678 9.375 3.34631 9.375 2.91553ZM1.5625 18.228C1.5625 17.7972 1.91297 17.4468 2.34375 17.4468C2.77453 17.4468 3.125 17.7972 3.125 18.228C3.125 18.3698 3.08664 18.5086 3.01367 18.63C3.00563 18.6378 2.80781 19.0093 2.34375 19.0093C1.91297 19.0093 1.5625 18.6588 1.5625 18.228ZM35.7812 38.228C35.7812 38.6588 35.4308 39.0093 35 39.0093C34.5692 39.0093 34.2188 38.6588 34.2188 38.228C34.2188 37.8081 34.555 37.4468 35 37.4468C35.4308 37.4468 35.7812 37.7972 35.7812 38.228ZM17.6563 7.60303C17.6563 7.18303 17.9925 6.82178 18.4375 6.82178C18.8873 6.82178 19.2188 7.18795 19.2188 7.60303C19.2188 8.03381 18.8683 8.38428 18.4375 8.38428C18.0067 8.38428 17.6563 8.03381 17.6563 7.60303ZM17.6563 18.228C17.6563 17.7972 18.0067 17.4468 18.4375 17.4468C18.8683 17.4468 19.2188 17.7972 19.2188 18.228C19.2188 18.648 18.8825 19.0093 18.4375 19.0093C17.9944 19.0093 17.6563 18.6496 17.6563 18.228ZM9.48633 22.5136C9.49438 22.5058 9.69227 22.1343 10.1563 22.1343C10.6069 22.1343 10.9375 22.5012 10.9375 22.9155C10.9375 23.3463 10.587 23.6968 10.1563 23.6968C9.54844 23.6968 9.1757 23.0306 9.48633 22.5136ZM9.375 33.5405C9.375 33.1097 9.72547 32.7593 10.1563 32.7593C10.587 32.7593 10.9375 33.1097 10.9375 33.5405C10.9375 33.9604 10.6012 34.3218 10.1563 34.3218C9.72547 34.3218 9.375 33.9713 9.375 33.5405ZM19.2188 38.228C19.2188 38.6588 18.8683 39.0093 18.4375 39.0093C18.0067 39.0093 17.6562 38.6588 17.6562 38.228C17.6562 37.8081 17.9925 37.4468 18.4375 37.4468C18.8927 37.4468 19.2188 37.8176 19.2188 38.228ZM27.5 33.5405C27.5 33.9604 27.1637 34.3218 26.7188 34.3218C26.2753 34.3218 25.9375 33.9618 25.9375 33.5405C25.9375 33.1097 26.288 32.7593 26.7188 32.7593C27.1495 32.7593 27.5 33.1097 27.5 33.5405ZM25.9375 25.1249L25.9375 31.3312C25.0282 31.6537 24.375 32.522 24.375 33.5405C24.375 33.6892 24.39 33.8367 24.4177 33.9814L19.9486 36.4385C19.5309 36.0872 18.9956 35.8843 18.4375 35.8843C17.8793 35.8843 17.344 36.0872 16.9263 36.4384L12.4573 33.9814C12.485 33.8367 12.5 33.6892 12.5 33.5405C12.5 32.5221 11.8468 31.6537 10.9375 31.3312L10.9375 25.1249C11.8468 24.8024 12.5 23.934 12.5 22.9155C12.5 22.7669 12.485 22.6194 12.4573 22.4747L16.9265 20.0176C17.3441 20.3689 17.8795 20.5718 18.4375 20.5718C18.9957 20.5718 19.531 20.3688 19.9487 20.0176L24.4177 22.4747C24.39 22.6194 24.375 22.7669 24.375 22.9155C24.375 23.934 25.0282 24.8024 25.9375 25.1249ZM27.3886 22.5134C27.3888 22.5137 27.3889 22.5139 27.3891 22.5141C27.4616 22.6349 27.5 22.7737 27.5 22.9155C27.5 23.3463 27.1495 23.6968 26.7188 23.6968C26.288 23.6968 25.9375 23.3463 25.9375 22.9155C25.9375 22.7737 25.9759 22.6349 26.0489 22.5134C26.1912 22.276 26.4416 22.1343 26.7188 22.1343C26.9959 22.1343 27.2463 22.276 27.3886 22.5134ZM35.7813 18.228C35.7813 18.6588 35.4308 19.0093 35 19.0093C34.5569 19.0093 34.2188 18.6496 34.2188 18.228C34.2188 17.7972 34.5692 17.4468 35 17.4468C35.4308 17.4468 35.7813 17.7972 35.7813 18.228ZM35.7813 7.60303C35.7813 8.03381 35.4308 8.38428 35 8.38428C34.5692 8.38428 34.2188 8.03381 34.2188 7.60303C34.2188 7.18303 34.555 6.82178 35 6.82178C35.4308 6.82178 35.7813 7.17225 35.7813 7.60303ZM28.2298 4.70506L32.6989 7.16217C32.6712 7.30693 32.6563 7.45436 32.6563 7.60303C32.6563 8.62147 33.3095 9.4899 34.2188 9.8124V16.0187C33.3095 16.3412 32.6563 17.2095 32.6563 18.228C32.6563 18.3767 32.6712 18.5242 32.6989 18.6689L28.2298 21.126C27.8121 20.7747 27.2768 20.5718 26.7188 20.5718C26.1605 20.5718 25.6252 20.7747 25.2076 21.1259L20.7386 18.6689C20.7663 18.5242 20.7813 18.3767 20.7813 18.228C20.7813 17.2096 20.128 16.3412 19.2188 16.0187L19.2188 9.8124C20.128 9.4899 20.7813 8.62154 20.7813 7.60303C20.7813 7.45436 20.7663 7.30685 20.7386 7.16217L25.2077 4.70506C25.6254 5.05639 26.1607 5.25928 26.7188 5.25928C27.2768 5.25928 27.8121 5.05639 28.2298 4.70506ZM27.5 2.91553C27.5 3.33178 27.1673 3.69678 26.7188 3.69678C26.2756 3.69678 25.9375 3.33709 25.9375 2.91553C25.9375 2.48475 26.288 2.13428 26.7188 2.13428C27.1495 2.13428 27.5 2.48475 27.5 2.91553Z" fill="#58DCE3"/>
</svg>
