<svg width="44" height="41" viewBox="0 0 44 41" fill="none" xmlns="http://www.w3.org/2000/svg">
<path d="M43.0654 12.4947C42.4371 5.58378 37.536 0.571777 31.4018 0.571777C27.6813 0.571777 24.1524 2.42395 21.9611 5.52731C21.7904 5.76932 21.5729 5.80642 21.4549 5.80642C21.3319 5.81449 21.1185 5.77174 20.9478 5.52247C18.788 2.37635 15.4306 0.571777 11.7352 0.571777C5.60091 0.571777 0.700627 5.58378 0.0715146 12.4947C0.0221884 12.7956 -0.181586 14.4002 0.438631 17.0243C1.33297 20.8061 3.39821 24.2435 6.41115 26.966L21.4395 40.5718L36.7258 26.966C37.4988 26.2675 38.208 25.5196 38.8525 24.7331C38.8646 24.721 38.8711 24.7065 38.8824 24.6936C40.7333 22.4244 42.0377 19.8187 42.6991 17.0243C43.3193 14.4002 43.1147 12.7956 43.0654 12.4947ZM21.45 38.401L7.49795 25.7697C7.21008 25.51 6.93838 25.2389 6.66991 24.9654H9.17585C9.49364 24.9654 9.7807 24.7807 9.9117 24.4927L13.1713 17.3389L17.3195 27.6856C17.436 27.9744 17.7077 28.1713 18.019 28.1906C18.036 28.1914 18.0538 28.1922 18.0699 28.1922C18.3619 28.1922 18.6336 28.0341 18.7767 27.7776L22.1373 21.7427L23.8435 24.6024C24.015 24.888 24.3465 25.0421 24.6708 24.9856C24.9991 24.9316 25.2603 24.6815 25.329 24.3556L27.6595 13.2909L29.3996 24.2846C29.4611 24.6766 29.7999 24.9654 30.1977 24.9654H36.467C36.1994 25.2381 35.9285 25.5075 35.6422 25.7665L21.45 38.401ZM41.1239 16.6541C40.5506 19.0798 39.4371 21.3482 37.8765 23.3521H30.8915L28.5732 8.70569C28.5126 8.3209 28.1859 8.03452 27.7953 8.02484C27.3789 7.9966 27.0643 8.28459 26.9834 8.66535L24.1743 22L22.8093 19.7122C22.6605 19.4646 22.4204 19.3291 22.1026 19.3186C21.8131 19.3226 21.5478 19.4815 21.408 19.7332L18.1904 25.5108L13.9702 14.9858C13.8497 14.6857 13.5618 14.4865 13.2384 14.4792C12.9271 14.4558 12.6166 14.6575 12.4831 14.9519L8.6559 23.3521H5.2629C3.70144 21.3474 2.58796 19.079 2.01465 16.6524C1.42516 14.1654 1.66694 12.7585 1.66855 12.7497L1.68068 12.6682C2.22165 6.59295 6.45078 2.18436 11.736 2.18436C14.8888 2.18436 17.7602 3.73322 19.6136 6.43323C20.0398 7.05519 20.7061 7.41417 21.4403 7.41901C22.164 7.4061 22.8465 7.07294 23.2832 6.45662C25.1721 3.78243 28.2077 2.18517 31.4018 2.18517C36.687 2.18517 40.9169 6.59457 41.4676 12.7464C41.4716 12.7601 41.7134 14.1662 41.1239 16.6541Z" fill="#58DCE3"/>
</svg>
