<svg width="90" height="94" viewBox="0 0 90 94" fill="none" xmlns="http://www.w3.org/2000/svg">
<g filter="url(#filter0_d)">
<circle cx="44.0029" cy="5" r="1" fill="#58DCE3"/>
</g>
<g filter="url(#filter1_d)">
<circle cx="50.0029" cy="6" r="1" fill="#58DCE3"/>
</g>
<g filter="url(#filter2_d)">
<circle cx="56.0029" cy="7" r="1" fill="#58DCE3"/>
</g>
<g filter="url(#filter3_d)">
<circle cx="61.0029" cy="9" r="1" fill="#58DCE3"/>
</g>
<g filter="url(#filter4_d)">
<circle cx="65.0029" cy="11" r="1" fill="#58DCE3"/>
</g>
<g filter="url(#filter5_d)">
<circle cx="69.0029" cy="13" r="1" fill="#58DCE3"/>
</g>
<circle cx="73.0029" cy="16" r="1" fill="#58DCE3" fill-opacity="0.18"/>
<circle cx="77.0029" cy="20" r="1" fill="#58DCE3" fill-opacity="0.18"/>
<circle cx="80.0029" cy="24" r="1" fill="#58DCE3" fill-opacity="0.18"/>
<circle cx="82.0029" cy="28" r="1" fill="#58DCE3" fill-opacity="0.18"/>
<circle cx="84.0029" cy="32" r="1" fill="#58DCE3" fill-opacity="0.18"/>
<circle cx="86.0029" cy="37" r="1" fill="#58DCE3" fill-opacity="0.18"/>
<circle cx="87.0029" cy="42" r="1" fill="#58DCE3" fill-opacity="0.18"/>
<circle cx="88.0029" cy="47" r="1" fill="#58DCE3" fill-opacity="0.18"/>
<circle cx="88.0029" cy="51" r="1" fill="#58DCE3" fill-opacity="0.18"/>
<circle r="1" transform="matrix(-1 0 0 1 39.0029 6)" fill="#58DCE3" fill-opacity="0.18"/>
<circle r="1" transform="matrix(-1 0 0 1 34.0029 7)" fill="#58DCE3" fill-opacity="0.18"/>
<circle r="1" transform="matrix(-1 0 0 1 29.0029 9)" fill="#58DCE3" fill-opacity="0.18"/>
<circle r="1" transform="matrix(-1 0 0 1 24.0029 11)" fill="#58DCE3" fill-opacity="0.18"/>
<circle r="1" transform="matrix(-1 0 0 1 20.0029 13)" fill="#58DCE3" fill-opacity="0.18"/>
<circle r="1" transform="matrix(-1 0 0 1 16.0029 16)" fill="#58DCE3" fill-opacity="0.18"/>
<circle r="1" transform="matrix(-1 0 0 1 12.0029 20)" fill="#58DCE3" fill-opacity="0.18"/>
<circle r="1" transform="matrix(-1 0 0 1 9.00293 24)" fill="#58DCE3" fill-opacity="0.18"/>
<circle r="1" transform="matrix(-1 0 0 1 7.00293 28)" fill="#58DCE3" fill-opacity="0.18"/>
<circle r="1" transform="matrix(-1 0 0 1 5.00293 32)" fill="#58DCE3" fill-opacity="0.18"/>
<circle r="1" transform="matrix(-1 0 0 1 3.00293 37)" fill="#58DCE3" fill-opacity="0.18"/>
<circle r="1" transform="matrix(-1 0 0 1 2.00293 42)" fill="#58DCE3" fill-opacity="0.18"/>
<circle r="1" transform="matrix(-1 0 0 1 1.00293 47)" fill="#58DCE3" fill-opacity="0.18"/>
<circle r="1" transform="matrix(-1 0 0 1 1.00293 51)" fill="#58DCE3" fill-opacity="0.18"/>
<circle r="1" transform="matrix(1 0 0 -1 44.0029 93)" fill="#58DCE3" fill-opacity="0.18"/>
<circle r="1" transform="matrix(1 0 0 -1 50.0029 92)" fill="#58DCE3" fill-opacity="0.18"/>
<circle r="1" transform="matrix(1 0 0 -1 56.0029 91)" fill="#58DCE3" fill-opacity="0.18"/>
<circle r="1" transform="matrix(1 0 0 -1 61.0029 89)" fill="#58DCE3" fill-opacity="0.18"/>
<circle r="1" transform="matrix(1 0 0 -1 65.0029 87)" fill="#58DCE3" fill-opacity="0.18"/>
<circle r="1" transform="matrix(1 0 0 -1 69.0029 85)" fill="#58DCE3" fill-opacity="0.18"/>
<circle r="1" transform="matrix(1 0 0 -1 73.0029 82)" fill="#58DCE3" fill-opacity="0.18"/>
<circle r="1" transform="matrix(1 0 0 -1 77.0029 78)" fill="#58DCE3" fill-opacity="0.18"/>
<circle r="1" transform="matrix(1 0 0 -1 80.0029 74)" fill="#58DCE3" fill-opacity="0.18"/>
<circle r="1" transform="matrix(1 0 0 -1 82.0029 70)" fill="#58DCE3" fill-opacity="0.18"/>
<circle r="1" transform="matrix(1 0 0 -1 84.0029 66)" fill="#58DCE3" fill-opacity="0.18"/>
<circle r="1" transform="matrix(1 0 0 -1 86.0029 61)" fill="#58DCE3" fill-opacity="0.18"/>
<circle r="1" transform="matrix(1 0 0 -1 87.0029 56)" fill="#58DCE3" fill-opacity="0.18"/>
<circle cx="39.0029" cy="92" r="1" transform="rotate(-180 39.0029 92)" fill="#58DCE3" fill-opacity="0.18"/>
<circle cx="34.0029" cy="91" r="1" transform="rotate(-180 34.0029 91)" fill="#58DCE3" fill-opacity="0.18"/>
<circle cx="29.0029" cy="89" r="1" transform="rotate(-180 29.0029 89)" fill="#58DCE3" fill-opacity="0.18"/>
<circle cx="24.0029" cy="87" r="1" transform="rotate(-180 24.0029 87)" fill="#58DCE3" fill-opacity="0.18"/>
<circle cx="20.0029" cy="85" r="1" transform="rotate(-180 20.0029 85)" fill="#58DCE3" fill-opacity="0.18"/>
<circle cx="16.0029" cy="82" r="1" transform="rotate(-180 16.0029 82)" fill="#58DCE3" fill-opacity="0.18"/>
<circle cx="12.0029" cy="78" r="1" transform="rotate(-180 12.0029 78)" fill="#58DCE3" fill-opacity="0.18"/>
<circle cx="9.00293" cy="74" r="1" transform="rotate(-180 9.00293 74)" fill="#58DCE3" fill-opacity="0.18"/>
<circle cx="7.00293" cy="70" r="1" transform="rotate(-180 7.00293 70)" fill="#58DCE3" fill-opacity="0.18"/>
<circle cx="5.00293" cy="66" r="1" transform="rotate(-180 5.00293 66)" fill="#58DCE3" fill-opacity="0.18"/>
<circle cx="3.00293" cy="61" r="1" transform="rotate(-180 3.00293 61)" fill="#58DCE3" fill-opacity="0.18"/>
<circle cx="2.00293" cy="56" r="1" transform="rotate(-180 2.00293 56)" fill="#58DCE3" fill-opacity="0.18"/>
<defs>
<filter id="filter0_d" x="39.0029" y="0" width="10" height="10" filterUnits="userSpaceOnUse" color-interpolation-filters="sRGB">
<feFlood flood-opacity="0" result="BackgroundImageFix"/>
<feColorMatrix in="SourceAlpha" type="matrix" values="0 0 0 0 0 0 0 0 0 0 0 0 0 0 0 0 0 0 127 0"/>
<feOffset/>
<feGaussianBlur stdDeviation="2"/>
<feColorMatrix type="matrix" values="0 0 0 0 0.345098 0 0 0 0 0.862745 0 0 0 0 0.890196 0 0 0 1 0"/>
<feBlend mode="normal" in2="BackgroundImageFix" result="effect1_dropShadow"/>
<feBlend mode="normal" in="SourceGraphic" in2="effect1_dropShadow" result="shape"/>
</filter>
<filter id="filter1_d" x="45.0029" y="1" width="10" height="10" filterUnits="userSpaceOnUse" color-interpolation-filters="sRGB">
<feFlood flood-opacity="0" result="BackgroundImageFix"/>
<feColorMatrix in="SourceAlpha" type="matrix" values="0 0 0 0 0 0 0 0 0 0 0 0 0 0 0 0 0 0 127 0"/>
<feOffset/>
<feGaussianBlur stdDeviation="2"/>
<feColorMatrix type="matrix" values="0 0 0 0 0.345098 0 0 0 0 0.862745 0 0 0 0 0.890196 0 0 0 1 0"/>
<feBlend mode="normal" in2="BackgroundImageFix" result="effect1_dropShadow"/>
<feBlend mode="normal" in="SourceGraphic" in2="effect1_dropShadow" result="shape"/>
</filter>
<filter id="filter2_d" x="51.0029" y="2" width="10" height="10" filterUnits="userSpaceOnUse" color-interpolation-filters="sRGB">
<feFlood flood-opacity="0" result="BackgroundImageFix"/>
<feColorMatrix in="SourceAlpha" type="matrix" values="0 0 0 0 0 0 0 0 0 0 0 0 0 0 0 0 0 0 127 0"/>
<feOffset/>
<feGaussianBlur stdDeviation="2"/>
<feColorMatrix type="matrix" values="0 0 0 0 0.345098 0 0 0 0 0.862745 0 0 0 0 0.890196 0 0 0 1 0"/>
<feBlend mode="normal" in2="BackgroundImageFix" result="effect1_dropShadow"/>
<feBlend mode="normal" in="SourceGraphic" in2="effect1_dropShadow" result="shape"/>
</filter>
<filter id="filter3_d" x="56.0029" y="4" width="10" height="10" filterUnits="userSpaceOnUse" color-interpolation-filters="sRGB">
<feFlood flood-opacity="0" result="BackgroundImageFix"/>
<feColorMatrix in="SourceAlpha" type="matrix" values="0 0 0 0 0 0 0 0 0 0 0 0 0 0 0 0 0 0 127 0"/>
<feOffset/>
<feGaussianBlur stdDeviation="2"/>
<feColorMatrix type="matrix" values="0 0 0 0 0.345098 0 0 0 0 0.862745 0 0 0 0 0.890196 0 0 0 1 0"/>
<feBlend mode="normal" in2="BackgroundImageFix" result="effect1_dropShadow"/>
<feBlend mode="normal" in="SourceGraphic" in2="effect1_dropShadow" result="shape"/>
</filter>
<filter id="filter4_d" x="60.0029" y="6" width="10" height="10" filterUnits="userSpaceOnUse" color-interpolation-filters="sRGB">
<feFlood flood-opacity="0" result="BackgroundImageFix"/>
<feColorMatrix in="SourceAlpha" type="matrix" values="0 0 0 0 0 0 0 0 0 0 0 0 0 0 0 0 0 0 127 0"/>
<feOffset/>
<feGaussianBlur stdDeviation="2"/>
<feColorMatrix type="matrix" values="0 0 0 0 0.345098 0 0 0 0 0.862745 0 0 0 0 0.890196 0 0 0 1 0"/>
<feBlend mode="normal" in2="BackgroundImageFix" result="effect1_dropShadow"/>
<feBlend mode="normal" in="SourceGraphic" in2="effect1_dropShadow" result="shape"/>
</filter>
<filter id="filter5_d" x="64.0029" y="8" width="10" height="10" filterUnits="userSpaceOnUse" color-interpolation-filters="sRGB">
<feFlood flood-opacity="0" result="BackgroundImageFix"/>
<feColorMatrix in="SourceAlpha" type="matrix" values="0 0 0 0 0 0 0 0 0 0 0 0 0 0 0 0 0 0 127 0"/>
<feOffset/>
<feGaussianBlur stdDeviation="2"/>
<feColorMatrix type="matrix" values="0 0 0 0 0.345098 0 0 0 0 0.862745 0 0 0 0 0.890196 0 0 0 1 0"/>
<feBlend mode="normal" in2="BackgroundImageFix" result="effect1_dropShadow"/>
<feBlend mode="normal" in="SourceGraphic" in2="effect1_dropShadow" result="shape"/>
</filter>
</defs>
</svg>
