<svg width="399" height="456" viewBox="0 0 399 456" fill="none" xmlns="http://www.w3.org/2000/svg">
<path d="M274.356 455C274.752 447.37 275.446 437.165 276.238 421.51C278.121 383.363 266.429 349.476 266.429 341.153C266.429 332.83 259.592 327.678 259.592 318.265C259.592 308.852 257.809 286.855 254.539 269.119C251.269 251.384 261.178 228.693 263.655 221.758C266.132 214.921 264.547 210.264 264.547 210.264C266.925 216.903 277.725 240.584 282.877 247.123C288.029 253.663 288.921 266.246 294.371 278.631C299.82 291.017 329.644 329.56 331.824 333.92C333.905 338.28 341.138 361.366 344.903 370.977C348.767 380.588 354.415 398.423 357.586 407.043C360.756 415.565 364.621 418.933 364.522 415.466C364.323 412.493 361.648 395.946 360.856 391.487C360.856 391.388 361.054 391.289 361.054 391.388C362.738 395.847 367.99 408.827 370.268 415.664C371.656 419.825 375.619 423.789 376.114 420.42C376.412 418.141 369.377 392.379 367.99 387.326C367.99 387.227 368.089 387.128 368.188 387.227C370.962 392.181 386.023 419.627 387.608 420.717C388.203 421.113 390.878 420.42 389.392 414.772C386.32 403.377 376.61 380.985 376.61 380.985C376.61 380.985 378.393 384.056 380.87 387.326C383.347 390.695 394.148 405.161 396.426 404.071C398.705 402.981 390.481 387.623 386.617 382.372C383.149 377.616 381.663 369.689 381.465 368.104C381.465 368.005 381.564 367.906 381.663 368.005L385.131 370.977C388.797 374.148 398.606 377.418 397.516 375.139C396.426 372.86 381.465 351.359 376.313 347.693C371.259 344.026 362.342 339.568 353.325 327.083C344.309 314.599 339.652 282.595 335.292 267.831C330.833 253.167 314.286 246.429 311.017 229.387C307.747 212.345 299.325 197.68 299.325 191.835C299.325 185.989 305.864 153.39 294.668 138.429C283.471 123.467 266.925 127.43 252.458 124.161C237.992 120.891 223.823 102.461 223.13 95.5255C222.436 88.4906 223.823 77.3933 224.715 74.5198C225.111 73.2318 225.607 71.4482 226.003 69.5657C227.291 63.8188 228.48 56.5858 228.48 56.5858C228.48 56.5858 226.895 62.4317 230.561 63.3234C234.326 64.2152 237.299 56.2885 237.596 48.3618C237.794 40.9306 232.543 39.048 231.849 38.8498C231.849 38.8498 231.75 38.8498 231.75 38.7507C231.75 38.2553 231.552 35.3819 228.282 22.3029C224.517 7.63858 212.131 1 199.052 1C186.073 1 174.083 7.63858 170.318 22.3029C166.949 35.481 166.85 38.3544 166.85 38.7507C166.85 38.7507 166.85 38.8498 166.751 38.8498C166.058 39.048 160.806 40.9306 161.004 48.3618C161.203 56.2885 164.274 64.2152 168.039 63.3234C171.805 62.4317 170.12 56.5858 170.12 56.5858C170.12 56.5858 171.309 63.8188 172.597 69.5657C172.994 71.5473 173.489 73.2318 173.885 74.5198C174.777 77.3933 176.263 88.4906 175.471 95.5255C174.777 102.56 160.509 120.891 146.142 124.161C131.676 127.43 115.129 123.467 103.932 138.429C92.7361 153.39 99.2756 185.989 99.2756 191.835C99.2756 197.68 90.8535 212.345 87.5837 229.387C84.314 246.429 67.7671 253.167 63.3083 267.831C58.8496 282.496 54.1927 314.599 45.2752 327.083C36.3577 339.568 27.3411 344.026 22.2878 347.693C17.2346 351.359 2.17393 372.86 1.08401 375.139C-0.00590689 377.418 9.80334 374.049 13.4694 370.977L16.9373 368.005C17.0364 367.906 17.1355 368.005 17.1355 368.104C16.8383 369.689 15.352 377.616 11.9832 382.372C8.11893 387.623 -0.104992 402.981 2.17392 404.071C4.45284 405.161 15.2529 390.596 17.73 387.326C20.2071 383.957 21.9906 380.985 21.9906 380.985C21.9906 380.985 12.2804 403.278 9.20884 414.772C7.72259 420.42 10.3978 421.113 10.9923 420.717C12.5777 419.627 27.7374 392.181 30.4127 387.227C30.5118 387.128 30.6108 387.227 30.6108 387.326C29.2237 392.379 22.1888 418.042 22.486 420.42C22.9814 423.789 26.9448 419.825 28.3319 415.664C30.6108 408.827 35.8622 395.946 37.5467 391.388C37.5467 391.289 37.7448 391.289 37.7448 391.487C36.9522 395.946 34.1778 412.493 34.0788 415.466C33.8806 418.933 37.8439 415.565 41.0146 407.043C44.1853 398.522 49.833 380.687 53.6973 370.977C57.5615 361.366 64.6955 338.28 66.7762 333.92C68.857 329.56 98.6811 291.017 104.23 278.631C109.679 266.246 110.67 253.663 115.723 247.123C120.876 240.584 131.676 216.903 134.054 210.264C134.054 210.264 132.568 214.921 134.946 221.758C137.423 228.594 147.331 251.384 144.061 269.119C140.791 286.855 139.008 308.852 139.008 318.265C139.008 327.678 132.171 332.731 132.171 341.153C132.171 349.575 120.479 383.363 122.362 421.51C123.155 437.462 124.245 454.504 124.245 454.504H181.019C181.118 453.712 190.531 428.545 192.414 421.51C194.296 414.475 198.755 390.596 198.755 390.596C198.755 390.596 189.739 390.199 181.713 376.328C173.687 362.456 171.805 336.1 153.87 328.768" fill="url(#paint0_linear)" fill-opacity="0.15"/>
<path d="M153.87 328.768C171.805 336.1 173.687 362.456 181.713 376.328C189.739 390.199 198.755 390.596 198.755 390.596C198.755 390.596 194.296 414.475 192.414 421.51C190.531 428.545 181.118 453.712 181.019 454.504H124.245C124.245 454.504 123.155 437.462 122.362 421.51C120.479 383.363 132.171 349.575 132.171 341.153C132.171 332.731 139.008 327.678 139.008 318.265C139.008 308.852 140.791 286.855 144.061 269.119C147.331 251.384 137.423 228.594 134.946 221.758C132.568 214.921 134.054 210.264 134.054 210.264C131.676 216.903 120.876 240.584 115.723 247.123C110.67 253.663 109.679 266.246 104.23 278.631C98.6811 291.017 68.857 329.56 66.7762 333.92C64.6955 338.28 57.5615 361.366 53.6973 370.977C49.833 380.687 44.1853 398.522 41.0146 407.043C37.8439 415.565 33.8806 418.933 34.0788 415.466C34.1778 412.493 36.9522 395.946 37.7448 391.487C37.7448 391.289 37.5467 391.289 37.5467 391.388C35.8622 395.946 30.6108 408.827 28.3319 415.664C26.9448 419.825 22.9814 423.789 22.486 420.42C22.1888 418.042 29.2237 392.379 30.6108 387.326C30.6108 387.227 30.5118 387.128 30.4127 387.227C27.7374 392.181 12.5777 419.627 10.9923 420.717C10.3978 421.113 7.72259 420.42 9.20884 414.772C12.2804 403.278 21.9906 380.985 21.9906 380.985C21.9906 380.985 20.2071 383.957 17.73 387.326C15.2529 390.596 4.45284 405.161 2.17392 404.071C-0.104992 402.981 8.11893 387.623 11.9832 382.372C15.352 377.616 16.8383 369.689 17.1355 368.104C17.1355 368.005 17.0364 367.906 16.9373 368.005L13.4694 370.977C9.80334 374.049 -0.00590689 377.418 1.08401 375.139C2.17393 372.86 17.2346 351.359 22.2878 347.693C27.3411 344.026 36.3577 339.568 45.2752 327.083C54.1927 314.599 58.8496 282.496 63.3083 267.831C67.7671 253.167 84.314 246.429 87.5837 229.387C90.8535 212.345 99.2756 197.68 99.2756 191.835C99.2756 185.989 92.7361 153.39 103.932 138.429C115.129 123.467 131.676 127.43 146.142 124.161C160.509 120.891 174.777 102.56 175.471 95.5255C176.263 88.4906 174.777 77.3933 173.885 74.5198C173.489 73.2318 172.994 71.5473 172.597 69.5657C171.309 63.8188 170.12 56.5858 170.12 56.5858C170.12 56.5858 171.805 62.4317 168.039 63.3234C164.274 64.2152 161.203 56.2885 161.004 48.3618C160.806 40.9306 166.058 39.048 166.751 38.8498C166.85 38.8498 166.85 38.7507 166.85 38.7507C166.85 38.3544 166.949 35.481 170.318 22.3029C174.083 7.63858 186.073 1 199.052 1C212.131 1 224.517 7.63858 228.282 22.3029C231.552 35.3819 231.75 38.2553 231.75 38.7507C231.75 38.8498 231.849 38.8498 231.849 38.8498C232.543 39.048 237.794 40.9306 237.596 48.3618C237.299 56.2885 234.326 64.2152 230.561 63.3234C226.895 62.4317 228.48 56.5858 228.48 56.5858C228.48 56.5858 227.291 63.8188 226.003 69.5657C225.607 71.4482 225.111 73.2318 224.715 74.5198C223.823 77.3933 222.436 88.4906 223.13 95.5255C223.823 102.461 237.992 120.891 252.458 124.161C266.925 127.43 283.471 123.467 294.668 138.429C305.864 153.39 299.325 185.989 299.325 191.835C299.325 197.68 307.747 212.345 311.017 229.387C314.286 246.429 330.833 253.167 335.292 267.831C339.652 282.595 344.309 314.599 353.325 327.083C362.342 339.568 371.259 344.026 376.313 347.693C381.465 351.359 396.426 372.86 397.516 375.139C398.606 377.418 388.797 374.148 385.131 370.977L381.663 368.005C381.564 367.906 381.465 368.005 381.465 368.104C381.663 369.689 383.149 377.616 386.617 382.372C390.481 387.623 398.705 402.981 396.426 404.071C394.148 405.161 383.347 390.695 380.87 387.326C378.393 384.056 376.61 380.985 376.61 380.985C376.61 380.985 386.32 403.377 389.392 414.772C390.878 420.42 388.203 421.113 387.608 420.717C386.023 419.627 370.962 392.181 368.188 387.227C368.089 387.128 367.99 387.227 367.99 387.326C369.377 392.379 376.412 418.141 376.114 420.42C375.619 423.789 371.656 419.825 370.268 415.664C367.99 408.827 362.738 395.847 361.054 391.388C361.054 391.289 360.856 391.388 360.856 391.487C361.648 395.946 364.323 412.493 364.522 415.466C364.621 418.933 360.756 415.565 357.586 407.043C354.415 398.423 348.767 380.588 344.903 370.977C341.138 361.366 333.905 338.28 331.824 333.92C329.644 329.56 299.82 291.017 294.371 278.631C288.921 266.246 288.029 253.663 282.877 247.123C277.725 240.584 266.925 216.903 264.547 210.264C264.547 210.264 266.132 214.921 263.655 221.758C261.178 228.693 251.269 251.384 254.539 269.119C257.809 286.855 259.592 308.852 259.592 318.265C259.592 327.678 266.429 332.83 266.429 341.153C266.429 349.476 278.121 383.363 276.238 421.51C275.446 437.165 274.752 447.37 274.356 455H246.178H218" stroke="#58DCE3" stroke-miterlimit="10"/>
<path d="M244.532 328.768C226.598 336.1 224.715 362.456 216.689 376.328C208.664 390.199 198.656 390.596 198.656 390.596C198.656 390.596 204.106 414.574 205.988 421.51C207.871 428.544 216.293 447.469 217.68 454.405" fill="url(#paint1_linear)" fill-opacity="0.15"/>
<path d="M244.532 328.768C226.598 336.1 224.715 362.456 216.689 376.328C208.664 390.199 198.656 390.596 198.656 390.596C198.656 390.596 204.106 414.574 205.988 421.51C207.871 428.544 216.293 447.469 217.68 454.405" stroke="#58DCE3" stroke-miterlimit="10"/>
<path d="M137.521 454.604C135.936 439.147 132.963 418.636 131.477 399.018C130.882 391.091 129.297 356.115 129.297 356.115" fill="url(#paint2_linear)" fill-opacity="0.15"/>
<path d="M137.521 454.604C135.936 439.147 132.963 418.636 131.477 399.018C130.882 391.091 129.297 356.115 129.297 356.115" stroke="#58DCE3" stroke-miterlimit="10"/>
<path d="M155.85 454.603C158.427 444.794 161.102 434.886 161.994 426.266C163.777 410.412 142.276 325.399 138.808 315.788" fill="url(#paint3_linear)" fill-opacity="0.15"/>
<path d="M155.85 454.603C158.427 444.794 161.102 434.886 161.994 426.266C163.777 410.412 142.276 325.399 138.808 315.788" stroke="#58DCE3" stroke-miterlimit="10"/>
<path d="M138.808 316.68C138.808 316.68 142.474 315.788 148.221 320.148C153.968 324.507 154.86 333.128 155.949 338.181C157.039 343.234 166.948 382.966 171.902 401.693C176.856 420.42 181.612 451.73 181.612 451.73L180.918 454.604" fill="url(#paint4_linear)" fill-opacity="0.15"/>
<path d="M138.808 316.68C138.808 316.68 142.474 315.788 148.221 320.148C153.968 324.507 154.86 333.128 155.949 338.181C157.039 343.234 166.948 382.966 171.902 401.693C176.856 420.42 181.612 451.73 181.612 451.73L180.918 454.604" stroke="#58DCE3" stroke-miterlimit="10"/>
<path d="M162.195 423.492C162.195 423.492 163.582 442.813 164.672 455Z" fill="url(#paint5_linear)" fill-opacity="0.15"/>
<path d="M162.195 423.492C162.195 423.492 163.582 442.813 164.672 455" stroke="#58DCE3" stroke-miterlimit="10"/>
<path d="M175.768 361.961C175.768 361.961 167.644 373.752 168.238 387.326Z" fill="url(#paint6_linear)" fill-opacity="0.15"/>
<path d="M175.768 361.961C175.768 361.961 167.644 373.752 168.238 387.326" stroke="#58DCE3" stroke-miterlimit="10"/>
<path d="M144.062 268.029C144.062 268.029 152.682 269.02 162.194 282.595C164.473 285.765 165.86 290.323 166.851 295.079C168.535 303.105 169.229 311.824 171.21 316.58C174.381 324.21 177.651 343.531 184.686 360.177C190.928 375.138 196.477 371.274 197.467 370.382C197.567 370.283 197.567 370.184 197.567 370.085C197.269 369.392 196.477 365.725 196.179 347.692C195.684 325.795 199.548 294.683 192.91 286.657C189.343 282.396 181.416 282.099 175.768 285.765C170.22 289.431 166.851 295.178 166.851 295.178" fill="url(#paint7_linear)" fill-opacity="0.15"/>
<path d="M144.062 268.029C144.062 268.029 152.682 269.02 162.194 282.595C164.473 285.765 165.86 290.323 166.851 295.079C168.535 303.105 169.229 311.824 171.21 316.58C174.381 324.21 177.651 343.531 184.686 360.177C190.928 375.138 196.477 371.274 197.467 370.382C197.567 370.283 197.567 370.184 197.567 370.085C197.269 369.392 196.477 365.725 196.179 347.692C195.684 325.795 199.548 294.683 192.91 286.657C189.343 282.396 181.416 282.099 175.768 285.765C170.22 289.431 166.851 295.178 166.851 295.178" stroke="#58DCE3" stroke-miterlimit="10"/>
<path d="M16.8353 368.104C16.8353 368.104 21.4922 364.14 25.5546 361.465C30.0134 358.493 34.373 356.313 35.1657 354.034C36.652 349.674 35.3639 344.026 26.8427 344.621" fill="url(#paint8_linear)" fill-opacity="0.15"/>
<path d="M16.8353 368.104C16.8353 368.104 21.4922 364.14 25.5546 361.465C30.0134 358.493 34.373 356.313 35.1657 354.034C36.652 349.674 35.3639 344.026 26.8427 344.621" stroke="#58DCE3" stroke-miterlimit="10"/>
<path d="M57.6589 359.285C57.758 358.889 60.7305 351.953 55.6772 345.711C50.5249 339.369 60.7305 318.76 69.0535 303.699C77.4755 288.639 102.643 255.743 103.336 246.429C104.03 237.115 119.19 218.884 124.045 210.264C128.9 201.644 134.548 182.322 132.17 169.442C129.792 156.66 130.089 138.429 147.527 131.691C164.966 124.953 180.919 126.538 181.612 118.612C182.306 110.685 176 93.5 176 93.5" fill="url(#paint9_linear)" fill-opacity="0.15"/>
<path d="M57.6589 359.285C57.758 358.889 60.7305 351.953 55.6772 345.711C50.5249 339.369 60.7305 318.76 69.0535 303.699C77.4755 288.639 102.643 255.743 103.336 246.429C104.03 237.115 119.19 218.884 124.045 210.264C128.9 201.644 134.548 182.322 132.17 169.442C129.792 156.66 130.089 138.429 147.527 131.691C164.966 124.953 180.919 126.538 181.612 118.612C182.306 110.685 176 93.5 176 93.5" stroke="#58DCE3" stroke-miterlimit="10"/>
<path d="M181.711 114.748C181.711 114.748 192.808 124.755 191.025 133.871C189.241 142.987 173.091 145.563 161.201 147.148C149.311 148.734 134.646 153.688 131.278 160.227" fill="url(#paint10_linear)" fill-opacity="0.15"/>
<path d="M181.711 114.748C181.711 114.748 192.808 124.755 191.025 133.871C189.241 142.987 173.091 145.563 161.201 147.148C149.311 148.734 134.646 153.688 131.278 160.227" stroke="#58DCE3" stroke-miterlimit="10"/>
<path d="M188.55 138.33C188.55 138.33 194.099 145.563 194.891 168.154C195.684 190.745 199.152 198.671 177.651 199.86C156.15 201.049 142.179 201.941 139.206 195.203C136.234 188.466 132.766 176.972 132.766 176.972" fill="url(#paint11_linear)" fill-opacity="0.15"/>
<path d="M188.55 138.33C188.55 138.33 194.099 145.563 194.891 168.154C195.684 190.745 199.152 198.671 177.651 199.86C156.15 201.049 142.179 201.941 139.206 195.203C136.234 188.466 132.766 176.972 132.766 176.972" stroke="#58DCE3" stroke-miterlimit="10"/>
<path d="M98.6797 194.807C98.6797 194.807 103.337 183.71 113.344 173.702C123.351 163.695 132.764 147.445 132.764 147.445" fill="url(#paint12_linear)" fill-opacity="0.15"/>
<path d="M98.6797 194.807C98.6797 194.807 103.337 183.71 113.344 173.702C123.351 163.695 132.764 147.445 132.764 147.445" stroke="#58DCE3" stroke-miterlimit="10"/>
<path d="M87.2843 230.378C87.2843 230.378 83.321 245.835 90.3559 249.006C97.3908 252.176 104.723 241.277 104.723 241.277C104.723 241.277 103.336 252.077 108.092 253.563C111.659 254.752 113.343 250.789 113.343 250.789" fill="url(#paint13_linear)" fill-opacity="0.15"/>
<path d="M87.2843 230.378C87.2843 230.378 83.321 245.835 90.3559 249.006C97.3908 252.176 104.723 241.277 104.723 241.277C104.723 241.277 103.336 252.077 108.092 253.563C111.659 254.752 113.343 250.789 113.343 250.789" stroke="#58DCE3" stroke-miterlimit="10"/>
<path d="M182.503 199.564C193.799 196.69 197.96 201.744 197.564 214.03C197.168 226.316 194.889 259.806 195.087 267.931C195.285 276.056 194.79 282.496 181.711 283.289C168.632 284.082 166.551 279.722 166.551 270.904C166.551 269.219 166.551 264.86 166.749 259.113C167.046 247.52 167.938 230.478 170.316 218.39C172.892 204.716 176.558 201.149 182.503 199.564Z" fill="url(#paint14_linear)" fill-opacity="0.15" stroke="#58DCE3" stroke-miterlimit="10"/>
<path d="M166.751 257.923C166.751 257.923 179.632 252.87 194.99 256.338Z" fill="url(#paint15_linear)" fill-opacity="0.15"/>
<path d="M166.751 257.923C166.751 257.923 179.632 252.87 194.99 256.338" stroke="#58DCE3" stroke-miterlimit="10"/>
<path d="M168.73 229.288C168.73 229.288 181.611 224.235 196.969 227.703Z" fill="url(#paint16_linear)" fill-opacity="0.15"/>
<path d="M168.73 229.288C168.73 229.288 181.611 224.235 196.969 227.703" stroke="#58DCE3" stroke-miterlimit="10"/>
<path d="M167.742 239.394C167.742 239.394 163.779 233.648 157.735 227.901C148.322 218.884 135.045 213.335 135.342 203.923C135.54 197.284 132.766 180.143 132.766 180.143" fill="url(#paint17_linear)" fill-opacity="0.15"/>
<path d="M167.742 239.394C167.742 239.394 163.779 233.648 157.735 227.901C148.322 218.884 135.045 213.335 135.342 203.923C135.54 197.284 132.766 180.143 132.766 180.143" stroke="#58DCE3" stroke-miterlimit="10"/>
<path d="M134.845 221.758C134.845 221.758 143.069 233.648 151.59 239.395C164.173 247.718 166.749 258.419 166.749 259.211" fill="url(#paint18_linear)" fill-opacity="0.15"/>
<path d="M134.845 221.758C134.845 221.758 143.069 233.648 151.59 239.395C164.173 247.718 166.749 258.419 166.749 259.211" stroke="#58DCE3" stroke-miterlimit="10"/>
<path d="M142.477 245.438C142.477 245.438 150.007 254.158 156.051 259.112C162.194 264.165 166.653 275.163 166.653 275.163" fill="url(#paint19_linear)" fill-opacity="0.15"/>
<path d="M142.477 245.438C142.477 245.438 150.007 254.158 156.051 259.112C162.194 264.165 166.653 275.163 166.653 275.163" stroke="#58DCE3" stroke-miterlimit="10"/>
<path d="M141.684 197.978C141.684 197.978 149.115 206.103 157.438 210.463C166.752 215.318 169.526 222.947 169.526 222.947" fill="url(#paint20_linear)" fill-opacity="0.15"/>
<path d="M141.684 197.978C141.684 197.978 149.115 206.103 157.438 210.463C166.752 215.318 169.526 222.947 169.526 222.947" stroke="#58DCE3" stroke-miterlimit="10"/>
<path d="M18.5234 378.408C18.5234 378.408 20.8024 380.291 24.2703 382.471C28.729 385.443 35.1694 389.01 40.619 389.803" fill="url(#paint21_linear)" fill-opacity="0.15"/>
<path d="M18.5234 378.408C18.5234 378.408 20.8024 380.291 24.2703 382.471C28.729 385.443 35.1694 389.01 40.619 389.803" stroke="#58DCE3" stroke-miterlimit="10"/>
<path d="M135.437 205.607L133.852 210.264" stroke="#58DCE3" stroke-miterlimit="10"/>
<path d="M260.781 454.504C262.465 439.246 265.537 418.042 266.924 398.919C267.519 390.992 269.104 356.016 269.104 356.016" fill="url(#paint22_linear)" fill-opacity="0.15"/>
<path d="M260.781 454.504C262.465 439.246 265.537 418.042 266.924 398.919C267.519 390.992 269.104 356.016 269.104 356.016" stroke="#58DCE3" stroke-miterlimit="10"/>
<path d="M242.453 454.604C239.976 444.993 237.201 434.688 236.21 426.266C234.427 410.413 255.928 325.399 259.396 315.788" fill="url(#paint23_linear)" fill-opacity="0.15"/>
<path d="M242.453 454.604C239.976 444.993 237.201 434.688 236.21 426.266C234.427 410.413 255.928 325.399 259.396 315.788" stroke="#58DCE3" stroke-miterlimit="10"/>
<path d="M217.679 455L216.886 451.334C216.886 451.334 221.444 420.321 226.398 401.594C231.352 382.867 241.36 343.234 242.35 338.082C243.44 333.028 244.233 324.408 250.079 320.048C255.826 315.689 259.492 316.581 259.492 316.581" fill="url(#paint24_linear)" fill-opacity="0.15"/>
<path d="M217.679 455L216.886 451.334C216.886 451.334 221.444 420.321 226.398 401.594C231.352 382.867 241.36 343.234 242.35 338.082C243.44 333.028 244.233 324.408 250.079 320.048C255.826 315.689 259.492 316.581 259.492 316.581" stroke="#58DCE3" stroke-miterlimit="10"/>
<path d="M236.208 423.491C236.208 423.491 234.82 442.515 233.73 454.802Z" fill="url(#paint25_linear)" fill-opacity="0.15"/>
<path d="M236.208 423.491C236.208 423.491 234.82 442.515 233.73 454.802" stroke="#58DCE3" stroke-miterlimit="10"/>
<path d="M222.636 361.96C222.636 361.96 230.761 373.751 230.167 387.326Z" fill="url(#paint26_linear)" fill-opacity="0.15"/>
<path d="M222.636 361.96C222.636 361.96 230.761 373.751 230.167 387.326" stroke="#58DCE3" stroke-miterlimit="10"/>
<path d="M254.338 268.029C254.338 268.029 245.718 269.02 236.206 282.595C233.927 285.765 232.54 290.323 231.549 295.079C229.865 303.105 229.171 311.824 227.19 316.58C224.019 324.21 220.749 343.531 213.714 360.177C207.472 375.138 201.923 371.175 200.833 370.184C200.734 370.085 200.734 369.986 200.734 369.788C201.032 369.094 201.824 365.527 202.221 347.593C202.716 325.696 198.852 294.584 205.49 286.558C209.057 282.297 216.984 282 222.632 285.666C228.18 289.332 231.549 295.079 231.549 295.079" fill="url(#paint27_linear)" fill-opacity="0.15"/>
<path d="M254.338 268.029C254.338 268.029 245.718 269.02 236.206 282.595C233.927 285.765 232.54 290.323 231.549 295.079C229.865 303.105 229.171 311.824 227.19 316.58C224.019 324.21 220.749 343.531 213.714 360.177C207.472 375.138 201.923 371.175 200.833 370.184C200.734 370.085 200.734 369.986 200.734 369.788C201.032 369.094 201.824 365.527 202.221 347.593C202.716 325.696 198.852 294.584 205.49 286.558C209.057 282.297 216.984 282 222.632 285.666C228.18 289.332 231.549 295.079 231.549 295.079" stroke="#58DCE3" stroke-miterlimit="10"/>
<path d="M381.467 368.104C381.467 368.104 376.81 364.14 372.748 361.465C368.289 358.493 363.929 356.313 363.137 354.034C361.65 349.674 362.938 344.026 371.46 344.621" fill="url(#paint28_linear)" fill-opacity="0.15"/>
<path d="M381.467 368.104C381.467 368.104 376.81 364.14 372.748 361.465C368.289 358.493 363.929 356.313 363.137 354.034C361.65 349.674 362.938 344.026 371.46 344.621" stroke="#58DCE3" stroke-miterlimit="10"/>
<path d="M340.742 359.285C340.643 358.889 337.671 351.953 342.724 345.711C347.876 339.37 337.671 318.76 329.348 303.7C320.925 288.639 295.758 255.743 295.065 246.43C294.371 237.116 279.211 218.884 274.356 210.264C269.501 201.644 263.853 182.323 266.231 169.442C268.609 156.561 268.312 138.429 250.874 131.691C233.435 124.953 217.383 126.638 216.69 118.711C215.996 110.785 222.5 94 222.5 94" fill="url(#paint29_linear)" fill-opacity="0.15"/>
<path d="M340.742 359.285C340.643 358.889 337.671 351.953 342.724 345.711C347.876 339.37 337.671 318.76 329.348 303.7C320.925 288.639 295.758 255.743 295.065 246.43C294.371 237.116 279.211 218.884 274.356 210.264C269.501 201.644 263.853 182.323 266.231 169.442C268.609 156.561 268.312 138.429 250.874 131.691C233.435 124.953 217.383 126.638 216.69 118.711C215.996 110.785 222.5 94 222.5 94" stroke="#58DCE3" stroke-miterlimit="10"/>
<path d="M216.691 114.748C216.691 114.748 205.594 124.755 207.377 133.871C209.161 142.987 225.312 145.563 237.202 147.148C249.092 148.734 263.756 153.688 267.125 160.227" fill="url(#paint30_linear)" fill-opacity="0.15"/>
<path d="M216.691 114.748C216.691 114.748 205.594 124.755 207.377 133.871C209.161 142.987 225.312 145.563 237.202 147.148C249.092 148.734 263.756 153.688 267.125 160.227" stroke="#58DCE3" stroke-miterlimit="10"/>
<path d="M209.75 138.33C209.75 138.33 204.202 145.563 203.409 168.154C202.616 190.745 199.148 198.671 220.65 199.86C242.151 201.049 256.121 201.941 259.094 195.203C262.165 188.466 265.534 176.972 265.534 176.972" fill="url(#paint31_linear)" fill-opacity="0.15"/>
<path d="M209.75 138.33C209.75 138.33 204.202 145.563 203.409 168.154C202.616 190.745 199.148 198.671 220.65 199.86C242.151 201.049 256.121 201.941 259.094 195.203C262.165 188.466 265.534 176.972 265.534 176.972" stroke="#58DCE3" stroke-miterlimit="10"/>
<path d="M299.721 194.807C299.721 194.807 295.064 183.71 285.057 173.702C275.05 163.695 265.637 147.445 265.637 147.445" fill="url(#paint32_linear)" fill-opacity="0.15"/>
<path d="M299.721 194.807C299.721 194.807 295.064 183.71 285.057 173.702C275.05 163.695 265.637 147.445 265.637 147.445" stroke="#58DCE3" stroke-miterlimit="10"/>
<path d="M311.114 230.378C311.114 230.378 315.077 245.835 308.042 249.006C301.007 252.176 293.675 241.277 293.675 241.277C293.675 241.277 295.062 252.077 290.306 253.563C286.739 254.752 285.055 250.789 285.055 250.789" fill="url(#paint33_linear)" fill-opacity="0.15"/>
<path d="M311.114 230.378C311.114 230.378 315.077 245.835 308.042 249.006C301.007 252.176 293.675 241.277 293.675 241.277C293.675 241.277 295.062 252.077 290.306 253.563C286.739 254.752 285.055 250.789 285.055 250.789" stroke="#58DCE3" stroke-miterlimit="10"/>
<path d="M216.689 83.834C216.689 83.834 212.627 91.6616 211.14 94.9313C209.753 97.8047 201.529 126.737 199.647 133.475C199.548 133.871 198.953 133.871 198.854 133.475C196.971 126.737 188.648 97.8047 187.36 94.9313C185.874 91.6616 181.812 83.834 181.812 83.834" fill="url(#paint34_linear)" fill-opacity="0.15"/>
<path d="M216.689 83.834C216.689 83.834 212.627 91.6616 211.14 94.9313C209.753 97.8047 201.529 126.737 199.647 133.475C199.548 133.871 198.953 133.871 198.854 133.475C196.971 126.737 188.648 97.8047 187.36 94.9313C185.874 91.6616 181.812 83.834 181.812 83.834" stroke="#58DCE3" stroke-miterlimit="10"/>
<path d="M224.416 75.3125C224.416 75.3125 214.508 90.4723 199.348 91.364H198.853C183.693 90.5713 173.784 75.3125 173.784 75.3125" fill="url(#paint35_linear)" fill-opacity="0.15"/>
<path d="M224.416 75.3125C224.416 75.3125 214.508 90.4723 199.348 91.364H198.853C183.693 90.5713 173.784 75.3125 173.784 75.3125" stroke="#58DCE3" stroke-miterlimit="10"/>
<path d="M208.661 88.9863C208.661 88.9863 206.184 100.084 202.716 103.254C199.248 106.425 198.951 106.425 195.483 103.254C192.015 100.084 189.538 88.9863 189.538 88.9863" fill="url(#paint36_linear)" fill-opacity="0.15"/>
<path d="M208.661 88.9863C208.661 88.9863 206.184 100.084 202.716 103.254C199.248 106.425 198.951 106.425 195.483 103.254C192.015 100.084 189.538 88.9863 189.538 88.9863" stroke="#58DCE3" stroke-miterlimit="10"/>
<path d="M215.896 199.563C204.6 196.69 200.439 201.743 200.835 214.029C201.231 226.316 203.51 259.806 203.312 267.931C203.114 276.056 203.609 282.496 216.688 283.289C229.767 284.18 231.848 279.722 231.848 270.903C231.848 269.219 231.848 264.859 231.65 259.112C231.353 247.52 230.461 230.477 228.083 218.389C225.507 204.716 221.742 201.149 215.896 199.563Z" fill="url(#paint37_linear)" fill-opacity="0.15" stroke="#58DCE3" stroke-miterlimit="10"/>
<path d="M231.648 257.923C231.648 257.923 218.767 252.87 203.409 256.338Z" fill="url(#paint38_linear)" fill-opacity="0.15"/>
<path d="M231.648 257.923C231.648 257.923 218.767 252.87 203.409 256.338" stroke="#58DCE3" stroke-miterlimit="10"/>
<path d="M229.668 229.288C229.668 229.288 216.788 224.235 201.43 227.703Z" fill="url(#paint39_linear)" fill-opacity="0.15"/>
<path d="M229.668 229.288C229.668 229.288 216.788 224.235 201.43 227.703" stroke="#58DCE3" stroke-miterlimit="10"/>
<path d="M230.659 239.394C230.659 239.394 234.623 233.648 240.667 227.901C250.08 218.884 263.357 213.335 263.059 203.923C262.861 197.284 265.636 180.143 265.636 180.143" fill="url(#paint40_linear)" fill-opacity="0.15"/>
<path d="M230.659 239.394C230.659 239.394 234.623 233.648 240.667 227.901C250.08 218.884 263.357 213.335 263.059 203.923C262.861 197.284 265.636 180.143 265.636 180.143" stroke="#58DCE3" stroke-miterlimit="10"/>
<path d="M263.557 221.758C263.557 221.758 255.333 233.648 246.812 239.395C234.228 247.718 231.652 258.419 231.652 259.211" fill="url(#paint41_linear)" fill-opacity="0.15"/>
<path d="M263.557 221.758C263.557 221.758 255.333 233.648 246.812 239.395C234.228 247.718 231.652 258.419 231.652 259.211" stroke="#58DCE3" stroke-miterlimit="10"/>
<path d="M255.829 245.438C255.829 245.438 248.298 254.158 242.254 259.112C236.111 264.165 231.652 275.163 231.652 275.163" fill="url(#paint42_linear)" fill-opacity="0.15"/>
<path d="M255.829 245.438C255.829 245.438 248.298 254.158 242.254 259.112C236.111 264.165 231.652 275.163 231.652 275.163" stroke="#58DCE3" stroke-miterlimit="10"/>
<path d="M256.717 197.978C256.717 197.978 249.286 206.103 240.963 210.463C231.649 215.318 228.875 222.947 228.875 222.947" fill="url(#paint43_linear)" fill-opacity="0.15"/>
<path d="M256.717 197.978C256.717 197.978 249.286 206.103 240.963 210.463C231.649 215.318 228.875 222.947 228.875 222.947" stroke="#58DCE3" stroke-miterlimit="10"/>
<path d="M379.877 378.408C379.877 378.408 377.598 380.291 374.13 382.471C369.671 385.443 363.231 389.01 357.781 389.803" fill="url(#paint44_linear)" fill-opacity="0.15"/>
<path d="M379.877 378.408C379.877 378.408 377.598 380.291 374.13 382.471C369.671 385.443 363.231 389.01 357.781 389.803" stroke="#58DCE3" stroke-miterlimit="10"/>
<path d="M262.961 205.607L264.546 210.264" stroke="#58DCE3" stroke-miterlimit="10"/>
<path d="M217.68 454.504H274.355" stroke="#58DCE3" stroke-miterlimit="10"/>
<path d="M132.616 56.8428L143.117 58.8917" stroke="white" stroke-width="1.5" stroke-miterlimit="10" stroke-linecap="round"/>
<path d="M151.35 66.978L154.825 78.5401" stroke="white" stroke-width="1.5" stroke-miterlimit="10" stroke-linecap="round"/>
<path d="M145.86 95.4072L151.348 111.579" stroke="white" stroke-width="1.5" stroke-miterlimit="10" stroke-linecap="round"/>
<path d="M178.644 101.445L167.558 114.47" stroke="white" stroke-width="1.5" stroke-miterlimit="10" stroke-linecap="round"/>
<path d="M173.778 85.6013L156.984 82.5645" stroke="white" stroke-width="1.5" stroke-miterlimit="10" stroke-linecap="round"/>
<path d="M197.708 111.067L197.379 126.508" stroke="white" stroke-width="1.5" stroke-miterlimit="10" stroke-linecap="round"/>
<path d="M169.424 118.056L148.203 114.178L140.958 93.8342L154.935 78.54L176.157 82.4185L183.401 101.628L169.424 118.056Z" fill="url(#paint45_linear)" fill-opacity="0.6" stroke="white" stroke-width="1.5" stroke-miterlimit="10" stroke-linecap="round"/>
<path d="M176.779 129.289C176.413 128.886 169.461 118.019 169.461 118.019L183.365 101.627L200.561 109.128L200.379 128.74L186.511 133.569" fill="url(#paint46_linear)" fill-opacity="0.6"/>
<path d="M176.779 129.289C176.413 128.886 169.461 118.019 169.461 118.019L183.365 101.627L200.561 109.128L200.379 128.74L186.511 133.569" stroke="white" stroke-width="1.5" stroke-miterlimit="10" stroke-linecap="round"/>
<path d="M234.443 126.508V110.555L217.648 99.7983L200.598 109.128" fill="url(#paint47_linear)" fill-opacity="0.6"/>
<path d="M234.443 126.508V110.555L217.648 99.7983L200.598 109.128" stroke="white" stroke-width="1.5" stroke-miterlimit="10" stroke-linecap="round"/>
<path d="M240.041 134.74C240.041 134.74 252.042 141.729 252.445 141.473C252.847 141.216 263.934 134.74 263.934 134.74" fill="url(#paint48_linear)" fill-opacity="0.6"/>
<path d="M240.041 134.74C240.041 134.74 252.042 141.729 252.445 141.473C252.847 141.216 263.934 134.74 263.934 134.74" stroke="white" stroke-width="1.5" stroke-miterlimit="10" stroke-linecap="round"/>
<path d="M249.736 153.217C249.736 152.815 249.736 140.192 249.736 140.192Z" fill="url(#paint49_linear)" fill-opacity="0.6"/>
<path d="M249.736 153.217C249.736 152.815 249.736 140.192 249.736 140.192" stroke="white" stroke-width="1.5" stroke-miterlimit="10" stroke-linecap="round"/>
<path d="M254.639 153.217C254.639 152.815 254.639 140.192 254.639 140.192Z" fill="url(#paint50_linear)" fill-opacity="0.6"/>
<path d="M254.639 153.217C254.639 152.815 254.639 140.192 254.639 140.192" stroke="white" stroke-width="1.5" stroke-miterlimit="10" stroke-linecap="round"/>
<path d="M150.069 65.3678C152.776 65.3678 154.972 63.1727 154.972 60.4649C154.972 57.7571 152.776 55.562 150.069 55.562C147.361 55.562 145.166 57.7571 145.166 60.4649C145.166 63.1727 147.361 65.3678 150.069 65.3678Z" fill="url(#paint51_linear)" fill-opacity="0.6" stroke="white" stroke-width="1.5" stroke-miterlimit="10" stroke-linecap="round"/>
<path d="M170.119 132.216L170.046 142.644" stroke="white" stroke-width="1.5" stroke-miterlimit="10" stroke-linecap="round"/>
<path d="M170.083 137.375H174.217" stroke="white" stroke-width="1.5" stroke-miterlimit="10" stroke-linecap="round"/>
<path d="M174.217 142.644V132.216" stroke="white" stroke-width="1.5" stroke-miterlimit="10" stroke-linecap="round"/>
<path d="M177.143 142.644V132.289C177.143 132.252 177.18 132.252 177.18 132.289C177.18 132.289 182.383 142.71 182.668 142.644C182.953 142.577 182.668 132.216 182.668 132.216" fill="url(#paint52_linear)" fill-opacity="0.6"/>
<path d="M177.143 142.644V132.289C177.143 132.252 177.18 132.252 177.18 132.289C177.18 132.289 182.383 142.71 182.668 142.644C182.953 142.577 182.668 132.216 182.668 132.216" stroke="white" stroke-width="1.5" stroke-miterlimit="10" stroke-linecap="round"/>
<path d="M224.416 128.337L224.306 138.802" stroke="white" stroke-width="1.5" stroke-miterlimit="10" stroke-linecap="round"/>
<path d="M224.343 133.533H228.514" stroke="white" stroke-width="1.5" stroke-miterlimit="10" stroke-linecap="round"/>
<path d="M228.514 138.802V128.337" stroke="white" stroke-width="1.5" stroke-miterlimit="10" stroke-linecap="round"/>
<path d="M277.617 126.508L277.507 136.972" stroke="white" stroke-width="1.5" stroke-miterlimit="10" stroke-linecap="round"/>
<path d="M277.58 131.704H281.715" stroke="white" stroke-width="1.5" stroke-miterlimit="10" stroke-linecap="round"/>
<path d="M281.715 136.972V126.508" stroke="white" stroke-width="1.5" stroke-miterlimit="10" stroke-linecap="round"/>
<path d="M231.405 138.802V128.447C231.405 128.411 231.442 128.411 231.442 128.447C231.442 128.447 236.594 138.802 236.93 138.802C237.266 138.802 236.93 128.374 236.93 128.374" fill="url(#paint53_linear)" fill-opacity="0.6"/>
<path d="M231.405 138.802V128.447C231.405 128.411 231.442 128.411 231.442 128.447C231.442 128.447 236.594 138.802 236.93 138.802C237.266 138.802 236.93 128.374 236.93 128.374" stroke="white" stroke-width="1.5" stroke-miterlimit="10" stroke-linecap="round"/>
<path d="M284.277 133.533C284.277 133.533 286.253 131.667 287.643 132.691C289.07 133.716 285.85 136.167 285.85 136.167C285.85 136.167 288.521 134.264 289.217 136.46C289.912 138.655 285.96 140.558 284.058 139.35" fill="url(#paint54_linear)" fill-opacity="0.6"/>
<path d="M284.277 133.533C284.277 133.533 286.253 131.667 287.643 132.691C289.07 133.716 285.85 136.167 285.85 136.167C285.85 136.167 288.521 134.264 289.217 136.46C289.912 138.655 285.96 140.558 284.058 139.35" stroke="white" stroke-width="1.5" stroke-miterlimit="10" stroke-linecap="round"/>
<path d="M110.407 52.0127L110.333 62.4771" stroke="white" stroke-width="1.5" stroke-miterlimit="10" stroke-linecap="round"/>
<path d="M110.37 57.1724H114.504" stroke="white" stroke-width="1.5" stroke-miterlimit="10" stroke-linecap="round"/>
<path d="M114.504 62.4776V52.0132" stroke="white" stroke-width="1.5" stroke-miterlimit="10" stroke-linecap="round"/>
<path d="M117.064 59.0013C117.064 59.0013 119.04 57.1353 120.431 58.1598C121.821 59.1843 118.638 61.6357 118.638 61.6357C118.638 61.6357 121.309 59.7331 122.004 61.9284C122.699 64.1237 118.748 66.0263 116.845 64.8189" fill="url(#paint55_linear)" fill-opacity="0.6"/>
<path d="M117.064 59.0013C117.064 59.0013 119.04 57.1353 120.431 58.1598C121.821 59.1843 118.638 61.6357 118.638 61.6357C118.638 61.6357 121.309 59.7331 122.004 61.9284C122.699 64.1237 118.748 66.0263 116.845 64.8189" stroke="white" stroke-width="1.5" stroke-miterlimit="10" stroke-linecap="round"/>
<path d="M129.14 54.7571C129.14 54.7571 129.359 52.3057 127.017 52.013C124.676 51.7203 123.651 56.4402 123.907 59.5137C124.163 62.5871 126.066 65.3679 130.823 59.1844" fill="url(#paint56_linear)" fill-opacity="0.6"/>
<path d="M129.14 54.7571C129.14 54.7571 129.359 52.3057 127.017 52.013C124.676 51.7203 123.651 56.4402 123.907 59.5137C124.163 62.5871 126.066 65.3679 130.823 59.1844" stroke="white" stroke-width="1.5" stroke-miterlimit="10" stroke-linecap="round"/>
<path d="M273.543 128.74C273.543 128.74 273.763 126.288 271.421 125.995C269.079 125.703 268.055 130.423 268.311 133.496C268.567 136.57 270.47 139.35 275.226 133.167" fill="url(#paint57_linear)" fill-opacity="0.6"/>
<path d="M273.543 128.74C273.543 128.74 273.763 126.288 271.421 125.995C269.079 125.703 268.055 130.423 268.311 133.496C268.567 136.57 270.47 139.35 275.226 133.167" stroke="white" stroke-width="1.5" stroke-miterlimit="10" stroke-linecap="round"/>
<defs>
<linearGradient id="paint0_linear" x1="199.3" y1="1" x2="199.3" y2="455" gradientUnits="userSpaceOnUse">
<stop stop-color="#58DCE3"/>
<stop offset="1" stop-color="#58DCE3" stop-opacity="0"/>
</linearGradient>
<linearGradient id="paint1_linear" x1="221.594" y1="328.768" x2="221.594" y2="454.405" gradientUnits="userSpaceOnUse">
<stop stop-color="#58DCE3"/>
<stop offset="1" stop-color="#58DCE3" stop-opacity="0"/>
</linearGradient>
<linearGradient id="paint2_linear" x1="133.409" y1="356.115" x2="133.409" y2="454.604" gradientUnits="userSpaceOnUse">
<stop stop-color="#58DCE3"/>
<stop offset="1" stop-color="#58DCE3" stop-opacity="0"/>
</linearGradient>
<linearGradient id="paint3_linear" x1="150.453" y1="315.788" x2="150.453" y2="454.603" gradientUnits="userSpaceOnUse">
<stop stop-color="#58DCE3"/>
<stop offset="1" stop-color="#58DCE3" stop-opacity="0"/>
</linearGradient>
<linearGradient id="paint4_linear" x1="160.21" y1="316.604" x2="160.21" y2="454.604" gradientUnits="userSpaceOnUse">
<stop stop-color="#58DCE3"/>
<stop offset="1" stop-color="#58DCE3" stop-opacity="0"/>
</linearGradient>
<linearGradient id="paint5_linear" x1="163.433" y1="423.492" x2="163.433" y2="455" gradientUnits="userSpaceOnUse">
<stop stop-color="#58DCE3"/>
<stop offset="1" stop-color="#58DCE3" stop-opacity="0"/>
</linearGradient>
<linearGradient id="paint6_linear" x1="171.988" y1="361.961" x2="171.988" y2="387.326" gradientUnits="userSpaceOnUse">
<stop stop-color="#58DCE3"/>
<stop offset="1" stop-color="#58DCE3" stop-opacity="0"/>
</linearGradient>
<linearGradient id="paint7_linear" x1="170.814" y1="268.029" x2="170.814" y2="371.491" gradientUnits="userSpaceOnUse">
<stop stop-color="#58DCE3"/>
<stop offset="1" stop-color="#58DCE3" stop-opacity="0"/>
</linearGradient>
<linearGradient id="paint8_linear" x1="26.2661" y1="344.578" x2="26.2661" y2="368.104" gradientUnits="userSpaceOnUse">
<stop stop-color="#58DCE3"/>
<stop offset="1" stop-color="#58DCE3" stop-opacity="0"/>
</linearGradient>
<linearGradient id="paint9_linear" x1="117.975" y1="93.5" x2="117.975" y2="359.285" gradientUnits="userSpaceOnUse">
<stop stop-color="#58DCE3"/>
<stop offset="1" stop-color="#58DCE3" stop-opacity="0"/>
</linearGradient>
<linearGradient id="paint10_linear" x1="161.248" y1="114.748" x2="161.248" y2="160.227" gradientUnits="userSpaceOnUse">
<stop stop-color="#58DCE3"/>
<stop offset="1" stop-color="#58DCE3" stop-opacity="0"/>
</linearGradient>
<linearGradient id="paint11_linear" x1="164.174" y1="138.33" x2="164.174" y2="200.687" gradientUnits="userSpaceOnUse">
<stop stop-color="#58DCE3"/>
<stop offset="1" stop-color="#58DCE3" stop-opacity="0"/>
</linearGradient>
<linearGradient id="paint12_linear" x1="115.722" y1="147.445" x2="115.722" y2="194.807" gradientUnits="userSpaceOnUse">
<stop stop-color="#58DCE3"/>
<stop offset="1" stop-color="#58DCE3" stop-opacity="0"/>
</linearGradient>
<linearGradient id="paint13_linear" x1="99.7576" y1="230.378" x2="99.7576" y2="253.786" gradientUnits="userSpaceOnUse">
<stop stop-color="#58DCE3"/>
<stop offset="1" stop-color="#58DCE3" stop-opacity="0"/>
</linearGradient>
<linearGradient id="paint14_linear" x1="182.07" y1="198.778" x2="182.07" y2="283.381" gradientUnits="userSpaceOnUse">
<stop stop-color="#58DCE3"/>
<stop offset="1" stop-color="#58DCE3" stop-opacity="0"/>
</linearGradient>
<linearGradient id="paint15_linear" x1="180.87" y1="255.122" x2="180.87" y2="257.923" gradientUnits="userSpaceOnUse">
<stop stop-color="#58DCE3"/>
<stop offset="1" stop-color="#58DCE3" stop-opacity="0"/>
</linearGradient>
<linearGradient id="paint16_linear" x1="182.85" y1="226.487" x2="182.85" y2="229.288" gradientUnits="userSpaceOnUse">
<stop stop-color="#58DCE3"/>
<stop offset="1" stop-color="#58DCE3" stop-opacity="0"/>
</linearGradient>
<linearGradient id="paint17_linear" x1="150.254" y1="180.143" x2="150.254" y2="239.394" gradientUnits="userSpaceOnUse">
<stop stop-color="#58DCE3"/>
<stop offset="1" stop-color="#58DCE3" stop-opacity="0"/>
</linearGradient>
<linearGradient id="paint18_linear" x1="150.797" y1="221.758" x2="150.797" y2="259.211" gradientUnits="userSpaceOnUse">
<stop stop-color="#58DCE3"/>
<stop offset="1" stop-color="#58DCE3" stop-opacity="0"/>
</linearGradient>
<linearGradient id="paint19_linear" x1="154.565" y1="245.438" x2="154.565" y2="275.163" gradientUnits="userSpaceOnUse">
<stop stop-color="#58DCE3"/>
<stop offset="1" stop-color="#58DCE3" stop-opacity="0"/>
</linearGradient>
<linearGradient id="paint20_linear" x1="155.605" y1="197.978" x2="155.605" y2="222.947" gradientUnits="userSpaceOnUse">
<stop stop-color="#58DCE3"/>
<stop offset="1" stop-color="#58DCE3" stop-opacity="0"/>
</linearGradient>
<linearGradient id="paint21_linear" x1="29.5712" y1="378.408" x2="29.5712" y2="389.803" gradientUnits="userSpaceOnUse">
<stop stop-color="#58DCE3"/>
<stop offset="1" stop-color="#58DCE3" stop-opacity="0"/>
</linearGradient>
<linearGradient id="paint22_linear" x1="264.942" y1="356.016" x2="264.942" y2="454.504" gradientUnits="userSpaceOnUse">
<stop stop-color="#58DCE3"/>
<stop offset="1" stop-color="#58DCE3" stop-opacity="0"/>
</linearGradient>
<linearGradient id="paint23_linear" x1="247.751" y1="315.788" x2="247.751" y2="454.604" gradientUnits="userSpaceOnUse">
<stop stop-color="#58DCE3"/>
<stop offset="1" stop-color="#58DCE3" stop-opacity="0"/>
</linearGradient>
<linearGradient id="paint24_linear" x1="238.189" y1="316.505" x2="238.189" y2="455" gradientUnits="userSpaceOnUse">
<stop stop-color="#58DCE3"/>
<stop offset="1" stop-color="#58DCE3" stop-opacity="0"/>
</linearGradient>
<linearGradient id="paint25_linear" x1="234.969" y1="423.491" x2="234.969" y2="454.802" gradientUnits="userSpaceOnUse">
<stop stop-color="#58DCE3"/>
<stop offset="1" stop-color="#58DCE3" stop-opacity="0"/>
</linearGradient>
<linearGradient id="paint26_linear" x1="226.417" y1="361.96" x2="226.417" y2="387.326" gradientUnits="userSpaceOnUse">
<stop stop-color="#58DCE3"/>
<stop offset="1" stop-color="#58DCE3" stop-opacity="0"/>
</linearGradient>
<linearGradient id="paint27_linear" x1="227.536" y1="268.029" x2="227.536" y2="371.401" gradientUnits="userSpaceOnUse">
<stop stop-color="#58DCE3"/>
<stop offset="1" stop-color="#58DCE3" stop-opacity="0"/>
</linearGradient>
<linearGradient id="paint28_linear" x1="372.036" y1="344.578" x2="372.036" y2="368.104" gradientUnits="userSpaceOnUse">
<stop stop-color="#58DCE3"/>
<stop offset="1" stop-color="#58DCE3" stop-opacity="0"/>
</linearGradient>
<linearGradient id="paint29_linear" x1="280.377" y1="94" x2="280.377" y2="359.285" gradientUnits="userSpaceOnUse">
<stop stop-color="#58DCE3"/>
<stop offset="1" stop-color="#58DCE3" stop-opacity="0"/>
</linearGradient>
<linearGradient id="paint30_linear" x1="237.154" y1="114.748" x2="237.154" y2="160.227" gradientUnits="userSpaceOnUse">
<stop stop-color="#58DCE3"/>
<stop offset="1" stop-color="#58DCE3" stop-opacity="0"/>
</linearGradient>
<linearGradient id="paint31_linear" x1="234.126" y1="138.33" x2="234.126" y2="200.687" gradientUnits="userSpaceOnUse">
<stop stop-color="#58DCE3"/>
<stop offset="1" stop-color="#58DCE3" stop-opacity="0"/>
</linearGradient>
<linearGradient id="paint32_linear" x1="282.679" y1="147.445" x2="282.679" y2="194.807" gradientUnits="userSpaceOnUse">
<stop stop-color="#58DCE3"/>
<stop offset="1" stop-color="#58DCE3" stop-opacity="0"/>
</linearGradient>
<linearGradient id="paint33_linear" x1="298.64" y1="230.378" x2="298.64" y2="253.786" gradientUnits="userSpaceOnUse">
<stop stop-color="#58DCE3"/>
<stop offset="1" stop-color="#58DCE3" stop-opacity="0"/>
</linearGradient>
<linearGradient id="paint34_linear" x1="199.25" y1="83.834" x2="199.25" y2="133.772" gradientUnits="userSpaceOnUse">
<stop stop-color="#58DCE3"/>
<stop offset="1" stop-color="#58DCE3" stop-opacity="0"/>
</linearGradient>
<linearGradient id="paint35_linear" x1="199.1" y1="75.3125" x2="199.1" y2="91.364" gradientUnits="userSpaceOnUse">
<stop stop-color="#58DCE3"/>
<stop offset="1" stop-color="#58DCE3" stop-opacity="0"/>
</linearGradient>
<linearGradient id="paint36_linear" x1="199.1" y1="88.9863" x2="199.1" y2="105.632" gradientUnits="userSpaceOnUse">
<stop stop-color="#58DCE3"/>
<stop offset="1" stop-color="#58DCE3" stop-opacity="0"/>
</linearGradient>
<linearGradient id="paint37_linear" x1="216.329" y1="198.778" x2="216.329" y2="283.401" gradientUnits="userSpaceOnUse">
<stop stop-color="#58DCE3"/>
<stop offset="1" stop-color="#58DCE3" stop-opacity="0"/>
</linearGradient>
<linearGradient id="paint38_linear" x1="217.529" y1="255.122" x2="217.529" y2="257.923" gradientUnits="userSpaceOnUse">
<stop stop-color="#58DCE3"/>
<stop offset="1" stop-color="#58DCE3" stop-opacity="0"/>
</linearGradient>
<linearGradient id="paint39_linear" x1="215.549" y1="226.487" x2="215.549" y2="229.288" gradientUnits="userSpaceOnUse">
<stop stop-color="#58DCE3"/>
<stop offset="1" stop-color="#58DCE3" stop-opacity="0"/>
</linearGradient>
<linearGradient id="paint40_linear" x1="248.147" y1="180.143" x2="248.147" y2="239.394" gradientUnits="userSpaceOnUse">
<stop stop-color="#58DCE3"/>
<stop offset="1" stop-color="#58DCE3" stop-opacity="0"/>
</linearGradient>
<linearGradient id="paint41_linear" x1="247.605" y1="221.758" x2="247.605" y2="259.211" gradientUnits="userSpaceOnUse">
<stop stop-color="#58DCE3"/>
<stop offset="1" stop-color="#58DCE3" stop-opacity="0"/>
</linearGradient>
<linearGradient id="paint42_linear" x1="243.741" y1="245.438" x2="243.741" y2="275.163" gradientUnits="userSpaceOnUse">
<stop stop-color="#58DCE3"/>
<stop offset="1" stop-color="#58DCE3" stop-opacity="0"/>
</linearGradient>
<linearGradient id="paint43_linear" x1="242.796" y1="197.978" x2="242.796" y2="222.947" gradientUnits="userSpaceOnUse">
<stop stop-color="#58DCE3"/>
<stop offset="1" stop-color="#58DCE3" stop-opacity="0"/>
</linearGradient>
<linearGradient id="paint44_linear" x1="368.829" y1="378.408" x2="368.829" y2="389.803" gradientUnits="userSpaceOnUse">
<stop stop-color="#58DCE3"/>
<stop offset="1" stop-color="#58DCE3" stop-opacity="0"/>
</linearGradient>
<linearGradient id="paint45_linear" x1="162.18" y1="78.54" x2="162.18" y2="118.056" gradientUnits="userSpaceOnUse">
<stop stop-color="white"/>
<stop offset="1" stop-color="white" stop-opacity="0"/>
</linearGradient>
<linearGradient id="paint46_linear" x1="185.011" y1="101.627" x2="185.011" y2="133.569" gradientUnits="userSpaceOnUse">
<stop stop-color="white"/>
<stop offset="1" stop-color="white" stop-opacity="0"/>
</linearGradient>
<linearGradient id="paint47_linear" x1="217.52" y1="99.7983" x2="217.52" y2="126.508" gradientUnits="userSpaceOnUse">
<stop stop-color="white"/>
<stop offset="1" stop-color="white" stop-opacity="0"/>
</linearGradient>
<linearGradient id="paint48_linear" x1="251.987" y1="134.74" x2="251.987" y2="141.479" gradientUnits="userSpaceOnUse">
<stop stop-color="white"/>
<stop offset="1" stop-color="white" stop-opacity="0"/>
</linearGradient>
<linearGradient id="paint49_linear" x1="250.236" y1="140.192" x2="250.236" y2="153.217" gradientUnits="userSpaceOnUse">
<stop stop-color="white"/>
<stop offset="1" stop-color="white" stop-opacity="0"/>
</linearGradient>
<linearGradient id="paint50_linear" x1="255.139" y1="140.192" x2="255.139" y2="153.217" gradientUnits="userSpaceOnUse">
<stop stop-color="white"/>
<stop offset="1" stop-color="white" stop-opacity="0"/>
</linearGradient>
<linearGradient id="paint51_linear" x1="150.069" y1="55.562" x2="150.069" y2="65.3678" gradientUnits="userSpaceOnUse">
<stop stop-color="white"/>
<stop offset="1" stop-color="white" stop-opacity="0"/>
</linearGradient>
<linearGradient id="paint52_linear" x1="179.969" y1="132.216" x2="179.969" y2="142.644" gradientUnits="userSpaceOnUse">
<stop stop-color="white"/>
<stop offset="1" stop-color="white" stop-opacity="0"/>
</linearGradient>
<linearGradient id="paint53_linear" x1="234.242" y1="128.374" x2="234.242" y2="138.802" gradientUnits="userSpaceOnUse">
<stop stop-color="white"/>
<stop offset="1" stop-color="white" stop-opacity="0"/>
</linearGradient>
<linearGradient id="paint54_linear" x1="286.678" y1="132.384" x2="286.678" y2="139.726" gradientUnits="userSpaceOnUse">
<stop stop-color="white"/>
<stop offset="1" stop-color="white" stop-opacity="0"/>
</linearGradient>
<linearGradient id="paint55_linear" x1="119.465" y1="57.8525" x2="119.465" y2="65.1944" gradientUnits="userSpaceOnUse">
<stop stop-color="white"/>
<stop offset="1" stop-color="white" stop-opacity="0"/>
</linearGradient>
<linearGradient id="paint56_linear" x1="127.346" y1="52" x2="127.346" y2="62.879" gradientUnits="userSpaceOnUse">
<stop stop-color="white"/>
<stop offset="1" stop-color="white" stop-opacity="0"/>
</linearGradient>
<linearGradient id="paint57_linear" x1="271.749" y1="125.982" x2="271.749" y2="136.861" gradientUnits="userSpaceOnUse">
<stop stop-color="white"/>
<stop offset="1" stop-color="white" stop-opacity="0"/>
</linearGradient>
</defs>
</svg>
