<svg width="148" height="37" viewBox="0 0 148 37" fill="none" xmlns="http://www.w3.org/2000/svg">
<path d="M102.757 25.6299C106.49 25.6299 111.158 23.78 111.158 16.3416C111.158 8.90316 106.685 7.01465 102.757 7.01465C98.8283 7.01465 94.3555 8.90316 94.3555 16.3416C94.3555 23.78 99.0227 25.6299 102.757 25.6299ZM102.757 9.90522C105.168 9.90522 106.685 11.1771 106.685 16.3416C106.685 21.506 105.168 22.7779 102.757 22.7779C100.345 22.7779 98.8283 21.506 98.8283 16.3416C98.8283 11.1771 100.345 9.90522 102.757 9.90522Z" fill="white"/>
<path d="M87.1612 15.6861L93.3843 7.66956H88.3281L82.6107 15.185H82.5329V9.28827C82.5329 8.51746 81.7161 7.24561 79.7714 7.24561C79.538 7.24561 78.6824 7.28415 78.1768 7.36123V25.3984H82.5329V16.1486H82.6107L89.2615 25.3984H94.201L87.1612 15.6861Z" fill="white"/>
<path d="M62.3839 21.005L60.8281 23.0477C61.9172 23.8571 64.0563 25.63 68.4124 25.63C72.1462 25.63 75.7245 23.5873 75.7245 20.1571C75.7245 16.1489 70.9016 15.0312 67.2845 13.7593C65.262 13.0271 65.1065 11.4469 66.0788 10.5604C67.829 8.98027 72.4574 10.5219 73.6242 10.9844L74.7521 8.86465C74.7521 8.86465 72.1462 7.05322 68.2958 7.05322C66.0788 7.05322 63.8618 7.36155 62.2672 9.25006C61.1004 10.6761 60.9448 13.1812 62.345 14.9541C63.7841 16.8041 68.7625 18.153 70.2016 18.9238C71.3295 19.5019 71.5239 20.3498 71.3684 21.1207C71.0572 22.4311 68.2569 24.3196 62.3839 21.005Z" fill="white"/>
<path d="M118.239 11.2539C119.172 10.7914 122.595 9.75077 124.073 11.2539C124.89 12.1018 125.045 13.2965 125.045 14.3757V25.3984H129.401V13.5663C129.401 9.36536 126.134 7.24561 122.984 7.24561C121.7 7.24561 119.834 7.39977 117.772 8.78724C117.305 8.13205 116.411 7.55393 114.855 7.55393C114.544 7.55393 114.233 7.59247 113.883 7.63101V25.4369H118.239V11.2539Z" fill="white"/>
<path d="M139.629 7.05322C135.467 7.05322 132.473 9.17297 132.473 9.17297L133.717 11.1771C136.051 10.098 138.462 9.59692 140.407 10.0594C143.168 10.6761 142.702 13.9135 142.702 13.9135C140.368 13.8364 131.656 13.2198 131.656 20.0415C131.656 22.9321 133.328 25.0518 136.868 25.5143C139.085 25.7841 141.107 25.2445 142.974 23.9727C143.363 24.7821 144.257 25.5529 146.085 25.5529C146.397 25.5529 146.708 25.5143 147.058 25.4758V12.6417C147.097 8.13237 142.429 7.05322 139.629 7.05322ZM142.741 21.3519C141.029 22.4311 139.551 22.5467 138.696 22.5467C137.684 22.5467 136.051 22.0842 136.051 19.7332C136.051 16.1103 140.64 15.9562 142.741 15.9562V21.3519Z" fill="white"/>
<path d="M58.6129 25.5143V12.6416C58.6129 8.0938 53.9457 7.01465 51.1842 7.01465C47.0225 7.01465 44.0277 9.1344 44.0277 9.1344L45.2723 11.1385C47.6059 10.0594 50.0174 9.55835 51.9621 10.0208C54.7235 10.6375 54.2568 13.8749 54.2568 13.8749C51.9232 13.7979 43.2109 13.1812 43.2109 20.0029C43.2109 22.8935 44.8834 25.0133 48.4227 25.4758C50.6397 25.7456 52.6622 25.206 54.5291 23.9341C54.918 24.7435 55.8126 25.5143 57.6406 25.5143C57.9517 25.5528 58.2629 25.5528 58.6129 25.5143ZM54.2568 21.3519C52.5455 22.431 51.0675 22.5467 50.2118 22.5467C49.2006 22.5467 47.5671 22.0842 47.5671 19.7332C47.5671 16.1103 52.1565 15.9562 54.2568 15.9562V21.3519Z" fill="white"/>
<path d="M5.56205 8.51776C6.06767 8.51776 6.5344 8.32506 6.88445 7.97819C7.23449 7.63132 7.42896 7.16883 7.42896 6.62926C7.42896 6.12823 7.23449 5.66574 6.88445 5.31887C6.5344 4.972 6.06767 4.7793 5.56205 4.7793C5.05643 4.7793 4.5897 4.972 4.20076 5.31887C3.85072 5.66574 3.65625 6.12823 3.65625 6.62926C3.65625 7.13029 3.85072 7.59278 4.20076 7.93965C4.5897 8.32506 5.05643 8.51776 5.56205 8.51776Z" fill="white"/>
<path d="M1.51686 14.877C0.661197 14.877 0 15.5707 0 16.3801C0 17.228 0.700091 17.8831 1.51686 17.8831C1.9447 17.8831 2.29474 17.729 2.60589 17.4207C2.91704 17.1123 3.07262 16.7655 3.07262 16.3415C3.03372 15.5322 2.33363 14.877 1.51686 14.877Z" fill="white"/>
<path d="M15.4018 27.5181C13.9627 27.5181 12.7959 28.6743 12.7959 30.1003C12.7959 31.5263 13.9627 32.6825 15.4018 32.6825C16.1019 32.6825 16.7631 32.4128 17.2687 31.9117C17.7743 31.4107 18.0466 30.7555 18.0466 30.0618C18.0466 29.368 17.7743 28.7128 17.2687 28.2118C16.7631 27.7879 16.1019 27.5181 15.4018 27.5181Z" fill="white"/>
<path d="M25.2034 22.585C24.2699 22.585 23.3754 22.9318 22.7142 23.6256C22.053 24.2808 21.6641 25.1672 21.6641 26.0922C21.6641 27.0172 22.0141 27.9036 22.7142 28.5588L22.7531 28.5973C23.4143 29.2525 24.3088 29.5994 25.2423 29.5994C26.1757 29.5994 27.0703 29.2525 27.7315 28.5588L27.8093 28.4817C29.0928 27.1328 29.0928 24.936 27.7315 23.587C27.0314 22.9318 26.1369 22.585 25.2034 22.585Z" fill="white"/>
<path d="M22.6734 9.09579C23.3346 9.75098 24.2292 10.0979 25.1626 10.0979C26.0961 10.0979 26.9907 9.71244 27.6518 9.05725C29.0131 7.70831 29.0131 5.47294 27.6518 4.124C26.2906 2.77507 24.0347 2.77507 22.6345 4.124C21.2733 5.51148 21.3121 7.74685 22.6734 9.09579Z" fill="white"/>
<path d="M5.56005 24.2036C5.05443 24.2036 4.58771 24.3963 4.19877 24.7432C3.45979 25.4755 3.45979 26.6702 4.19877 27.4025C4.54881 27.7494 5.01554 27.9421 5.52116 27.9421C6.02678 27.9421 6.49351 27.7494 6.84355 27.4025C7.1936 27.0556 7.38807 26.5932 7.38807 26.0536C7.38807 25.5525 7.1936 25.0901 6.84355 24.7432C6.5713 24.3963 6.06567 24.2036 5.56005 24.2036Z" fill="white"/>
<path d="M15.3648 5.20303C16.8039 5.20303 18.0096 4.0468 18.0096 2.58224C18.0096 1.15623 16.8428 0 15.4037 0C13.9646 0 12.7978 1.15623 12.7978 2.62078C12.7589 4.0468 13.9257 5.20303 15.3648 5.20303Z" fill="white"/>
<path d="M29.2885 11.7549C26.7215 11.7549 24.6602 13.7976 24.6602 16.3413C24.6602 18.885 26.7215 20.9276 29.2885 20.9276C31.8555 20.9276 33.9169 18.885 33.9169 16.3413C33.9169 13.7976 31.8555 11.7549 29.2885 11.7549Z" fill="white"/>
<path d="M43.25 31.4881H44.7669V35.3037H45.5447V31.4881H47.0616V30.7173H43.25V31.4881Z" fill="white"/>
<path d="M48.5785 33.3766H50.2509V32.6058H48.5785V31.4881H50.4454V30.7173H47.7617V35.3037H50.4843V34.5328H48.5785V33.3766Z" fill="white"/>
<path d="M52.8956 30.7173C52.5845 30.7173 51.8455 30.7173 51.5732 30.7173V35.3037H52.39V33.6464C52.5845 33.6849 52.8567 33.6849 52.9734 33.6849C54.0625 33.6849 54.6459 32.9912 54.6459 32.2204C54.6848 31.4496 54.2569 30.7173 52.8956 30.7173ZM52.9734 32.9141C52.779 32.9141 52.5845 32.9141 52.39 32.8756V31.4881C52.6234 31.4881 52.8178 31.4881 52.9734 31.4881C53.5179 31.4881 53.8291 31.7193 53.8291 32.1818C53.8291 32.6829 53.4402 32.9141 52.9734 32.9141Z" fill="white"/>
<path d="M56.9396 30.7173C56.6284 30.7173 55.8894 30.7173 55.6172 30.7173V35.3037H56.434V33.6464C56.6284 33.6849 56.9007 33.6849 57.0174 33.6849C58.1064 33.6849 58.6898 32.9912 58.6898 32.2204C58.7287 31.4496 58.3008 30.7173 56.9396 30.7173ZM57.0174 32.9141C56.8229 32.9141 56.6284 32.9141 56.434 32.8756V31.4881C56.6673 31.4881 56.8618 31.4881 57.0174 31.4881C57.5619 31.4881 57.873 31.7193 57.873 32.1818C57.873 32.6829 57.4841 32.9141 57.0174 32.9141Z" fill="white"/>
<path d="M60.4799 33.9547V30.7173H59.6631V35.3037H60.3632L62.7746 32.0662V35.3037H63.5914V30.7173H62.8913L60.4799 33.9547Z" fill="white"/>
<path d="M64.332 31.4881H65.81V35.3037H66.6268V31.4881H68.1047V30.7173H64.332V31.4881Z" fill="white"/>
<path d="M70.6704 30.6787C69.2702 30.6787 68.2979 31.7193 68.2979 33.0297C68.2979 34.4557 69.3091 35.3807 70.6704 35.3807C72.0317 35.3807 73.0818 34.4172 73.0818 33.0297C73.0818 31.6037 72.0317 30.6787 70.6704 30.6787ZM70.6704 34.6099C69.8147 34.6099 69.1535 33.9161 69.1535 33.0297C69.1535 32.1047 69.8147 31.411 70.6704 31.411C71.526 31.411 72.2261 32.0662 72.2261 33.0297C72.2261 33.9161 71.6427 34.6099 70.6704 34.6099Z" fill="white"/>
<path d="M75.3375 30.7173C75.0264 30.7173 74.2874 30.7173 74.0151 30.7173V35.3037H74.8319V33.6464C75.0264 33.6849 75.2986 33.6849 75.4153 33.6849C76.5043 33.6849 77.0878 32.9912 77.0878 32.2204C77.1267 31.4496 76.6988 30.7173 75.3375 30.7173ZM75.4153 32.9141C75.2208 32.9141 75.0264 32.9141 74.8319 32.8756V31.4881C75.0653 31.4881 75.2597 31.4881 75.4153 31.4881C75.9598 31.4881 76.271 31.7193 76.271 32.1818C76.271 32.6829 75.882 32.9141 75.4153 32.9141Z" fill="white"/>
<path d="M78.8755 33.9547V30.7173H78.0977V35.3037H78.7977L81.2091 32.0662V35.3037H81.987V30.7173H81.2869L78.8755 33.9547Z" fill="white"/>
<path d="M83.1552 32.2975C83.1552 32.9141 83.5442 33.3381 83.972 33.5693L82.8052 35.3037H83.6997L84.711 33.7235H85.3722V35.3037H86.1889V30.7558C85.9167 30.7558 85.3333 30.7173 85.061 30.7173C83.6997 30.7173 83.1552 31.4496 83.1552 32.2975ZM85.3722 32.9527H84.6332C84.322 32.8756 83.972 32.6443 83.972 32.2204C83.972 31.7579 84.322 31.4496 84.8277 31.4496C84.9832 31.4496 85.2166 31.4496 85.3333 31.4881V32.9527H85.3722Z" fill="white"/>
<path d="M91.9469 32.9141C92.3747 32.6443 92.5692 32.2589 92.5692 31.912C92.5692 31.1027 91.9858 30.6787 91.2079 30.6787C90.5856 30.6787 90.0022 30.987 89.73 31.3724L90.1967 31.912C90.4689 31.5652 90.7412 31.411 91.1301 31.411C91.5191 31.411 91.7913 31.6037 91.7913 31.9891C91.7913 32.3745 91.4802 32.6058 91.1301 32.6058H90.7023V33.338H91.169C91.7135 33.338 91.9858 33.5693 91.9858 33.9547C91.9858 34.4172 91.5969 34.6484 91.1301 34.6484C90.7412 34.6484 90.3134 34.4172 90.0411 34.1089L89.6133 34.6484C89.8466 34.9953 90.3912 35.4193 91.169 35.4193C91.9858 35.4193 92.7637 34.9182 92.7637 34.0703C92.7248 33.4922 92.4914 33.0683 91.9469 32.9141Z" fill="white"/>
<path d="M97.3495 30.7173H94.5102L94.4713 31.6423C94.3935 33.3381 93.9657 34.3016 93.7712 34.5328H93.2656V36.0745H94.0046V35.3037H97.1939V36.113H97.9329V34.5714H97.3106V30.7173H97.3495ZM96.5716 34.5328H94.6658C94.8214 34.3401 95.1714 33.4537 95.2492 32.2589L95.327 31.4496H96.6105V34.5328H96.5716Z" fill="white"/>
<path d="M100.774 30.6787C99.3737 30.6787 98.4014 31.7193 98.4014 33.0297C98.4014 34.4557 99.4126 35.3807 100.774 35.3807C102.135 35.3807 103.185 34.4172 103.185 33.0297C103.146 31.6037 102.135 30.6787 100.774 30.6787ZM100.774 34.6099C99.9182 34.6099 99.257 33.9161 99.257 33.0297C99.257 32.1047 99.9182 31.411 100.774 31.411C101.63 31.411 102.33 32.0662 102.33 33.0297C102.291 33.9161 101.746 34.6099 100.774 34.6099Z" fill="white"/>
<path d="M105.44 30.7173C105.128 30.7173 104.389 30.7173 104.117 30.7173V35.3037H104.934V33.6464C105.128 33.6849 105.401 33.6849 105.517 33.6849C106.606 33.6849 107.19 32.9912 107.19 32.2204C107.19 31.4496 106.762 30.7173 105.44 30.7173ZM105.517 32.9141C105.323 32.9141 105.128 32.9141 104.934 32.8756V31.4881C105.167 31.4881 105.362 31.4881 105.517 31.4881C106.062 31.4881 106.373 31.7193 106.373 32.1818C106.334 32.6829 105.984 32.9141 105.517 32.9141Z" fill="white"/>
<path d="M110.185 30.6787C108.785 30.6787 107.812 31.7193 107.812 33.0297C107.812 34.4557 108.824 35.3807 110.185 35.3807C111.546 35.3807 112.596 34.4172 112.596 33.0297C112.558 31.6037 111.546 30.6787 110.185 30.6787ZM110.185 34.6099C109.329 34.6099 108.668 33.9161 108.668 33.0297C108.668 32.1047 109.329 31.411 110.185 31.411C111.041 31.411 111.741 32.0662 111.741 33.0297C111.741 33.9161 111.157 34.6099 110.185 34.6099Z" fill="white"/>
<path d="M115.709 32.8756C116.098 32.6829 116.371 32.336 116.371 31.835C116.371 31.2183 115.943 30.7173 114.854 30.7173C114.387 30.7173 113.765 30.7558 113.531 30.7558V35.3037C113.804 35.3422 114.387 35.3422 114.815 35.3422C115.787 35.3422 116.526 34.9183 116.526 33.9933C116.526 33.3381 116.176 32.9912 115.709 32.8756ZM114.348 31.4881C114.504 31.4881 114.659 31.4496 114.854 31.4496C115.281 31.4496 115.593 31.6423 115.593 32.0277C115.593 32.4516 115.281 32.6443 114.893 32.6443H114.348V31.4881ZM114.893 34.5714C114.659 34.5714 114.465 34.5328 114.348 34.5328V33.3381H114.931C115.437 33.3381 115.748 33.5308 115.748 33.9162C115.709 34.3401 115.437 34.5714 114.893 34.5714Z" fill="white"/>
<path d="M119.677 30.6787C118.277 30.6787 117.304 31.7193 117.304 33.0297C117.304 34.4557 118.315 35.3807 119.677 35.3807C121.038 35.3807 122.088 34.4172 122.088 33.0297C122.049 31.6037 121.038 30.6787 119.677 30.6787ZM119.677 34.6099C118.821 34.6099 118.16 33.9161 118.16 33.0297C118.16 32.1047 118.821 31.411 119.677 31.411C120.532 31.411 121.232 32.0662 121.232 33.0297C121.194 33.9161 120.61 34.6099 119.677 34.6099Z" fill="white"/>
<path d="M123.02 35.3037H123.836V31.4881H125.625V30.7173H123.02V35.3037Z" fill="white"/>
<path d="M128.232 30.6787C126.832 30.6787 125.859 31.7193 125.859 33.0297C125.859 34.4557 126.871 35.3807 128.232 35.3807C129.593 35.3807 130.643 34.4172 130.643 33.0297C130.643 31.6037 129.632 30.6787 128.232 30.6787ZM128.232 34.6099C127.376 34.6099 126.715 33.9161 126.715 33.0297C126.715 32.1047 127.376 31.411 128.232 31.411C129.088 31.411 129.788 32.0662 129.788 33.0297C129.788 33.9161 129.204 34.6099 128.232 34.6099Z" fill="white"/>
<path d="M135.778 34.6099C134.845 34.6099 134.184 33.9547 134.184 33.0297C134.184 32.0276 134.845 31.411 135.662 31.411C136.128 31.411 136.44 31.5266 136.712 31.7193L137.062 31.1412C136.751 30.8714 136.245 30.6787 135.662 30.6787C134.145 30.6787 133.328 31.7193 133.328 33.0297C133.328 34.4557 134.3 35.3807 135.701 35.3807C136.284 35.3807 136.867 35.188 137.179 34.8797L136.867 34.263C136.556 34.4943 136.167 34.6099 135.778 34.6099Z" fill="white"/>
<path d="M140.913 32.6058H138.812V30.7173H137.996V35.3037H138.812V33.3381H140.913V35.3037H141.729V30.7173H140.913V32.6058Z" fill="white"/>
<path d="M144.374 30.7173L142.429 35.2651H143.246L143.713 34.1089H145.657L146.124 35.2651H146.98L145.035 30.7173H144.374ZM144.024 33.3766L144.685 31.7579L145.346 33.3766H144.024Z" fill="white"/>
</svg>
