<svg width="103" height="136" viewBox="0 0 103 136" fill="none" xmlns="http://www.w3.org/2000/svg">
<path d="M13.2251 49.7037C14.4865 49.7037 15.6508 49.2684 16.5241 48.4849C17.3973 47.7014 17.8825 46.6568 17.8825 45.438C17.8825 44.3062 17.3973 43.2616 16.5241 42.4781C15.6508 41.6946 14.4865 41.2593 13.2251 41.2593C11.9637 41.2593 10.7994 41.6946 9.8291 42.4781C8.95584 43.2616 8.4707 44.3062 8.4707 45.438C8.4707 46.5697 8.95584 47.6144 9.8291 48.3979C10.7994 49.2684 11.9637 49.7037 13.2251 49.7037Z" fill="#163C4C"/>
<path d="M3.71705 64.7161C1.62025 64.7161 0 66.4483 0 68.4692C0 70.5863 1.71556 72.2222 3.71705 72.2222C4.76545 72.2222 5.62323 71.8373 6.3857 71.0674C7.14817 70.2976 7.52941 69.4315 7.52941 68.3729C7.4341 66.352 5.71854 64.7161 3.71705 64.7161Z" fill="#082B43"/>
<g filter="url(#filter0_d)">
<path d="M36.1895 94.7407C32.8361 94.7407 30.1172 97.2615 30.1172 100.37C30.1172 103.479 32.8361 106 36.1895 106C37.8209 106 39.3616 105.412 40.5398 104.319C41.7181 103.227 42.3525 101.799 42.3525 100.286C42.3525 98.7739 41.7181 97.3455 40.5398 96.2532C39.3616 95.3289 37.8209 94.7407 36.1895 94.7407Z" fill="#27979D"/>
</g>
<g filter="url(#filter1_d)">
<path d="M59.2704 82.5432C57.0426 82.5432 54.9076 83.3784 53.3295 85.0487C51.7515 86.6262 50.8232 88.7606 50.8232 90.9877C50.8232 93.2148 51.6587 95.3491 53.3295 96.9266L53.4224 97.0194C55.0004 98.5969 57.1354 99.4321 59.3632 99.4321C61.591 99.4321 63.726 98.5969 65.304 96.9266L65.4897 96.741C68.5529 93.4932 68.5529 88.2038 65.304 84.9559C63.6332 83.3784 61.4982 82.5432 59.2704 82.5432Z" fill="#58DCE3"/>
</g>
<g filter="url(#filter2_d)">
<path d="M53.3274 51.1686C54.9185 52.6647 57.0712 53.4567 59.3175 53.4567C61.5638 53.4567 63.7164 52.5767 65.3076 51.0806C68.5834 48.0005 68.5834 42.8963 65.3076 39.8162C62.0317 36.7361 56.6032 36.7361 53.2338 39.8162C49.958 42.9843 50.0516 48.0885 53.3274 51.1686Z" fill="#58DCE3"/>
</g>
<path d="M13.2866 86.2964C12.0154 86.2964 10.842 86.78 9.86413 87.6506C8.00623 89.4884 8.00623 92.487 9.86413 94.3249C10.7442 95.1955 11.9176 95.6791 13.1888 95.6791C14.46 95.6791 15.6334 95.1955 16.5135 94.3249C17.3935 93.4543 17.8825 92.2936 17.8825 90.9394C17.8825 89.6819 17.3935 88.5212 16.5135 87.6506C15.829 86.78 14.5578 86.2964 13.2866 86.2964Z" fill="#163C4C"/>
<g filter="url(#filter3_d)">
<path d="M36.1447 42.1975C39.5224 42.1975 42.3525 39.487 42.3525 36.0536C42.3525 32.7106 39.6137 30 36.2359 30C32.8582 30 30.1194 32.7106 30.1194 36.1439C30.0281 39.487 32.7669 42.1975 36.1447 42.1975Z" fill="#27979D"/>
</g>
<g filter="url(#filter4_d)">
<path d="M69.1761 57.21C63.1731 57.21 58.3525 62.0156 58.3525 68.0001C58.3525 73.9845 63.1731 78.7902 69.1761 78.7902C75.179 78.7902 79.9996 73.9845 79.9996 68.0001C79.9996 62.0156 75.179 57.21 69.1761 57.21Z" fill="white"/>
</g>
<defs>
<filter id="filter0_d" x="0.117188" y="64.7407" width="72.2353" height="71.2593" filterUnits="userSpaceOnUse" color-interpolation-filters="sRGB">
<feFlood flood-opacity="0" result="BackgroundImageFix"/>
<feColorMatrix in="SourceAlpha" type="matrix" values="0 0 0 0 0 0 0 0 0 0 0 0 0 0 0 0 0 0 127 0"/>
<feOffset/>
<feGaussianBlur stdDeviation="15"/>
<feColorMatrix type="matrix" values="0 0 0 0 0.0862745 0 0 0 0 0.235294 0 0 0 0 0.298039 0 0 0 1 0"/>
<feBlend mode="normal" in2="BackgroundImageFix" result="effect1_dropShadow"/>
<feBlend mode="normal" in="SourceGraphic" in2="effect1_dropShadow" result="shape"/>
</filter>
<filter id="filter1_d" x="15.8232" y="47.5432" width="86.9412" height="86.8889" filterUnits="userSpaceOnUse" color-interpolation-filters="sRGB">
<feFlood flood-opacity="0" result="BackgroundImageFix"/>
<feColorMatrix in="SourceAlpha" type="matrix" values="0 0 0 0 0 0 0 0 0 0 0 0 0 0 0 0 0 0 127 0"/>
<feOffset/>
<feGaussianBlur stdDeviation="17.5"/>
<feColorMatrix type="matrix" values="0 0 0 0 0.0862745 0 0 0 0 0.235294 0 0 0 0 0.298039 0 0 0 1 0"/>
<feBlend mode="normal" in2="BackgroundImageFix" result="effect1_dropShadow"/>
<feBlend mode="normal" in="SourceGraphic" in2="effect1_dropShadow" result="shape"/>
</filter>
<filter id="filter2_d" x="15.8232" y="2.5061" width="86.9412" height="85.9506" filterUnits="userSpaceOnUse" color-interpolation-filters="sRGB">
<feFlood flood-opacity="0" result="BackgroundImageFix"/>
<feColorMatrix in="SourceAlpha" type="matrix" values="0 0 0 0 0 0 0 0 0 0 0 0 0 0 0 0 0 0 127 0"/>
<feOffset/>
<feGaussianBlur stdDeviation="17.5"/>
<feColorMatrix type="matrix" values="0 0 0 0 0.0862745 0 0 0 0 0.235294 0 0 0 0 0.298039 0 0 0 1 0"/>
<feBlend mode="normal" in2="BackgroundImageFix" result="effect1_dropShadow"/>
<feBlend mode="normal" in="SourceGraphic" in2="effect1_dropShadow" result="shape"/>
</filter>
<filter id="filter3_d" x="0.117188" y="0" width="72.2353" height="72.1975" filterUnits="userSpaceOnUse" color-interpolation-filters="sRGB">
<feFlood flood-opacity="0" result="BackgroundImageFix"/>
<feColorMatrix in="SourceAlpha" type="matrix" values="0 0 0 0 0 0 0 0 0 0 0 0 0 0 0 0 0 0 127 0"/>
<feOffset/>
<feGaussianBlur stdDeviation="15"/>
<feColorMatrix type="matrix" values="0 0 0 0 0.0862745 0 0 0 0 0.235294 0 0 0 0 0.298039 0 0 0 1 0"/>
<feBlend mode="normal" in2="BackgroundImageFix" result="effect1_dropShadow"/>
<feBlend mode="normal" in="SourceGraphic" in2="effect1_dropShadow" result="shape"/>
</filter>
<filter id="filter4_d" x="38.3525" y="37.21" width="61.6471" height="61.5802" filterUnits="userSpaceOnUse" color-interpolation-filters="sRGB">
<feFlood flood-opacity="0" result="BackgroundImageFix"/>
<feColorMatrix in="SourceAlpha" type="matrix" values="0 0 0 0 0 0 0 0 0 0 0 0 0 0 0 0 0 0 127 0"/>
<feOffset/>
<feGaussianBlur stdDeviation="10"/>
<feColorMatrix type="matrix" values="0 0 0 0 1 0 0 0 0 1 0 0 0 0 1 0 0 0 1 0"/>
<feBlend mode="normal" in2="BackgroundImageFix" result="effect1_dropShadow"/>
<feBlend mode="normal" in="SourceGraphic" in2="effect1_dropShadow" result="shape"/>
</filter>
</defs>
</svg>
