<svg width="575" height="428" viewBox="0 0 575 428" fill="none" xmlns="http://www.w3.org/2000/svg">
<path d="M48 180C53.7137 177.71 56 176.5 73 182.5C90 188.5 189.678 213.913 224.5 219C259.322 224.087 320.302 222.516 328.5 221.5C336.709 220.485 373 195.819 385 187C397 178.182 398.875 178.523 406.5 177C414.125 175.477 428 177 454 182C480 187 498.897 190.229 505 192C511.103 193.782 563.974 233.477 565 235C566.015 236.523 552.998 275.616 551.475 279.17C549.952 282.723 548.936 284.257 520.973 276.124C493.02 267.991 450 254.5 437 263.5C424 272.5 388 295.5 355.653 303.699C324.395 313.225 230.232 319.706 144.084 295.317C57.9353 270.918 3.80085 253.895 1.51104 251.735C-0.778764 249.575 5.32379 204.016 6.09066 200.02C6.85752 196.024 42.2863 182.29 48 180Z" fill="url(#paint0_linear)" fill-opacity="0.1" stroke="#58DCE3" stroke-miterlimit="10"/>
<path d="M127.72 290.662L29.2049 288.577C29.2049 288.577 29.4641 307.133 29.2049 306.366C28.9457 305.6 195.659 306.388 195.659 306.388" fill="url(#paint1_linear)" fill-opacity="0.1"/>
<path d="M127.72 290.662L29.2049 288.577C29.2049 288.577 29.4641 307.133 29.2049 306.366C28.9457 305.6 195.659 306.388 195.659 306.388" stroke="#58DCE3" stroke-miterlimit="10"/>
<path d="M337.043 307.77L483.925 309.229V293.211H384.5" fill="url(#paint2_linear)" fill-opacity="0.1"/>
<path d="M337.043 307.77L483.925 309.229V293.211H384.5" stroke="#58DCE3" stroke-miterlimit="10"/>
<path d="M449.5 260.5L477.823 293.211" stroke="#58DCE3" stroke-miterlimit="10"/>
<path d="M472.865 287.357L488.5 267" stroke="#58DCE3" stroke-miterlimit="10"/>
<path d="M476.084 291.159L494 268.5" stroke="#58DCE3" stroke-miterlimit="10"/>
<path d="M52.8374 289.074C52.9022 289.074 79.667 276.718 79.667 276.718L52.8374 289.074Z" fill="url(#paint3_linear)" fill-opacity="0.1"/>
<path d="M52.8374 289.074C52.9022 289.074 79.667 276.718 79.667 276.718" stroke="#58DCE3" stroke-miterlimit="10"/>
<path d="M64.3403 289.322L87.6704 279.062" stroke="#58DCE3" stroke-miterlimit="10"/>
<path d="M87.3354 289.808L94.4749 281.06" stroke="#58DCE3" stroke-miterlimit="10"/>
<path d="M84.4194 306.042L84.6787 364.378C84.6787 364.378 89.8847 367.241 101.582 364.692V306.064" fill="url(#paint4_linear)" fill-opacity="0.1"/>
<path d="M84.4194 306.042L84.6787 364.378C84.6787 364.378 89.8847 367.241 101.582 364.692V306.064" stroke="#58DCE3" stroke-miterlimit="10"/>
<path d="M84.6677 364.367L80.855 366.398C80.855 366.398 84.9161 370.276 92.9953 370.276C101.074 370.276 105.892 366.463 105.892 366.463L101.571 364.681" fill="url(#paint5_linear)" fill-opacity="0.1"/>
<path d="M84.6677 364.367L80.855 366.398C80.855 366.398 84.9161 370.276 92.9953 370.276C101.074 370.276 105.892 366.463 105.892 366.463L101.571 364.681" stroke="#58DCE3" stroke-miterlimit="10"/>
<path d="M463.911 309.282L464.17 367.618C464.17 367.618 469.376 370.481 481.074 367.932V309.304" fill="url(#paint6_linear)" fill-opacity="0.1"/>
<path d="M463.911 309.282L464.17 367.618C464.17 367.618 469.376 370.481 481.074 367.932V309.304" stroke="#58DCE3" stroke-miterlimit="10"/>
<path d="M464.17 367.608L460.357 369.638C460.357 369.638 464.419 373.516 472.498 373.516C480.577 373.516 485.394 369.703 485.394 369.703L481.074 367.921" fill="url(#paint7_linear)" fill-opacity="0.1"/>
<path d="M464.17 367.608L460.357 369.638C460.357 369.638 464.419 373.516 472.498 373.516C480.577 373.516 485.394 369.703 485.394 369.703L481.074 367.921" stroke="#58DCE3" stroke-miterlimit="10"/>
<path d="M435.634 308.742V318.301C435.634 318.301 439.134 319.381 443.573 319.381C448.023 319.381 449.794 318.561 449.794 318.561V308.883" fill="url(#paint8_linear)" fill-opacity="0.1"/>
<path d="M435.634 308.742V318.301C435.634 318.301 439.134 319.381 443.573 319.381C448.023 319.381 449.794 318.561 449.794 318.561V308.883" stroke="#58DCE3" stroke-miterlimit="10"/>
<path d="M435.634 318.312L432.707 320.408C432.707 320.408 436.898 323.075 443.378 323.075C449.859 323.075 452.57 320.472 452.57 320.472L449.794 318.561" fill="url(#paint9_linear)" fill-opacity="0.1"/>
<path d="M435.634 318.312L432.707 320.408C432.707 320.408 436.898 323.075 443.378 323.075C449.859 323.075 452.57 320.472 452.57 320.472L449.794 318.561" stroke="#58DCE3" stroke-miterlimit="10"/>
<path d="M6.07959 200.009C6.07959 200.009 128.833 236.992 168.094 247.274C207.356 257.557 201.264 257.568 221.84 259.469C242.426 261.37 326.803 264.167 342.681 259.469C358.569 254.77 398 224.5 411 215C424 205.5 436.5 206.146 468 213.5C499.5 220.854 564.5 234 564.5 234" fill="url(#paint10_linear)" fill-opacity="0.1"/>
<path d="M6.07959 200.009C6.07959 200.009 128.833 236.992 168.094 247.274C207.356 257.557 201.264 257.568 221.84 259.469C242.426 261.37 326.803 264.167 342.681 259.469C358.569 254.77 398 224.5 411 215C424 205.5 436.5 206.146 468 213.5C499.5 220.854 564.5 234 564.5 234" stroke="#58DCE3" stroke-miterlimit="10"/>
<path d="M97.6226 125.137C97.6226 125.137 86.4938 124.289 79.4584 131.719C72.4291 139.142 71.1321 153.683 77.298 163.398C83.4701 173.106 94.8162 175.331 99.9729 173.693C105.13 172.055 111.103 168.224 119.058 170.306C127.013 172.387 132.625 176.886 137.856 183.256C143.094 189.625 157.288 194.978 173.552 194.424C189.81 193.864 203.199 198.411 207.168 199.259C211.136 200.107 213.385 198.839 218.14 196.881C222.895 194.922 238.309 186.431 238.309 186.431C238.309 186.431 252.012 202.286 265.669 202.775C279.327 203.264 288.49 201.785 299.032 188.104C309.573 174.424 319.708 171.51 324.903 169.059C330.099 166.614 356.244 145.244 360.039 144.137C363.834 143.03 384.884 164.216 400.322 161.739C401.01 161.627 429.106 161.422 437.652 163.01C446.199 164.598 457.439 167.75 459.377 169.502C460.335 170.372 465.715 176.97 471.626 177.534C477.663 178.112 482.328 172.813 483.714 171.175C489.707 164.096 503.98 161.63 510.385 160.232C513.416 159.575 516.293 155.456 517.699 153.816C519.111 152.157 522.908 144.498 514.637 145.476C513.413 145.62 509.454 147.652 505.862 148.35C501.375 149.222 492.788 149.763 487.18 150.598C477.647 152.023 471.168 153.516 467.711 153.238C463.585 152.902 437.174 142.37 407.168 131.384C385.418 123.42 364.595 114.888 359.58 115.524C359.58 115.524 343.466 117.419 329.303 121.615C311.01 127.032 292.718 135.696 282.513 142.828C282.513 142.828 276.799 146.456 276.022 147.188C275.246 147.919 266.467 147.881 256.366 144.332C246.258 140.778 244.484 139.83 239.35 140.459C234.217 141.088 230.729 138.953 225.412 138.904C220.095 138.854 216.951 137.468 212.618 137.063C208.285 136.659 206.286 138.215 203.503 138.043C200.719 137.87 195.087 137.528 192.011 137.678C188.936 137.827 185.75 129.244 161.673 140.073C137.595 150.902 143.527 147.034 129.904 144.698C129.904 144.698 127.839 144.222 127.678 142.535C127.518 140.847 128.833 132.216 128.088 131.159C127.343 130.095 121.57 130.088 120.545 129.214C119.521 128.341 119.823 128.615 118.424 128.395C117.026 128.174 117.369 126.888 116.217 126.885C115.065 126.882 114.523 127.72 114.027 126.932C113.531 126.145 113.923 123.586 112.391 123.026C110.865 122.465 106.123 124.829 104.489 125.543C102.859 126.231 99.6649 125.142 97.6226 125.137Z" fill="#58DCE3" fill-opacity="0.1" stroke="#58DCE3" stroke-miterlimit="10"/>
<path d="M135.885 180.949C135.643 180.686 131.614 171.843 136.629 164.053C141.644 156.263 148.06 152.103 156.268 156.168C164.477 160.233 164.235 164.022 169.046 163.212C173.857 162.403 189.077 161.775 197.828 166.089C206.585 170.403 214.583 173.359 221.229 172.343C227.876 171.327 239.864 168.434 246.232 166.279C252.594 164.125 262.133 160.664 263.341 159.388C264.549 158.112 278.007 149.775 282.202 148.157C286.398 146.54 298.352 142.962 299.183 143.498C300.021 144.033 299.641 145.786 292.291 149.029C284.941 152.272 284.606 152.518 285.873 152.456C287.14 152.395 291.56 150.681 294.892 150.284C298.224 149.893 301.817 147.866 302.923 149.2C304.028 150.534 298.252 152.889 294.512 154.459C290.779 156.027 286.665 157.032 287.011 157.015C287.357 156.998 297.006 155.954 298.848 155.747C300.684 155.54 306.902 155.127 299.005 158.973C291.108 162.818 286.532 163.734 286.532 163.734C286.532 163.734 293.653 162.924 296.065 162.578C298.476 162.232 301.461 161.969 301.969 162.867C302.478 163.765 296.232 166.032 291.884 166.937C287.536 167.842 283.156 170.365 278.384 171.984C273.613 173.603 270.683 172.705 265.521 173.42C260.358 174.135 240.399 185.269 238.314 186.404C236.229 187.539 223.976 190.909 213.791 188.059C203.605 185.202 199.023 186.001 190.651 182.48C182.279 178.959 173.054 176.868 167.629 179.323C162.204 181.779 153.655 188.085 145.142 185.573C136.63 183.073 135.885 180.949 135.885 180.949Z" fill="#58DCE3" fill-opacity="0.1" stroke="#58DCE3" stroke-miterlimit="10"/>
<path d="M174.375 194.39C175.186 194.371 181.992 191.926 193.239 192.768C204.485 193.61 207.783 197.377 213.615 196.171C219.447 194.965 227.835 192.07 227.835 192.07" fill="#58DCE3" fill-opacity="0.1"/>
<path d="M174.375 194.39C175.186 194.371 181.992 191.926 193.239 192.768C204.485 193.61 207.783 197.377 213.615 196.171C219.447 194.965 227.835 192.07 227.835 192.07" stroke="#58DCE3" stroke-miterlimit="10"/>
<path d="M164.898 162.301C165.122 162.46 178.021 169.702 185.88 172.095C193.733 174.489 200.096 179.377 207.206 178.338C214.316 177.3 221.236 172.343 221.236 172.343" fill="#58DCE3" fill-opacity="0.1"/>
<path d="M164.898 162.301C165.122 162.46 178.021 169.702 185.88 172.095C193.733 174.489 200.096 179.377 207.206 178.338C214.316 177.3 221.236 172.343 221.236 172.343" stroke="#58DCE3" stroke-miterlimit="10"/>
<path d="M265.528 173.433C265.528 173.433 266.909 170.198 263.965 166.577C261.013 162.951 258.349 161.863 258.349 161.863" fill="#58DCE3" fill-opacity="0.1"/>
<path d="M265.528 173.433C265.528 173.433 266.909 170.198 263.965 166.577C261.013 162.951 258.349 161.863 258.349 161.863" stroke="#58DCE3" stroke-miterlimit="10"/>
<path d="M188.431 136.071C193.13 143.331 188.998 148.42 185.278 151.069C181.558 153.717 169.808 155.976 164.626 156.692C159.444 157.408 160.78 158.901 160.78 158.901C160.78 158.901 154.798 153.785 148.429 154.709C143.772 155.315 140.732 158.899 140.732 158.899C140.732 158.899 141.414 154.336 142.577 153.357C143.74 152.378 146.576 146.336 146.576 146.336C146.576 146.336 141.201 153.601 129.939 157.145C118.677 160.696 106.999 171.067 106.999 171.067" fill="#58DCE3" fill-opacity="0.1"/>
<path d="M188.431 136.071C193.13 143.331 188.998 148.42 185.278 151.069C181.558 153.717 169.808 155.976 164.626 156.692C159.444 157.408 160.78 158.901 160.78 158.901C160.78 158.901 154.798 153.785 148.429 154.709C143.772 155.315 140.732 158.899 140.732 158.899C140.732 158.899 141.414 154.336 142.577 153.357C143.74 152.378 146.576 146.336 146.576 146.336C146.576 146.336 141.201 153.601 129.939 157.145C118.677 160.696 106.999 171.067 106.999 171.067" stroke="#58DCE3" stroke-miterlimit="10"/>
<path d="M188.197 163.343C188.197 163.343 193.348 161.85 195.78 157.202C198.211 152.555 202.011 145.21 206.482 144.535C210.952 143.853 217.737 143.269 213.907 147.565C210.071 151.868 197.828 166.09 197.828 166.09" fill="#58DCE3" fill-opacity="0.1"/>
<path d="M188.197 163.343C188.197 163.343 193.348 161.85 195.78 157.202C198.211 152.555 202.011 145.21 206.482 144.535C210.952 143.853 217.737 143.269 213.907 147.565C210.071 151.868 197.828 166.09 197.828 166.09" stroke="#58DCE3" stroke-miterlimit="10"/>
<path d="M214.736 146.451C214.736 146.451 216.049 145.17 219.316 145.875C222.584 146.581 224.534 147.527 223.41 149.316C222.286 151.105 210.978 167.467 206.877 170.068" fill="#58DCE3" fill-opacity="0.1"/>
<path d="M214.736 146.451C214.736 146.451 216.049 145.17 219.316 145.875C222.584 146.581 224.534 147.527 223.41 149.316C222.286 151.105 210.978 167.467 206.877 170.068" stroke="#58DCE3" stroke-miterlimit="10"/>
<path d="M218.294 172.544C218.294 172.544 226.788 161.856 229.179 158.795C231.57 155.733 237.101 150.615 236.095 149.047C235.096 147.479 225.525 146.49 223.703 148.196" fill="#58DCE3" fill-opacity="0.1"/>
<path d="M218.294 172.544C218.294 172.544 226.788 161.856 229.179 158.795C231.57 155.733 237.101 150.615 236.095 149.047C235.096 147.479 225.525 146.49 223.703 148.196" stroke="#58DCE3" stroke-miterlimit="10"/>
<path d="M236.216 149.519C236.216 149.519 237.805 148.133 243.956 147.834C250.101 147.536 256.319 150.239 258.344 150.834C260.376 151.429 250.536 155.834 247.778 160.51C245.021 165.186 244.099 166.972 244.099 166.972C244.099 166.972 257.906 162.316 262.371 160.044C262.371 160.044 267.578 153.907 270.366 151.88C273.154 149.847 273.853 147.535 273.853 147.535" fill="#58DCE3" fill-opacity="0.1"/>
<path d="M236.216 149.519C236.216 149.519 237.805 148.133 243.956 147.834C250.101 147.536 256.319 150.239 258.344 150.834C260.376 151.429 250.536 155.834 247.778 160.51C245.021 165.186 244.099 166.972 244.099 166.972C244.099 166.972 257.906 162.316 262.371 160.044C262.371 160.044 267.578 153.907 270.366 151.88C273.154 149.847 273.853 147.535 273.853 147.535" stroke="#58DCE3" stroke-miterlimit="10"/>
<path d="M244.883 182.846C244.883 182.846 262.509 192.273 274.1 188.365C285.692 184.465 296.106 170.568 304.8 164.019C313.489 157.471 328.661 146.413 340.976 143.125C353.292 139.837 365.267 134.4 371.898 132.926C378.529 131.452 372.269 121.022 362.648 115.768" fill="#58DCE3" fill-opacity="0.1"/>
<path d="M244.883 182.846C244.883 182.846 262.509 192.273 274.1 188.365C285.692 184.465 296.106 170.568 304.8 164.019C313.489 157.471 328.661 146.413 340.976 143.125C353.292 139.837 365.267 134.4 371.898 132.926C378.529 131.452 372.269 121.022 362.648 115.768" stroke="#58DCE3" stroke-miterlimit="10"/>
<path d="M360.045 144.124C360.045 144.124 368.878 133.936 372.627 132.7C376.377 131.471 421.043 160.236 433.121 162.431" fill="#58DCE3" fill-opacity="0.1"/>
<path d="M360.045 144.124C360.045 144.124 368.878 133.936 372.627 132.7C376.377 131.471 421.043 160.236 433.121 162.431" stroke="#58DCE3" stroke-miterlimit="10"/>
<path d="M431.837 162.134C431.837 162.134 443.819 159.791 451.276 161.19C458.733 162.589 460.595 170.745 460.595 170.745" fill="#58DCE3" fill-opacity="0.1"/>
<path d="M431.837 162.134C431.837 162.134 443.819 159.791 451.276 161.19C458.733 162.589 460.595 170.745 460.595 170.745" stroke="#58DCE3" stroke-miterlimit="10"/>
<path d="M294.504 144.32C294.504 144.32 310.532 132.972 323.6 129.261C336.667 125.544 344.721 120.225 349.922 122.591C355.122 124.956 362.158 123.999 357.555 127.613C352.959 131.227 302.16 155.73 302.16 155.73" fill="#58DCE3" fill-opacity="0.1"/>
<path d="M294.504 144.32C294.504 144.32 310.532 132.972 323.6 129.261C336.667 125.544 344.721 120.225 349.922 122.591C355.122 124.956 362.158 123.999 357.555 127.613C352.959 131.227 302.16 155.73 302.16 155.73" stroke="#58DCE3" stroke-miterlimit="10"/>
<path d="M190.284 140.249C190.284 140.249 201.741 144.359 207.279 144.241C209.101 144.153 210.733 144.073 210.733 144.073C210.718 143.747 206.32 137.703 206.32 137.703" fill="#58DCE3" fill-opacity="0.1"/>
<path d="M190.284 140.249C190.284 140.249 201.741 144.359 207.279 144.241C209.101 144.153 210.733 144.073 210.733 144.073C210.718 143.747 206.32 137.703 206.32 137.703" stroke="#58DCE3" stroke-miterlimit="10"/>
<path d="M221.651 146.515L219.582 138.27" stroke="#58DCE3" stroke-miterlimit="10"/>
<path d="M235.725 148.698L235.323 140.412" stroke="#58DCE3" stroke-miterlimit="10"/>
<path d="M99.3707 150.768C99.3707 150.768 94.8164 152.141 94.7333 155.149C94.6502 158.158 99.3833 160.467 103.424 158.079C107.464 155.69 109.918 153.804 109.86 152.609C109.802 151.414 113.841 151.29 115.424 150.598C117.007 149.905 125.065 145.469 127.819 139.91" fill="#58DCE3" fill-opacity="0.1"/>
<path d="M99.3707 150.768C99.3707 150.768 94.8164 152.141 94.7333 155.149C94.6502 158.158 99.3833 160.467 103.424 158.079C107.464 155.69 109.918 153.804 109.86 152.609C109.802 151.414 113.841 151.29 115.424 150.598C117.007 149.905 125.065 145.469 127.819 139.91" stroke="#58DCE3" stroke-miterlimit="10"/>
<path d="M374.068 127.205C374.068 127.205 422.964 148.708 455.233 149.263L374.068 127.205Z" fill="#58DCE3" fill-opacity="0.1"/>
<path d="M374.068 127.205C374.068 127.205 422.964 148.708 455.233 149.263" stroke="#58DCE3" stroke-miterlimit="10"/>
<path d="M482.852 172.139C482.852 172.139 481.364 165.496 491.142 162.253C500.921 159.01 512.815 154.865 508.15 147.748" fill="#58DCE3" fill-opacity="0.1"/>
<path d="M482.852 172.139C482.852 172.139 481.364 165.496 491.142 162.253C500.921 159.01 512.815 154.865 508.15 147.748" stroke="#58DCE3" stroke-miterlimit="10"/>
<path d="M258.344 150.834L269.597 152.487" stroke="#58DCE3" stroke-miterlimit="10"/>
<g filter="url(#filter0_d)">
<path d="M14.0931 114.525C15.8416 98.9337 27.3245 56.3067 59.2686 10.5275M59.2686 10.5275C56.7091 25.9161 54.5925 38.6413 56.8965 46.1207M59.2686 10.5275C46.5805 20.9875 35.5182 26.345 31.573 27.7163" stroke="white"/>
</g>
<g filter="url(#filter1_d)">
<path d="M548.415 167.918C552.262 152.709 556.506 108.767 542.706 54.6769M542.706 54.6769C539.689 69.9824 537.194 82.6389 532.407 88.8299M542.706 54.6769C550.904 68.9314 559.375 77.8376 562.586 80.509" stroke="white"/>
</g>
<path d="M254.062 418.387C254.062 418.387 223.905 394.561 219.582 391.672C215.26 388.783 214.745 384.276 217.504 381.127L332.237 249.946C334.994 246.799 340.026 247.481 344.364 250.262C344.364 250.262 353.542 255.565 360.773 261.07C368.005 266.575 377.635 273.906 377.635 273.906C380.781 276.663 382.254 282.222 379.497 285.369L265.424 419.089C262.665 422.238 257.208 421.145 254.062 418.387Z" fill="url(#paint11_linear)" fill-opacity="0.1" stroke="#58DCE3" stroke-miterlimit="10"/>
<path d="M333.868 280.503L343.582 287.618C343.929 287.871 343.982 288.369 343.699 288.693L337.554 295.706C337.342 295.948 336.981 295.992 336.716 295.807L326.635 288.736C326.344 288.531 326.296 288.121 326.529 287.854L332.872 280.615C333.123 280.325 333.556 280.277 333.868 280.503Z" fill="url(#paint12_linear)" fill-opacity="0.1" stroke="#58DCE3" stroke-miterlimit="10"/>
<path d="M324.541 291.596L334.254 298.711C334.601 298.964 334.655 299.462 334.371 299.786L328.227 306.799C328.015 307.041 327.654 307.085 327.389 306.9L317.308 299.829C317.017 299.624 316.969 299.214 317.202 298.947L323.545 291.708C323.797 291.416 324.231 291.368 324.541 291.596Z" fill="url(#paint13_linear)" fill-opacity="0.1" stroke="#58DCE3" stroke-miterlimit="10"/>
<path d="M348.671 310.934L342.894 317.527C342.485 317.993 341.783 318.061 341.294 317.679L331.694 310.198C331.377 309.951 331.334 309.485 331.604 309.185L337.708 302.353C337.967 302.062 338.406 302.023 338.712 302.26L348.566 309.854C348.906 310.12 348.953 310.612 348.671 310.934Z" fill="url(#paint14_linear)" fill-opacity="0.1" stroke="#58DCE3" stroke-miterlimit="10"/>
<path d="M319.862 289.674L313.794 296.793C313.567 297.061 313.175 297.118 312.88 296.926L303.881 291.07C303.274 290.675 303.146 289.837 303.608 289.277L309.155 282.584C309.416 282.268 309.876 282.2 310.221 282.424L319.712 288.628C320.066 288.86 320.136 289.353 319.862 289.674Z" fill="url(#paint15_linear)" fill-opacity="0.1" stroke="#58DCE3" stroke-miterlimit="10"/>
<path d="M305.464 313.369L315.177 320.484C315.524 320.737 315.578 321.235 315.294 321.559L309.15 328.572C308.938 328.814 308.577 328.858 308.312 328.673L298.231 321.602C297.94 321.397 297.892 320.987 298.125 320.72L304.468 313.481C304.718 313.191 305.152 313.143 305.464 313.369Z" fill="url(#paint16_linear)" fill-opacity="0.1" stroke="#58DCE3" stroke-miterlimit="10"/>
<path d="M295.78 324.421L305.494 331.535C305.841 331.788 305.895 332.287 305.611 332.611L299.466 339.623C299.254 339.865 298.893 339.91 298.628 339.725L288.548 332.654C288.256 332.449 288.208 332.038 288.441 331.772L294.784 324.533C295.037 324.24 295.47 324.193 295.78 324.421Z" fill="url(#paint17_linear)" fill-opacity="0.1" stroke="#58DCE3" stroke-miterlimit="10"/>
<path d="M286.099 335.47L295.812 342.585C296.159 342.838 296.213 343.336 295.929 343.66L289.785 350.673C289.573 350.915 289.212 350.959 288.946 350.774L278.866 343.703C278.574 343.498 278.526 343.088 278.76 342.821L285.102 335.582C285.355 335.29 285.787 335.244 286.099 335.47Z" fill="url(#paint18_linear)" fill-opacity="0.1" stroke="#58DCE3" stroke-miterlimit="10"/>
<path d="M329.14 334.518L323.764 340.654C323.515 340.939 323.085 340.977 322.789 340.738L312.715 332.598C312.417 332.356 312.379 331.919 312.632 331.631L318.965 324.403C319.22 324.112 319.659 324.073 319.961 324.314L328.875 331.481C329.809 332.237 329.93 333.617 329.14 334.518Z" fill="url(#paint19_linear)" fill-opacity="0.1" stroke="#58DCE3" stroke-miterlimit="10"/>
<path d="M320.481 344.4L314.175 351.597C313.926 351.881 313.496 351.92 313.2 351.681L303.126 343.541C302.828 343.299 302.791 342.862 303.044 342.574L309.377 335.346C309.632 335.055 310.07 335.016 310.373 335.257L320.388 343.307C320.722 343.58 320.765 344.076 320.481 344.4Z" fill="url(#paint20_linear)" fill-opacity="0.1" stroke="#58DCE3" stroke-miterlimit="10"/>
<path d="M357.339 301.041L351.963 307.177C351.714 307.461 351.284 307.5 350.988 307.26L340.914 299.12C340.616 298.879 340.579 298.442 340.831 298.153L347.164 290.925C347.419 290.635 347.858 290.595 348.16 290.837L357.074 298.004C358.01 298.757 358.131 300.138 357.339 301.041Z" fill="url(#paint21_linear)" fill-opacity="0.1" stroke="#58DCE3" stroke-miterlimit="10"/>
<path d="M318.219 272.472L312.619 278.864C312.331 279.192 312.404 279.699 312.773 279.932L322.307 286.011C322.586 286.275 323.024 286.254 323.276 285.966L329.609 278.738C329.864 278.447 329.846 278.007 329.567 277.739L320.241 272.153C319.577 271.76 318.726 271.893 318.219 272.472Z" fill="url(#paint22_linear)" fill-opacity="0.1" stroke="#58DCE3" stroke-miterlimit="10"/>
<path d="M311.193 355.556C311.44 355.274 311.404 354.846 311.114 354.612L301.128 346.462C300.814 346.211 300.359 346.251 300.097 346.555L293.434 354.24C293.195 354.544 293.329 354.92 293.621 355.172L302.976 362.584C303.657 363.123 304.645 363.034 305.216 362.382L311.196 355.558L311.193 355.556Z" fill="url(#paint23_linear)" fill-opacity="0.1" stroke="#58DCE3" stroke-miterlimit="10"/>
<path d="M300.898 311.64L294.87 318.618C294.626 318.902 294.207 318.959 293.892 318.754L284.429 312.505C284.05 312.257 283.978 311.73 284.273 311.389L289.656 305.125C290.305 304.371 291.401 304.19 292.254 304.702C294.486 306.042 298.665 308.566 300.647 309.859C301.254 310.254 301.37 311.093 300.898 311.64Z" fill="url(#paint24_linear)" fill-opacity="0.1" stroke="#58DCE3" stroke-miterlimit="10"/>
<path d="M291.448 322.434L285.347 329.649C285.108 329.93 284.696 329.989 284.391 329.781L274.76 323.276C274.445 323.063 274.384 322.621 274.635 322.331L280.738 315.285C280.973 315.013 281.376 314.955 281.68 315.15L291.288 321.341C291.658 321.582 291.733 322.095 291.448 322.434Z" fill="url(#paint25_linear)" fill-opacity="0.1" stroke="#58DCE3" stroke-miterlimit="10"/>
<path d="M281.741 332.676L272.058 326.216C271.769 326.022 271.38 326.077 271.157 326.345L265.56 333.029C265.091 333.591 265.203 334.434 265.805 334.853L274.692 341.007C275.003 341.221 275.424 341.166 275.669 340.882L281.874 333.656C282.137 333.357 282.073 332.897 281.741 332.676Z" fill="url(#paint26_linear)" fill-opacity="0.1" stroke="#58DCE3" stroke-miterlimit="10"/>
<path d="M243.627 369.509C243.627 369.509 243.176 380.192 244.323 382.119C245.473 384.049 249.911 387.2 251.502 387.488C253.096 387.778 259.288 386.186 260.229 387.01C261.17 387.834 266.194 395.492 266.194 395.492" fill="url(#paint27_linear)" fill-opacity="0.1"/>
<path d="M243.627 369.509C243.627 369.509 243.176 380.192 244.323 382.119C245.473 384.049 249.911 387.2 251.502 387.488C253.096 387.778 259.288 386.186 260.229 387.01C261.17 387.834 266.194 395.492 266.194 395.492" stroke="#58DCE3" stroke-miterlimit="10" stroke-linecap="round"/>
<path d="M329.511 264.515L328.77 263.991L331.755 259.774L332.502 260.303L332.547 263.292L335.315 262.295L336.014 262.789L333.028 267.006L332.294 266.485L334.452 263.438L331.794 264.368L331.686 264.292L331.656 261.485L329.511 264.515Z" fill="#58DCE3"/>
<path d="M335.91 269.046L335.163 268.517L339.94 265.551L340.59 266.012L339.379 271.502L338.59 270.944L338.914 269.554L337.113 268.279L335.91 269.046ZM339.121 268.661L339.569 266.726L337.886 267.787L339.121 268.661Z" fill="#58DCE3"/>
<path d="M344.002 273.094C344.093 272.965 344.125 272.819 344.097 272.654C344.075 272.488 344.016 272.326 343.918 272.166C343.823 272.002 343.719 271.82 343.608 271.621C343.503 271.42 343.411 271.225 343.333 271.038C343.258 270.846 343.229 270.635 343.247 270.407C343.271 270.176 343.358 269.955 343.509 269.742C343.739 269.417 344.052 269.226 344.449 269.169C344.853 269.117 345.252 269.231 345.645 269.509C346.179 269.888 346.474 270.323 346.53 270.814L345.74 271.087C345.675 270.727 345.5 270.447 345.215 270.245C345.034 270.117 344.86 270.057 344.692 270.064C344.527 270.075 344.396 270.15 344.296 270.291C344.245 270.363 344.211 270.441 344.193 270.525C344.179 270.605 344.173 270.677 344.177 270.74C344.185 270.806 344.21 270.89 344.252 270.992C344.298 271.097 344.335 271.177 344.362 271.232C344.396 271.287 344.45 271.376 344.524 271.501C344.599 271.626 344.651 271.714 344.681 271.766C344.8 271.971 344.895 272.165 344.965 272.347C345.051 272.54 345.08 272.751 345.052 272.978C345.028 273.208 344.94 273.43 344.79 273.642C344.539 273.996 344.202 274.188 343.776 274.218C343.351 274.248 342.937 274.121 342.536 273.837C342.255 273.638 342.017 273.382 341.822 273.069C341.642 272.761 341.577 272.471 341.626 272.198L342.405 271.99C342.413 272.219 342.475 272.437 342.592 272.647C342.713 272.859 342.862 273.028 343.038 273.153C343.223 273.284 343.403 273.345 343.578 273.336C343.753 273.327 343.894 273.247 344.002 273.094Z" fill="#58DCE3"/>
<path d="M348.837 276.517C348.928 276.389 348.96 276.242 348.932 276.078C348.91 275.912 348.851 275.749 348.753 275.589C348.658 275.426 348.554 275.244 348.443 275.044C348.338 274.843 348.246 274.649 348.168 274.461C348.093 274.269 348.064 274.059 348.082 273.83C348.106 273.6 348.193 273.379 348.344 273.166C348.574 272.841 348.888 272.649 349.284 272.592C349.688 272.541 350.087 272.654 350.48 272.933C351.014 273.311 351.309 273.746 351.365 274.238L350.575 274.51C350.51 274.151 350.335 273.87 350.05 273.668C349.869 273.54 349.695 273.48 349.527 273.488C349.363 273.498 349.231 273.574 349.131 273.714C349.08 273.786 349.046 273.865 349.028 273.949C349.014 274.029 349.008 274.1 349.012 274.163C349.02 274.229 349.045 274.313 349.087 274.415C349.133 274.52 349.17 274.601 349.197 274.656C349.231 274.71 349.285 274.8 349.359 274.925C349.434 275.05 349.486 275.138 349.516 275.189C349.636 275.395 349.73 275.588 349.8 275.77C349.886 275.964 349.915 276.174 349.887 276.402C349.863 276.632 349.775 276.853 349.625 277.066C349.375 277.419 349.037 277.611 348.611 277.641C348.186 277.672 347.772 277.545 347.371 277.26C347.09 277.061 346.852 276.806 346.657 276.493C346.478 276.185 346.412 275.894 346.461 275.621L347.241 275.414C347.248 275.642 347.31 275.861 347.427 276.07C347.548 276.283 347.697 276.451 347.873 276.576C348.058 276.707 348.238 276.768 348.413 276.759C348.588 276.751 348.729 276.67 348.837 276.517Z" fill="#58DCE3"/>
<path d="M351.392 280.008L350.645 279.479L355.421 276.513L356.072 276.974L354.861 282.464L354.072 281.906L354.396 280.516L352.595 279.241L351.392 280.008ZM354.603 279.623L355.051 277.688L353.368 278.749L354.603 279.623Z" fill="#58DCE3"/>
<path d="M360.739 284.257L359.721 283.537L360.212 282.844L361.922 284.055L360.686 285.802C360.377 285.855 360.034 285.829 359.656 285.724C359.281 285.615 358.959 285.465 358.69 285.275C358.007 284.791 357.608 284.214 357.493 283.542C357.38 282.876 357.559 282.21 358.031 281.544C358.469 280.925 359.027 280.546 359.705 280.405C360.386 280.26 361.042 280.411 361.672 280.858C362.211 281.239 362.561 281.701 362.725 282.245L361.994 282.613C361.96 282.439 361.877 282.263 361.744 282.084C361.614 281.902 361.457 281.745 361.272 281.614C360.851 281.316 360.418 281.208 359.973 281.291C359.527 281.367 359.141 281.636 358.814 282.098C358.498 282.544 358.374 282.996 358.442 283.454C358.508 283.905 358.758 284.284 359.192 284.591C359.345 284.699 359.529 284.787 359.746 284.856C359.965 284.921 360.14 284.942 360.27 284.92L360.739 284.257Z" fill="#58DCE3"/>
<path d="M365.233 289.808L362.733 288.039L365.719 283.822L368.158 285.549L367.668 286.242L365.969 285.039L365.227 286.088L366.745 287.162L366.255 287.855L364.737 286.78L363.965 287.87L365.724 289.116L365.233 289.808Z" fill="#58DCE3"/>
<path d="M229.615 382.846L229.465 383.363C229.107 383.372 228.76 383.244 228.422 382.977C228.074 382.702 227.874 382.374 227.821 381.992C227.771 381.618 227.882 381.259 228.154 380.915C228.409 380.593 228.727 380.406 229.109 380.352C229.491 380.299 229.855 380.41 230.203 380.684C230.489 380.91 230.657 381.197 230.706 381.545C230.756 381.892 230.665 382.212 230.433 382.505C230.332 382.634 230.241 382.724 230.163 382.777L228.595 381.538C228.493 381.713 228.464 381.892 228.509 382.073C228.557 382.258 228.669 382.42 228.846 382.559C229.087 382.75 229.343 382.846 229.615 382.846ZM229.812 381.128C229.497 380.879 229.183 380.887 228.869 381.151L229.936 381.994C230.048 381.858 230.092 381.71 230.067 381.549C230.049 381.388 229.964 381.248 229.812 381.128Z" fill="#58DCE3"/>
<path d="M231.68 385.466L231.125 385.028L232.842 382.856L233.396 383.295L233.229 383.507C233.48 383.434 233.712 383.481 233.924 383.649C234.075 383.769 234.166 383.885 234.197 383.998L233.587 384.363C233.537 384.234 233.465 384.133 233.372 384.06C233.211 383.932 233.031 383.916 232.832 384.009L231.68 385.466Z" fill="#58DCE3"/>
<path d="M233.52 387.399C233.655 387.228 233.829 387.136 234.044 387.123C234.261 387.106 234.498 387.16 234.754 387.285C234.764 387.219 234.791 387.159 234.834 387.105C234.882 387.044 234.939 387.005 235.004 386.988C234.894 386.797 234.844 386.6 234.852 386.398C234.866 386.195 234.937 386.013 235.064 385.852C235.239 385.63 235.476 385.506 235.774 385.48C236.071 385.454 236.358 385.55 236.635 385.769C236.844 385.934 236.988 386.132 237.068 386.362L237.838 386.736L237.507 387.195L237.08 386.991C237.039 387.115 236.983 387.222 236.912 387.312C236.739 387.531 236.504 387.654 236.206 387.68C235.917 387.702 235.634 387.604 235.357 387.385L235.319 387.354C235.292 387.375 235.267 387.4 235.244 387.429C235.211 387.471 235.192 387.515 235.185 387.563L235.21 387.582C235.547 387.849 235.772 388.123 235.884 388.405C235.996 388.692 235.961 388.952 235.778 389.183C235.595 389.415 235.351 389.509 235.045 389.466C234.745 389.423 234.426 389.267 234.088 389C233.741 388.726 233.514 388.447 233.408 388.165C233.3 387.886 233.337 387.63 233.52 387.399ZM234.036 387.807C233.97 387.89 233.972 387.997 234.043 388.126C234.114 388.26 234.246 388.404 234.439 388.556C234.844 388.877 235.117 388.948 235.257 388.772C235.32 388.691 235.318 388.585 235.25 388.453C235.182 388.321 235.052 388.178 234.859 388.026C234.669 387.876 234.5 387.782 234.353 387.743C234.205 387.705 234.1 387.726 234.036 387.807ZM235.712 386.936C235.831 387.03 235.953 387.074 236.078 387.069C236.206 387.065 236.312 387.011 236.396 386.904C236.482 386.795 236.515 386.677 236.495 386.551C236.474 386.425 236.403 386.314 236.28 386.217C236.158 386.121 236.032 386.079 235.902 386.091C235.775 386.1 235.669 386.157 235.585 386.264C235.504 386.367 235.473 386.481 235.494 386.607C235.517 386.73 235.59 386.84 235.712 386.936Z" fill="#58DCE3"/>
<path d="M238.049 390.069C238.004 389.683 238.112 389.325 238.374 388.994C238.636 388.662 238.959 388.476 239.342 388.434C239.728 388.389 240.099 388.507 240.456 388.789C240.81 389.069 241.01 389.402 241.055 389.788C241.106 390.173 241 390.531 240.738 390.862C240.479 391.19 240.154 391.377 239.762 391.423C239.375 391.463 239.007 391.344 238.656 391.067C238.299 390.784 238.097 390.452 238.049 390.069ZM239.487 389.152C239.283 389.179 239.11 389.283 238.968 389.463C238.825 389.643 238.762 389.836 238.777 390.041C238.798 390.246 238.894 390.416 239.064 390.55C239.238 390.688 239.425 390.742 239.626 390.712C239.83 390.685 240.005 390.58 240.15 390.397C240.292 390.217 240.353 390.024 240.332 389.82C240.311 389.615 240.215 389.445 240.045 389.31C239.877 389.178 239.692 389.125 239.487 389.152Z" fill="#58DCE3"/>
<path d="M245.983 394.467L244.862 395.886L244.307 395.447L245.314 394.173C245.533 393.897 245.518 393.661 245.271 393.465C245.058 393.297 244.843 393.262 244.624 393.361C244.619 393.368 244.598 393.393 244.563 393.438C244.533 393.483 244.513 393.511 244.503 393.524L243.492 394.803L242.937 394.364L243.974 393.052C244.066 392.936 244.106 392.819 244.095 392.7C244.088 392.585 244.026 392.481 243.91 392.389C243.707 392.229 243.495 392.187 243.273 392.262L242.122 393.72L241.567 393.281L243.283 391.11L243.838 391.548L243.647 391.79C243.962 391.735 244.262 391.821 244.549 392.048C244.706 392.172 244.814 392.31 244.873 392.461C244.937 392.611 244.948 392.755 244.906 392.895C245.266 392.803 245.602 392.88 245.914 393.127C246.377 393.493 246.4 393.94 245.983 394.467Z" fill="#58DCE3"/>
<path d="M247.03 397.168C246.985 396.782 247.093 396.424 247.355 396.092C247.617 395.761 247.94 395.574 248.323 395.533C248.709 395.487 249.08 395.606 249.437 395.888C249.791 396.168 249.991 396.501 250.036 396.886C250.087 397.272 249.981 397.63 249.719 397.961C249.46 398.289 249.134 398.476 248.743 398.522C248.356 398.562 247.988 398.443 247.637 398.166C247.28 397.883 247.078 397.551 247.03 397.168ZM248.468 396.251C248.264 396.278 248.091 396.381 247.948 396.562C247.806 396.742 247.743 396.934 247.758 397.14C247.779 397.345 247.875 397.514 248.045 397.649C248.219 397.787 248.406 397.841 248.607 397.811C248.811 397.784 248.986 397.679 249.131 397.496C249.273 397.316 249.334 397.123 249.313 396.919C249.292 396.714 249.196 396.544 249.025 396.409C248.858 396.277 248.672 396.224 248.468 396.251Z" fill="#58DCE3"/>
<path d="M251.151 399.517L252.692 397.567L253.247 398.006L252.77 398.609L253.47 399.162L253.058 399.683L252.359 399.13L251.733 399.921C251.527 400.182 251.511 400.381 251.685 400.518C251.794 400.605 251.938 400.651 252.117 400.656L251.946 401.219C251.657 401.221 251.388 401.122 251.137 400.924C250.902 400.738 250.786 400.532 250.788 400.304C250.796 400.075 250.918 399.813 251.151 399.517Z" fill="#58DCE3"/>
<path d="M254.129 403.211L253.574 402.773L255.291 400.601L255.846 401.04L254.129 403.211ZM255.851 399.774C255.927 399.677 256.02 399.626 256.13 399.619C256.246 399.611 256.354 399.646 256.454 399.725C256.54 399.794 256.59 399.883 256.603 399.992C256.619 400.104 256.59 400.207 256.517 400.3C256.435 400.403 256.337 400.461 256.222 400.475C256.11 400.491 256.01 400.465 255.923 400.396C255.824 400.317 255.766 400.219 255.749 400.101C255.735 399.986 255.769 399.877 255.851 399.774Z" fill="#58DCE3"/>
<path d="M256.435 404.602C256.39 404.216 256.498 403.858 256.76 403.527C257.022 403.195 257.344 403.009 257.728 402.967C258.114 402.921 258.485 403.04 258.842 403.322C259.196 403.602 259.395 403.935 259.441 404.321C259.491 404.706 259.386 405.064 259.124 405.395C258.865 405.723 258.539 405.91 258.148 405.956C257.761 405.996 257.393 405.877 257.042 405.6C256.685 405.317 256.482 404.985 256.435 404.602ZM257.873 403.685C257.669 403.712 257.496 403.815 257.353 403.996C257.211 404.176 257.147 404.369 257.163 404.574C257.184 404.779 257.28 404.949 257.45 405.083C257.624 405.221 257.811 405.275 258.012 405.245C258.216 405.218 258.391 405.113 258.535 404.93C258.678 404.75 258.738 404.557 258.717 404.353C258.696 404.148 258.601 403.978 258.43 403.843C258.263 403.711 258.077 403.658 257.873 403.685Z" fill="#58DCE3"/>
<path d="M260.507 408.253L259.952 407.814L261.669 405.643L262.224 406.081L262.052 406.298C262.347 406.255 262.622 406.334 262.876 406.535C263.472 407.005 263.522 407.552 263.029 408.176L262.022 409.45L261.467 409.012L262.398 407.834C262.668 407.493 262.64 407.194 262.315 406.938C262.138 406.798 261.926 406.742 261.678 406.771L260.507 408.253Z" fill="#58DCE3"/>
<defs>
<filter id="filter0_d" x="9.50244" y="0.600586" width="57.8789" height="123.11" filterUnits="userSpaceOnUse" color-interpolation-filters="sRGB">
<feFlood flood-opacity="0" result="BackgroundImageFix"/>
<feColorMatrix in="SourceAlpha" type="matrix" values="0 0 0 0 0 0 0 0 0 0 0 0 0 0 0 0 0 0 127 0"/>
<feOffset/>
<feGaussianBlur stdDeviation="2"/>
<feColorMatrix type="matrix" values="0 0 0 0 1 0 0 0 0 1 0 0 0 0 1 0 0 0 1 0"/>
<feBlend mode="normal" in2="BackgroundImageFix" result="effect1_dropShadow"/>
<feBlend mode="normal" in="SourceGraphic" in2="effect1_dropShadow" result="shape"/>
</filter>
<filter id="filter1_d" x="513.556" y="48.6035" width="60.9722" height="123.456" filterUnits="userSpaceOnUse" color-interpolation-filters="sRGB">
<feFlood flood-opacity="0" result="BackgroundImageFix"/>
<feColorMatrix in="SourceAlpha" type="matrix" values="0 0 0 0 0 0 0 0 0 0 0 0 0 0 0 0 0 0 127 0"/>
<feOffset/>
<feGaussianBlur stdDeviation="2"/>
<feColorMatrix type="matrix" values="0 0 0 0 1 0 0 0 0 1 0 0 0 0 1 0 0 0 1 0"/>
<feBlend mode="normal" in2="BackgroundImageFix" result="effect1_dropShadow"/>
<feBlend mode="normal" in="SourceGraphic" in2="effect1_dropShadow" result="shape"/>
</filter>
<linearGradient id="paint0_linear" x1="283" y1="169.674" x2="283" y2="312.236" gradientUnits="userSpaceOnUse">
<stop stop-color="#58DCE3"/>
<stop offset="1" stop-color="#58DCE3" stop-opacity="0"/>
</linearGradient>
<linearGradient id="paint1_linear" x1="112.432" y1="288.577" x2="112.432" y2="306.39" gradientUnits="userSpaceOnUse">
<stop stop-color="#58DCE3"/>
<stop offset="1" stop-color="#58DCE3" stop-opacity="0"/>
</linearGradient>
<linearGradient id="paint2_linear" x1="410.484" y1="293.211" x2="410.484" y2="309.229" gradientUnits="userSpaceOnUse">
<stop stop-color="#58DCE3"/>
<stop offset="1" stop-color="#58DCE3" stop-opacity="0"/>
</linearGradient>
<linearGradient id="paint3_linear" x1="66.2522" y1="276.718" x2="66.2522" y2="289.074" gradientUnits="userSpaceOnUse">
<stop stop-color="#58DCE3"/>
<stop offset="1" stop-color="#58DCE3" stop-opacity="0"/>
</linearGradient>
<linearGradient id="paint4_linear" x1="93.0008" y1="306.042" x2="93.0008" y2="365.749" gradientUnits="userSpaceOnUse">
<stop stop-color="#58DCE3"/>
<stop offset="1" stop-color="#58DCE3" stop-opacity="0"/>
</linearGradient>
<linearGradient id="paint5_linear" x1="93.3733" y1="364.367" x2="93.3733" y2="370.276" gradientUnits="userSpaceOnUse">
<stop stop-color="#58DCE3"/>
<stop offset="1" stop-color="#58DCE3" stop-opacity="0"/>
</linearGradient>
<linearGradient id="paint6_linear" x1="472.493" y1="309.282" x2="472.493" y2="368.989" gradientUnits="userSpaceOnUse">
<stop stop-color="#58DCE3"/>
<stop offset="1" stop-color="#58DCE3" stop-opacity="0"/>
</linearGradient>
<linearGradient id="paint7_linear" x1="472.876" y1="367.608" x2="472.876" y2="373.516" gradientUnits="userSpaceOnUse">
<stop stop-color="#58DCE3"/>
<stop offset="1" stop-color="#58DCE3" stop-opacity="0"/>
</linearGradient>
<linearGradient id="paint8_linear" x1="442.714" y1="308.742" x2="442.714" y2="319.381" gradientUnits="userSpaceOnUse">
<stop stop-color="#58DCE3"/>
<stop offset="1" stop-color="#58DCE3" stop-opacity="0"/>
</linearGradient>
<linearGradient id="paint9_linear" x1="442.639" y1="318.312" x2="442.639" y2="323.075" gradientUnits="userSpaceOnUse">
<stop stop-color="#58DCE3"/>
<stop offset="1" stop-color="#58DCE3" stop-opacity="0"/>
</linearGradient>
<linearGradient id="paint10_linear" x1="285.501" y1="199.05" x2="285.501" y2="262.046" gradientUnits="userSpaceOnUse">
<stop stop-color="#58DCE3"/>
<stop offset="1" stop-color="#58DCE3" stop-opacity="0"/>
</linearGradient>
<linearGradient id="paint11_linear" x1="363.098" y1="261.169" x2="236.021" y2="406.201" gradientUnits="userSpaceOnUse">
<stop stop-color="#58DCE3"/>
<stop offset="1" stop-color="#58DCE3" stop-opacity="0"/>
</linearGradient>
<linearGradient id="paint12_linear" x1="339.118" y1="283.703" x2="331.2" y2="292.74" gradientUnits="userSpaceOnUse">
<stop stop-color="#58DCE3"/>
<stop offset="1" stop-color="#58DCE3" stop-opacity="0"/>
</linearGradient>
<linearGradient id="paint13_linear" x1="329.791" y1="294.796" x2="321.873" y2="303.833" gradientUnits="userSpaceOnUse">
<stop stop-color="#58DCE3"/>
<stop offset="1" stop-color="#58DCE3" stop-opacity="0"/>
</linearGradient>
<linearGradient id="paint14_linear" x1="343.901" y1="305.765" x2="336.401" y2="314.324" gradientUnits="userSpaceOnUse">
<stop stop-color="#58DCE3"/>
<stop offset="1" stop-color="#58DCE3" stop-opacity="0"/>
</linearGradient>
<linearGradient id="paint15_linear" x1="315.582" y1="285.001" x2="307.484" y2="294.243" gradientUnits="userSpaceOnUse">
<stop stop-color="#58DCE3"/>
<stop offset="1" stop-color="#58DCE3" stop-opacity="0"/>
</linearGradient>
<linearGradient id="paint16_linear" x1="310.714" y1="316.569" x2="302.796" y2="325.606" gradientUnits="userSpaceOnUse">
<stop stop-color="#58DCE3"/>
<stop offset="1" stop-color="#58DCE3" stop-opacity="0"/>
</linearGradient>
<linearGradient id="paint17_linear" x1="301.031" y1="327.621" x2="293.112" y2="336.658" gradientUnits="userSpaceOnUse">
<stop stop-color="#58DCE3"/>
<stop offset="1" stop-color="#58DCE3" stop-opacity="0"/>
</linearGradient>
<linearGradient id="paint18_linear" x1="291.349" y1="338.67" x2="283.431" y2="347.707" gradientUnits="userSpaceOnUse">
<stop stop-color="#58DCE3"/>
<stop offset="1" stop-color="#58DCE3" stop-opacity="0"/>
</linearGradient>
<linearGradient id="paint19_linear" x1="325.147" y1="328.212" x2="317.573" y2="336.855" gradientUnits="userSpaceOnUse">
<stop stop-color="#58DCE3"/>
<stop offset="1" stop-color="#58DCE3" stop-opacity="0"/>
</linearGradient>
<linearGradient id="paint20_linear" x1="315.598" y1="339.109" x2="307.985" y2="347.798" gradientUnits="userSpaceOnUse">
<stop stop-color="#58DCE3"/>
<stop offset="1" stop-color="#58DCE3" stop-opacity="0"/>
</linearGradient>
<linearGradient id="paint21_linear" x1="353.346" y1="294.735" x2="345.773" y2="303.378" gradientUnits="userSpaceOnUse">
<stop stop-color="#58DCE3"/>
<stop offset="1" stop-color="#58DCE3" stop-opacity="0"/>
</linearGradient>
<linearGradient id="paint22_linear" x1="325.311" y1="274.01" x2="316.925" y2="283.582" gradientUnits="userSpaceOnUse">
<stop stop-color="#58DCE3"/>
<stop offset="1" stop-color="#58DCE3" stop-opacity="0"/>
</linearGradient>
<linearGradient id="paint23_linear" x1="306.259" y1="350.357" x2="298.384" y2="359.345" gradientUnits="userSpaceOnUse">
<stop stop-color="#58DCE3"/>
<stop offset="1" stop-color="#58DCE3" stop-opacity="0"/>
</linearGradient>
<linearGradient id="paint24_linear" x1="296.91" y1="306.568" x2="288.542" y2="316.119" gradientUnits="userSpaceOnUse">
<stop stop-color="#58DCE3"/>
<stop offset="1" stop-color="#58DCE3" stop-opacity="0"/>
</linearGradient>
<linearGradient id="paint25_linear" x1="287.187" y1="317.737" x2="279.041" y2="327.034" gradientUnits="userSpaceOnUse">
<stop stop-color="#58DCE3"/>
<stop offset="1" stop-color="#58DCE3" stop-opacity="0"/>
</linearGradient>
<linearGradient id="paint26_linear" x1="277.498" y1="328.951" x2="269.489" y2="338.091" gradientUnits="userSpaceOnUse">
<stop stop-color="#58DCE3"/>
<stop offset="1" stop-color="#58DCE3" stop-opacity="0"/>
</linearGradient>
<linearGradient id="paint27_linear" x1="256.45" y1="380.744" x2="250.294" y2="387.769" gradientUnits="userSpaceOnUse">
<stop stop-color="#58DCE3"/>
<stop offset="1" stop-color="#58DCE3" stop-opacity="0"/>
</linearGradient>
</defs>
</svg>
