<svg width="11" height="19" viewBox="0 0 11 19" fill="none" xmlns="http://www.w3.org/2000/svg">
<path d="M10.7796 10.1323C10.3359 9.26645 9.25582 8.93783 8.19849 9.76852C8.18824 9.77658 7.14115 10.5795 5.49291 10.5795C3.84467 10.5795 2.79759 9.77584 2.78733 9.76852C1.73439 8.9371 0.645573 9.26279 0.204773 10.1345C0.203308 10.1367 0.202576 10.1389 0.201111 10.1418C-0.454231 11.4819 0.627999 12.1801 1.49862 12.7414C2.0368 13.0876 2.7251 13.3489 3.55178 13.5216L1.20499 15.8725C-0.211864 17.2857 2.00825 19.5158 3.43975 18.1171L5.50023 16.0474C6.29323 16.8415 7.03205 17.5829 7.56511 18.1252C8.97831 19.5121 11.2131 17.3209 9.80426 15.8754C8.1238 14.1972 7.76208 13.8349 7.44429 13.5224C9.19871 13.1469 11.6392 11.9166 10.7796 10.1323ZM6.36792 12.5877C5.98863 12.4055 5.48486 13.0979 5.8993 13.5282L5.90369 13.5326C5.90442 13.5333 5.90589 13.5348 5.90662 13.5355C5.90808 13.537 5.90881 13.5385 5.91028 13.5392C6.12116 13.7493 8.95854 16.5824 9.02151 16.6461C9.41545 17.0508 8.7213 17.7197 8.33981 17.3479C7.65884 16.6556 6.5788 15.5746 5.88685 14.8815C5.67304 14.667 5.32377 14.6656 5.10922 14.8815L2.66505 17.3362C2.2777 17.7146 1.58722 17.0391 1.97969 16.6475L5.08726 13.5355C5.08872 13.5341 5.09019 13.5326 5.09092 13.5312C5.4768 13.152 5.08726 12.4494 4.63328 12.5834C3.55178 12.4567 2.6753 12.1925 2.09172 11.8178C0.964091 11.0896 1.02047 10.9615 1.18376 10.627C1.65824 9.71876 2.49884 11.6773 5.49145 11.6773C7.54095 11.6773 8.82674 10.6709 8.87726 10.6307C9.21115 10.3687 9.6029 10.2464 9.79547 10.6204C9.95876 10.9593 10.0195 11.0859 8.88898 11.82C8.11721 12.3111 7.02619 12.5094 6.36792 12.5877Z" fill="white"/>
<path d="M5.49003 8.31162C6.9208 8.31162 8.08431 7.14646 8.08431 5.71489C8.08431 4.27746 6.9208 3.10791 5.49003 3.10791C4.05999 3.10791 2.89648 4.27746 2.89648 5.71489C2.89575 7.14646 4.05926 8.31162 5.49003 8.31162ZM5.49003 4.20574C6.31452 4.20574 6.98597 4.88273 6.98597 5.71489C6.98597 6.54119 6.31452 7.21379 5.49003 7.21379C4.66554 7.21379 3.99409 6.54119 3.99409 5.71416C3.99409 4.88273 4.66481 4.20574 5.49003 4.20574Z" fill="white"/>
<path d="M5.48971 10.424C8.08838 10.424 10.203 8.31105 10.203 5.71432C10.2023 3.11246 8.08838 0.995117 5.48971 0.995117C2.89104 0.995117 0.776367 3.11246 0.776367 5.71432C0.776367 8.31105 2.8903 10.424 5.48971 10.424ZM5.48971 2.09295C7.48283 2.09295 9.10471 3.71773 9.10471 5.71432C9.10471 7.70578 7.48356 9.32618 5.48971 9.32618C3.49586 9.32618 1.87471 7.70578 1.87471 5.71432C1.87471 3.71773 3.49586 2.09295 5.48971 2.09295Z" fill="white"/>
</svg>
