<svg width="16" height="10" viewBox="0 0 16 10" fill="none" xmlns="http://www.w3.org/2000/svg">
<path d="M8.09658 9.99525C10.4112 9.99525 9.5859 8.53061 9.76456 8.10948C9.76189 7.79496 9.75923 7.49244 9.76989 7.30852C9.91656 7.34984 10.2626 7.52509 10.9772 8.21942C12.0805 9.33223 12.3625 9.99525 13.2539 9.99525H14.8945C15.4145 9.99525 15.6852 9.78002 15.8205 9.59943C15.9512 9.42485 16.0792 9.11833 15.9392 8.64122C15.5732 7.49244 13.4385 5.50871 13.3059 5.29948C13.3259 5.26083 13.3579 5.20952 13.3745 5.18287H13.3732C13.7945 4.62647 15.4025 2.21828 15.6392 1.25474C15.6398 1.2534 15.6405 1.2514 15.6405 1.24941C15.7685 0.809615 15.6512 0.524417 15.5298 0.363161C15.3472 0.121942 15.0565 0 14.6638 0H13.0232C12.4739 0 12.0572 0.276535 11.8465 0.780962C11.4939 1.6772 10.5032 3.52033 9.76056 4.17268C9.73789 3.24846 9.75323 2.54279 9.76523 2.01837C9.78923 0.995526 9.86656 0 8.80457 0H6.22593C5.56061 0 4.92395 0.726321 5.61327 1.58858C6.21593 2.34422 5.82994 2.76535 5.95993 4.86169C5.45327 4.31861 4.55195 2.85198 3.91462 0.977535C3.73596 0.470443 3.4653 0.000666301 2.7033 0.000666301H1.06265C0.397329 0.000666301 0 0.363161 0 0.970205C0 2.33356 3.0193 9.99525 8.09658 9.99525ZM2.7033 1.00019C2.84797 1.00019 2.86264 1.00019 2.96997 1.30471C3.62263 3.2258 5.08661 6.06845 6.15593 6.06845C6.95926 6.06845 6.95926 5.24551 6.95926 4.93565L6.95859 2.46883C6.91459 1.65255 6.61726 1.24607 6.42193 0.999525L8.76057 1.00219C8.7619 1.01352 8.74724 3.73089 8.76724 4.38925C8.76724 5.32413 9.5099 5.85988 10.6692 4.6871C11.8925 3.30709 12.7385 1.24408 12.7725 1.16012C12.8225 1.04017 12.8659 0.999525 13.0232 0.999525H14.6638H14.6705C14.6698 1.00152 14.6698 1.00352 14.6692 1.00552C14.5192 1.70519 13.0385 3.9348 12.5432 4.62713C12.5352 4.63779 12.5279 4.64912 12.5205 4.66045C12.3025 5.01628 12.1252 5.40943 12.5505 5.9625H12.5512C12.5899 6.00914 12.6905 6.11842 12.8372 6.27035C13.2932 6.74079 14.8572 8.34936 14.9958 8.98906C14.9038 9.00372 14.8038 8.99306 13.2539 8.99639C12.9239 8.99639 12.6659 8.50329 11.6812 7.51043C10.7959 6.6495 10.2212 6.29767 9.69789 6.29767C8.6819 6.29767 8.7559 7.12195 8.76524 8.11881C8.76857 9.19963 8.7619 8.85779 8.76924 8.92576C8.7099 8.94908 8.53991 8.99572 8.09658 8.99572C3.86662 8.99572 1.11199 2.28491 1.00599 1.00219C1.04266 0.998858 1.54732 1.00086 2.7033 1.00019Z" fill="white"/>
</svg>
