<svg width="50" height="267" viewBox="0 0 50 267" fill="none" xmlns="http://www.w3.org/2000/svg">
<g filter="url(#filter0_i)">
<path d="M16.7914 9.91061C16.5815 9.91061 13.7488 9.91061 12.3849 9.91061C11.021 9.91061 12.3849 7.07789 16.057 4.76975C19.729 2.4616 20.4634 1.51737 21.1978 1.41245C21.9322 1.30753 23.2961 2.25177 25.1846 2.14686C27.0731 2.04194 28.1222 1.41245 28.8567 1.41245C29.5911 1.41245 33.1582 4.14025 34.2074 4.97958C35.2565 5.8189 39.663 9.38604 36.8303 9.59587C33.8926 9.80571 32.4238 10.0155 32.4238 10.0155C32.4238 10.0155 35.4664 13.3728 35.0467 14.2122C34.627 15.0515 30.3255 14.7367 30.3255 14.7367C30.3255 14.7367 19.6241 14.7367 17.9454 14.8417C16.2668 14.8417 13.6439 15.0515 14.1685 13.7925C14.798 12.5335 16.7914 9.91061 16.7914 9.91061Z" fill="url(#paint0_linear)" fill-opacity="0.5" stroke="white" stroke-miterlimit="10"/>
<path d="M19.7283 7.28786C19.8333 7.07803 20.8824 5.08463 21.8266 5.18954C22.7709 5.29446 24.5545 6.2387 23.2955 7.28786C22.1414 8.33701 18.7841 8.75668 19.7283 7.28786Z" fill="url(#paint1_linear)" fill-opacity="0.5" stroke="white" stroke-miterlimit="10"/>
<path d="M30.1106 7.28786C30.0057 7.07803 28.9565 5.08463 28.0123 5.18954C27.068 5.29446 25.2845 6.2387 26.5434 7.28786C27.8024 8.33701 31.1597 8.75668 30.1106 7.28786Z" fill="url(#paint2_linear)" fill-opacity="0.5" stroke="white" stroke-miterlimit="10"/>
<path d="M19.9376 14.7363C19.9376 14.7363 15.4263 18.828 14.3771 19.9821C13.9574 20.4017 16.2656 20.087 18.1541 20.1919C20.2524 20.2968 22.6654 20.9263 24.8687 20.9263C26.967 20.9263 28.9604 20.1919 31.1636 20.087C33.5767 19.9821 35.8848 20.5066 35.0455 19.7722C31.898 16.9395 29.38 14.6313 29.38 14.6313" fill="url(#paint3_linear)" fill-opacity="0.5"/>
<path d="M19.9376 14.7363C19.9376 14.7363 15.4263 18.828 14.3771 19.9821C13.9574 20.4017 16.2656 20.087 18.1541 20.1919C20.2524 20.2968 22.6654 20.9263 24.8687 20.9263C26.967 20.9263 28.9604 20.1919 31.1636 20.087C33.5767 19.9821 35.8848 20.5066 35.0455 19.7722C31.898 16.9395 29.38 14.6313 29.38 14.6313" stroke="white" stroke-miterlimit="10"/>
<path d="M20.2495 20.5073C20.2495 20.5073 15.948 24.599 15.0038 25.753C14.689 26.1727 16.7873 25.858 18.5709 25.9629C20.5643 26.0678 22.7675 26.6973 24.9707 26.6973C26.9641 26.6973 28.8526 25.9629 30.9509 25.858C33.1542 25.7531 35.3574 26.2776 34.623 25.5432C31.5804 22.7105 29.2723 20.4023 29.2723 20.4023" fill="url(#paint4_linear)" fill-opacity="0.5"/>
<path d="M20.2495 20.5073C20.2495 20.5073 15.948 24.599 15.0038 25.753C14.689 26.1727 16.7873 25.858 18.5709 25.9629C20.5643 26.0678 22.7675 26.6973 24.9707 26.6973C26.9641 26.6973 28.8526 25.9629 30.9509 25.858C33.1541 25.7531 35.3574 26.2776 34.623 25.5432C31.5804 22.7105 29.2723 20.4023 29.2723 20.4023" stroke="white" stroke-miterlimit="10"/>
<path d="M20.9876 26.2772C20.9876 26.2772 16.4762 29.6345 15.427 30.8935C15.1123 31.3132 17.1057 31.4181 18.9942 31.523C20.9876 31.6279 22.7711 32.9918 24.8695 32.9918C26.8628 32.9918 28.3317 31.6279 30.3251 31.523C32.5283 31.4181 34.8364 31.523 34.102 30.7886C31.0595 27.9559 28.4366 26.0674 28.4366 26.0674" fill="url(#paint5_linear)" fill-opacity="0.5"/>
<path d="M20.9876 26.2772C20.9876 26.2772 16.4762 29.6345 15.427 30.8935C15.1123 31.3132 17.1057 31.4181 18.9942 31.523C20.9876 31.6279 22.7711 32.9918 24.8695 32.9918C26.8628 32.9918 28.3317 31.6279 30.3251 31.523C32.5283 31.4181 34.8364 31.523 34.102 30.7886C31.0595 27.9559 28.4366 26.0674 28.4366 26.0674" stroke="white" stroke-miterlimit="10"/>
<path d="M21.4072 32.1522C21.4072 32.1522 16.4762 35.9292 15.427 37.0833C15.1123 37.5029 17.1057 37.6078 18.9942 37.7127C20.9876 37.8177 19.7286 39.1816 24.8695 39.1816C30.1152 39.1816 28.3317 37.8177 30.3251 37.7127C32.5283 37.6078 34.8364 37.7127 34.102 36.9783C31.0595 34.1456 28.2268 31.9424 28.2268 31.9424" fill="url(#paint6_linear)" fill-opacity="0.5"/>
<path d="M21.4072 32.1522C21.4072 32.1522 16.4762 35.9292 15.427 37.0833C15.1123 37.5029 17.1057 37.6078 18.9942 37.7127C20.9876 37.8177 19.7286 39.1816 24.8695 39.1816C30.1152 39.1816 28.3317 37.8177 30.3251 37.7127C32.5283 37.6078 34.8364 37.7127 34.102 36.9783C31.0595 34.1456 28.2268 31.9424 28.2268 31.9424" stroke="white" stroke-miterlimit="10"/>
<path d="M21.196 38.7622C21.196 38.7622 18.9927 41.8048 18.3632 41.5949C17.7337 41.3851 15.3207 40.0212 14.5863 40.9654C13.8519 41.9097 15.3207 45.4768 17.3141 45.8965C19.3075 46.3161 18.8878 47.2604 21.6156 47.3653C24.3434 47.4702 27.7007 47.4702 29.1696 47.3653C30.6384 47.2604 30.3236 46.0014 32.5268 45.7916C34.6251 45.5817 36.5136 40.1261 34.3104 40.4409C31.7924 40.7556 32.1072 42.0146 30.9531 41.49C30.4285 41.2802 28.3302 38.9721 28.3302 38.9721" fill="url(#paint7_linear)" fill-opacity="0.5"/>
<path d="M21.196 38.7622C21.196 38.7622 18.9927 41.8048 18.3632 41.5949C17.7337 41.3851 15.3207 40.0212 14.5863 40.9654C13.8519 41.9097 15.3207 45.4768 17.3141 45.8965C19.3075 46.3161 18.8878 47.2604 21.6156 47.3653C24.3434 47.4702 27.7007 47.4702 29.1696 47.3653C30.6384 47.2604 30.3236 46.0014 32.5268 45.7916C34.6251 45.5817 36.5136 40.1261 34.3104 40.4409C31.7924 40.7556 32.1072 42.0146 30.9531 41.49C30.4285 41.2802 28.3302 38.9721 28.3302 38.9721" stroke="white" stroke-miterlimit="10"/>
<path d="M21.1962 46.9458C21.1962 46.9458 18.993 49.9884 18.3635 49.7785C17.734 49.5687 14.7964 47.6802 14.062 48.6245C13.3276 49.5687 15.321 53.6604 17.3144 54.0801C19.3078 54.4997 18.8881 55.444 21.6159 55.5489C24.3437 55.5489 27.701 55.6538 29.1698 55.5489C30.6387 55.444 30.3239 54.185 32.5271 53.9751C34.7304 53.7653 37.3533 47.89 35.2549 48.2048C32.737 48.5195 32.1075 50.1982 30.9534 49.6736C30.4288 49.4638 28.3305 47.1556 28.3305 47.1556" fill="url(#paint8_linear)" fill-opacity="0.5"/>
<path d="M21.1962 46.9458C21.1962 46.9458 18.993 49.9884 18.3635 49.7785C17.734 49.5687 14.7964 47.6802 14.062 48.6245C13.3276 49.5687 15.321 53.6604 17.3144 54.0801C19.3078 54.4997 18.8881 55.444 21.6159 55.5489C24.3437 55.5489 27.701 55.6538 29.1698 55.5489C30.6387 55.444 30.3239 54.185 32.5271 53.9751C34.7304 53.7653 37.3533 47.89 35.2549 48.2048C32.737 48.5195 32.1075 50.1982 30.9534 49.6736C30.4288 49.4638 28.3305 47.1556 28.3305 47.1556" stroke="white" stroke-miterlimit="10"/>
<path d="M21.1962 55.5488C21.1962 55.5488 18.993 58.5914 18.3635 58.3816C17.6291 58.1717 14.7964 56.2832 14.062 57.2275C13.3276 58.1717 15.321 62.2634 17.3144 62.6831C19.3078 63.1028 18.8881 64.047 21.6159 64.1519C24.3437 64.1519 27.701 64.2568 29.1698 64.1519C30.6387 64.047 30.3239 62.788 32.5271 62.5782C34.6254 62.3684 37.3533 56.4931 35.2549 56.8078C32.737 57.1226 32.1075 58.8012 30.9534 58.2766C30.4288 58.0668 28.3305 55.7587 28.3305 55.7587" fill="url(#paint9_linear)" fill-opacity="0.5"/>
<path d="M21.1962 55.5488C21.1962 55.5488 18.993 58.5914 18.3635 58.3816C17.6291 58.1717 14.7964 56.2832 14.062 57.2275C13.3276 58.1717 15.321 62.2634 17.3144 62.6831C19.3078 63.1028 18.8881 64.047 21.6159 64.1519C24.3437 64.1519 27.701 64.2568 29.1698 64.1519C30.6387 64.047 30.3239 62.788 32.5271 62.5782C34.6254 62.3684 37.3533 56.4931 35.2549 56.8078C32.737 57.1226 32.1075 58.8012 30.9534 58.2766C30.4288 58.0668 28.3305 55.7587 28.3305 55.7587" stroke="white" stroke-miterlimit="10"/>
<path d="M21.1962 64.1523C21.1962 64.1523 18.993 67.1949 18.3635 66.9851C17.734 66.7752 14.7964 64.8867 14.062 65.831C13.3276 66.7752 15.321 70.8669 17.3144 71.2866C19.3078 71.7063 18.8881 72.6505 21.6159 72.7554C24.3437 72.8603 27.701 72.8603 29.1698 72.7554C30.6387 72.6505 30.3239 71.3915 32.5271 71.1817C34.6254 70.9719 37.3533 65.0966 35.2549 65.4113C32.737 65.7261 32.1075 67.4047 30.9534 66.8801C30.4288 66.6703 28.3305 64.3622 28.3305 64.3622" fill="url(#paint10_linear)" fill-opacity="0.5"/>
<path d="M21.1962 64.1523C21.1962 64.1523 18.993 67.1949 18.3635 66.9851C17.734 66.7752 14.7964 64.8867 14.062 65.831C13.3276 66.7752 15.321 70.8669 17.3144 71.2866C19.3078 71.7063 18.8881 72.6505 21.6159 72.7554C24.3437 72.8603 27.701 72.8603 29.1698 72.7554C30.6387 72.6505 30.3239 71.3915 32.5271 71.1817C34.6254 70.9719 37.3533 65.0966 35.2549 65.4113C32.737 65.7261 32.1075 67.4047 30.9534 66.8801C30.4288 66.6703 28.3305 64.3622 28.3305 64.3622" stroke="white" stroke-miterlimit="10"/>
<path d="M21.196 72.7549C21.196 72.7549 18.9928 75.7974 18.3633 75.5876C17.7338 75.3778 14.7962 73.4893 14.0617 74.4335C13.6421 75.063 12.6978 76.8466 13.747 78.2105C14.3765 79.0498 17.9436 79.1547 18.678 79.3646C20.6714 79.7842 18.9928 81.253 21.7206 81.358C24.4484 81.358 27.8057 81.4629 29.2745 81.358C30.7433 81.253 29.3794 79.7842 31.4777 79.5744C32.3171 79.4695 35.6744 79.1547 36.4088 78.0007C37.4579 76.322 36.6186 73.6991 35.3596 73.9089C32.8417 74.2237 32.2121 75.9024 31.0581 75.3778C30.5335 75.1679 28.4352 72.8598 28.4352 72.8598" fill="url(#paint11_linear)" fill-opacity="0.5"/>
<path d="M21.196 72.7549C21.196 72.7549 18.9928 75.7974 18.3633 75.5876C17.7338 75.3778 14.7962 73.4893 14.0617 74.4335C13.6421 75.063 12.6978 76.8466 13.747 78.2105C14.3765 79.0498 17.9436 79.1547 18.678 79.3646C20.6714 79.7842 18.9928 81.253 21.7206 81.358C24.4484 81.358 27.8057 81.4629 29.2745 81.358C30.7433 81.253 29.3794 79.7842 31.4777 79.5744C32.3171 79.4695 35.6744 79.1547 36.4088 78.0007C37.4579 76.322 36.6186 73.6991 35.3596 73.9089C32.8416 74.2237 32.2121 75.9024 31.0581 75.3778C30.5335 75.1679 28.4352 72.8598 28.4352 72.8598" stroke="white" stroke-miterlimit="10"/>
<path d="M21.196 81.3584C21.196 81.3584 18.9928 84.4009 18.3633 84.1911C17.7338 83.9813 14.7962 82.0928 14.0617 83.0371C13.6421 83.5616 12.6978 85.4501 13.747 86.814C14.3765 87.6533 17.9436 87.7583 18.678 87.9681C20.6714 88.3878 18.9928 89.8566 21.7206 89.9615C24.4484 90.0664 27.8057 90.0664 29.2745 89.9615C30.7433 89.8566 29.3794 88.3877 31.4777 88.1779C32.3171 88.073 35.6744 87.7583 36.4088 86.6042C37.4579 84.9255 36.6186 82.3026 35.3596 82.5125C32.8417 82.8272 32.2121 84.5059 31.0581 83.9813C30.5335 83.7715 28.4352 81.4633 28.4352 81.4633" fill="url(#paint12_linear)" fill-opacity="0.5"/>
<path d="M21.196 81.3584C21.196 81.3584 18.9928 84.4009 18.3633 84.1911C17.7338 83.9813 14.7962 82.0928 14.0617 83.0371C13.6421 83.5616 12.6978 85.4501 13.747 86.814C14.3765 87.6533 17.9436 87.7583 18.678 87.9681C20.6714 88.3878 18.9928 89.8566 21.7206 89.9615C24.4484 90.0664 27.8057 90.0664 29.2745 89.9615C30.7433 89.8566 29.3794 88.3877 31.4777 88.1779C32.3171 88.073 35.6744 87.7583 36.4088 86.6042C37.4579 84.9255 36.6186 82.3026 35.3596 82.5125C32.8416 82.8272 32.2121 84.5059 31.0581 83.9813C30.5335 83.7715 28.4352 81.4633 28.4352 81.4633" stroke="white" stroke-miterlimit="10"/>
<path d="M21.1958 89.9614C21.1958 89.9614 18.9925 93.004 18.3631 92.7941C17.7336 92.5843 15.4254 91.3253 14.691 92.2696C14.2713 92.7941 14.0615 94.1581 15.1107 95.522C15.7402 96.3613 17.9434 96.4662 18.6778 96.5711C20.6712 96.9908 18.9925 98.4596 21.7204 98.5645C24.4482 98.5645 27.8055 98.6694 29.2743 98.5645C30.7431 98.4596 29.3792 96.9908 31.4775 96.7809C32.3168 96.676 34.5201 96.4662 35.1495 95.3121C36.1987 93.6335 35.4643 91.5352 34.3102 91.745C31.7923 92.0597 32.2119 93.1089 31.0578 92.5843C30.5333 92.3745 28.4349 90.0663 28.4349 90.0663" fill="url(#paint13_linear)" fill-opacity="0.5"/>
<path d="M21.1958 89.9614C21.1958 89.9614 18.9925 93.004 18.3631 92.7941C17.7336 92.5843 15.4254 91.3253 14.691 92.2696C14.2713 92.7941 14.0615 94.1581 15.1107 95.522C15.7402 96.3613 17.9434 96.4662 18.6778 96.5711C20.6712 96.9908 18.9925 98.4596 21.7204 98.5645C24.4482 98.5645 27.8055 98.6694 29.2743 98.5645C30.7431 98.4596 29.3792 96.9908 31.4775 96.7809C32.3168 96.676 34.5201 96.4662 35.1495 95.3121C36.1987 93.6335 35.4643 91.5352 34.3102 91.745C31.7923 92.0597 32.2119 93.1089 31.0578 92.5843C30.5333 92.3745 28.4349 90.0663 28.4349 90.0663" stroke="white" stroke-miterlimit="10"/>
<path d="M21.1958 98.3545C21.1958 98.3545 18.9925 101.397 18.3631 101.187C17.7336 100.977 15.4254 99.7184 14.691 100.663C14.2713 101.187 14.0615 102.551 15.1107 103.915C15.7402 104.754 17.9434 104.859 18.6778 104.964C20.6712 105.384 18.9925 106.853 21.7204 106.958C24.4482 106.958 27.8055 107.062 29.2743 106.958C30.7431 106.853 29.3792 105.384 31.4775 105.174C32.3168 105.069 34.5201 104.859 35.1495 103.705C36.1987 102.027 35.4643 99.9282 34.3102 100.138C31.7923 100.453 32.2119 101.502 31.0578 100.977C30.5333 100.768 28.4349 98.4594 28.4349 98.4594" fill="url(#paint14_linear)" fill-opacity="0.5"/>
<path d="M21.1958 98.3545C21.1958 98.3545 18.9925 101.397 18.3631 101.187C17.7336 100.977 15.4254 99.7184 14.691 100.663C14.2713 101.187 14.0615 102.551 15.1107 103.915C15.7402 104.754 17.9434 104.859 18.6778 104.964C20.6712 105.384 18.9925 106.853 21.7204 106.958C24.4482 106.958 27.8055 107.062 29.2743 106.958C30.7431 106.853 29.3792 105.384 31.4775 105.174C32.3168 105.069 34.5201 104.859 35.1495 103.705C36.1987 102.027 35.4643 99.9282 34.3102 100.138C31.7923 100.453 32.2119 101.502 31.0578 100.977C30.5333 100.768 28.4349 98.4594 28.4349 98.4594" stroke="white" stroke-miterlimit="10"/>
<path d="M21.1958 107.062C21.1958 107.062 18.9925 110.105 18.3631 109.895C17.7336 109.685 15.4254 108.426 14.691 109.371C14.2713 109.895 14.0615 111.259 15.1107 112.623C15.7402 113.462 17.9434 113.567 18.6778 113.672C20.6712 114.092 18.9925 115.561 21.7204 115.666C24.4482 115.77 27.8055 115.77 29.2743 115.666C30.7431 115.561 29.3792 114.092 31.4775 113.882C32.3168 113.777 34.5201 113.567 35.1495 112.413C36.1987 110.735 35.4643 108.636 34.3102 108.846C31.7923 109.161 32.2119 110.21 31.0578 109.685C30.5333 109.476 28.4349 107.167 28.4349 107.167" fill="url(#paint15_linear)" fill-opacity="0.5"/>
<path d="M21.1958 107.062C21.1958 107.062 18.9925 110.105 18.3631 109.895C17.7336 109.685 15.4254 108.426 14.691 109.371C14.2713 109.895 14.0615 111.259 15.1107 112.623C15.7402 113.462 17.9434 113.567 18.6778 113.672C20.6712 114.092 18.9925 115.561 21.7204 115.666C24.4482 115.77 27.8055 115.77 29.2743 115.666C30.7431 115.561 29.3792 114.092 31.4775 113.882C32.3168 113.777 34.5201 113.567 35.1495 112.413C36.1987 110.735 35.4643 108.636 34.3102 108.846C31.7923 109.161 32.2119 110.21 31.0578 109.685C30.5333 109.476 28.4349 107.167 28.4349 107.167" stroke="white" stroke-miterlimit="10"/>
<path d="M21.1958 115.666C21.1958 115.666 18.9925 118.708 18.3631 118.498C17.7336 118.288 15.4254 117.029 14.691 117.974C14.2713 118.603 14.0615 119.862 15.1107 121.226C15.7402 122.065 17.9434 122.17 18.6778 122.275C20.6712 122.695 18.9925 124.164 21.7204 124.269C24.4482 124.374 27.8055 124.374 29.2743 124.269C30.7431 124.164 29.3792 122.695 31.4775 122.485C32.3168 122.38 34.5201 122.17 35.1495 121.016C36.1987 119.338 35.4643 117.239 34.3102 117.449C31.7923 117.764 32.2119 118.813 31.0578 118.288C30.5333 118.079 28.4349 115.77 28.4349 115.77" fill="url(#paint16_linear)" fill-opacity="0.5"/>
<path d="M21.1958 115.666C21.1958 115.666 18.9925 118.708 18.3631 118.498C17.7336 118.288 15.4254 117.029 14.691 117.974C14.2713 118.603 14.0615 119.862 15.1107 121.226C15.7402 122.065 17.9434 122.17 18.6778 122.275C20.6712 122.695 18.9925 124.164 21.7204 124.269C24.4482 124.374 27.8055 124.374 29.2743 124.269C30.7431 124.164 29.3792 122.695 31.4775 122.485C32.3168 122.38 34.5201 122.17 35.1495 121.016C36.1987 119.338 35.4643 117.239 34.3102 117.449C31.7923 117.764 32.2119 118.813 31.0578 118.288C30.5333 118.079 28.4349 115.77 28.4349 115.77" stroke="white" stroke-miterlimit="10"/>
<path d="M21.1958 124.164C21.1958 124.164 18.9925 127.207 18.3631 126.997C17.6286 126.787 15.4254 125.528 14.691 126.472C14.2713 126.997 14.0615 128.361 15.1107 129.725C15.7402 130.564 17.9434 130.669 18.6778 130.774C20.6712 131.193 18.9925 132.662 21.7204 132.767C24.4482 132.767 27.8055 132.872 29.2743 132.767C30.7431 132.662 29.3792 131.193 31.4775 130.984C32.3168 130.879 34.5201 130.669 35.1495 129.515C36.1987 127.836 35.4643 125.738 34.3102 125.948C31.7923 126.262 32.2119 127.312 31.0578 126.787C30.5333 126.577 28.4349 124.269 28.4349 124.269" fill="url(#paint17_linear)" fill-opacity="0.5"/>
<path d="M21.1958 124.164C21.1958 124.164 18.9925 127.207 18.3631 126.997C17.6286 126.787 15.4254 125.528 14.691 126.472C14.2713 126.997 14.0615 128.361 15.1107 129.725C15.7402 130.564 17.9434 130.669 18.6778 130.774C20.6712 131.193 18.9925 132.662 21.7204 132.767C24.4482 132.767 27.8055 132.872 29.2743 132.767C30.7431 132.662 29.3792 131.193 31.4775 130.984C32.3168 130.879 34.5201 130.669 35.1495 129.515C36.1987 127.836 35.4643 125.738 34.3102 125.948C31.7923 126.262 32.2119 127.312 31.0578 126.787C30.5333 126.577 28.4349 124.269 28.4349 124.269" stroke="white" stroke-miterlimit="10"/>
<path d="M21.1985 132.977C21.1985 132.977 18.9953 136.019 18.3658 135.809C17.6314 135.599 15.9528 134.34 15.2184 135.285C14.7987 135.809 14.5889 138.537 15.638 140.006C16.2675 140.845 17.9462 139.481 18.6806 139.586C20.674 140.006 18.9953 141.475 21.7231 141.58C24.4509 141.58 27.8082 141.685 29.2771 141.58C30.7459 141.475 29.3819 140.006 31.4803 139.796C32.3196 139.691 34.1032 140.53 34.7327 139.376C35.7818 137.698 35.1523 134.445 33.8933 134.655C31.3754 134.97 32.1098 136.229 30.9557 135.599C30.4311 135.39 28.3328 133.081 28.3328 133.081" fill="url(#paint18_linear)" fill-opacity="0.5"/>
<path d="M21.1985 132.977C21.1985 132.977 18.9953 136.019 18.3658 135.809C17.6314 135.599 15.9528 134.34 15.2184 135.285C14.7987 135.809 14.5889 138.537 15.638 140.006C16.2675 140.845 17.9462 139.481 18.6806 139.586C20.674 140.006 18.9953 141.475 21.7231 141.58C24.4509 141.58 27.8082 141.685 29.2771 141.58C30.7459 141.475 29.3819 140.006 31.4803 139.796C32.3196 139.691 34.1032 140.53 34.7327 139.376C35.7818 137.698 35.1523 134.445 33.8933 134.655C31.3754 134.97 32.1098 136.229 30.9557 135.599C30.4311 135.39 28.3328 133.081 28.3328 133.081" stroke="white" stroke-miterlimit="10"/>
<path d="M21.1985 150.078C21.1985 150.078 18.9953 153.121 18.3658 152.911C17.6314 152.701 15.9528 151.442 15.2184 152.386C14.7987 152.911 14.5889 155.639 15.638 157.107C16.2675 157.947 17.9462 156.583 18.6806 156.688C20.674 157.107 18.9953 158.576 21.7231 158.681C24.4509 158.681 27.8082 158.786 29.2771 158.681C30.7459 158.576 29.3819 157.107 31.4803 156.898C32.3196 156.793 34.1032 157.632 34.7327 156.478C35.7818 154.799 35.1523 151.547 33.8933 151.757C31.3754 152.072 32.1098 153.331 30.9557 152.701C30.4311 152.491 28.3328 150.183 28.3328 150.183" fill="url(#paint19_linear)" fill-opacity="0.5"/>
<path d="M21.1985 150.078C21.1985 150.078 18.9953 153.121 18.3658 152.911C17.6314 152.701 15.9528 151.442 15.2184 152.386C14.7987 152.911 14.5889 155.639 15.638 157.107C16.2675 157.947 17.9462 156.583 18.6806 156.688C20.674 157.107 18.9953 158.576 21.7231 158.681C24.4509 158.681 27.8082 158.786 29.2771 158.681C30.7459 158.576 29.3819 157.107 31.4803 156.898C32.3196 156.793 34.1032 157.632 34.7327 156.478C35.7818 154.799 35.1523 151.547 33.8933 151.757C31.3754 152.072 32.1098 153.331 30.9557 152.701C30.4311 152.491 28.3328 150.183 28.3328 150.183" stroke="white" stroke-miterlimit="10"/>
<path d="M20.5682 158.366C20.5682 158.366 18.0502 161.828 17.2109 161.619C16.3716 161.409 14.3782 159.94 13.5388 160.989C13.0143 161.619 12.8044 164.766 13.9585 166.34C14.6929 167.284 16.5814 165.71 17.5256 165.92C19.8338 166.445 17.8404 168.123 21.0928 168.123C24.3452 168.228 28.1221 168.333 29.8008 168.123C31.4794 167.914 29.9057 166.34 32.3188 166.13C33.3679 166.025 35.2564 166.969 36.0957 165.605C37.2498 163.612 36.6203 159.94 35.1515 160.15C32.3187 160.569 33.0532 161.933 31.7942 161.304C31.1647 160.989 28.7516 158.366 28.7516 158.366" fill="url(#paint20_linear)" fill-opacity="0.5"/>
<path d="M20.5682 158.366C20.5682 158.366 18.0502 161.828 17.2109 161.619C16.3716 161.409 14.3782 159.94 13.5388 160.989C13.0143 161.619 12.8044 164.766 13.9585 166.34C14.6929 167.284 16.5814 165.71 17.5256 165.92C19.8338 166.445 17.8404 168.123 21.0928 168.123C24.3452 168.228 28.1221 168.333 29.8008 168.123C31.4794 167.914 29.9057 166.34 32.3188 166.13C33.3679 166.025 35.2564 166.969 36.0957 165.605C37.2498 163.612 36.6203 159.94 35.1515 160.15C32.3187 160.569 33.0532 161.933 31.7942 161.304C31.1647 160.989 28.7516 158.366 28.7516 158.366" stroke="white" stroke-miterlimit="10"/>
<path d="M19.4127 168.229C19.4127 168.229 16.2652 171.691 15.216 171.481C14.1669 171.271 11.6489 169.802 10.4948 170.851C9.86534 171.481 9.55059 174.628 11.0194 176.202C11.9636 177.146 14.3767 175.573 15.5308 175.782C18.4684 176.307 15.9504 177.986 20.0421 177.986C24.1339 178.091 28.96 178.196 31.0583 177.986C33.1566 177.776 31.1632 176.202 34.3107 175.992C35.5697 175.887 38.0877 176.832 39.1368 175.468C40.6056 173.474 39.7663 169.802 37.9827 170.012C34.3107 170.432 35.3598 171.796 33.7861 171.166C33.0517 170.851 30.0091 168.229 30.0091 168.229" fill="url(#paint21_linear)" fill-opacity="0.5"/>
<path d="M19.4127 168.229C19.4127 168.229 16.2652 171.691 15.216 171.481C14.1669 171.271 11.6489 169.802 10.4948 170.851C9.86534 171.481 9.55059 174.628 11.0194 176.202C11.9636 177.146 14.3767 175.573 15.5308 175.782C18.4684 176.307 15.9504 177.986 20.0421 177.986C24.1339 178.091 28.96 178.196 31.0583 177.986C33.1566 177.776 31.1632 176.202 34.3107 175.992C35.5697 175.887 38.0877 176.832 39.1368 175.468C40.6056 173.474 39.7663 169.802 37.9827 170.012C34.3107 170.432 35.3598 171.796 33.7861 171.166C33.0517 170.851 30.0091 168.229 30.0091 168.229" stroke="white" stroke-miterlimit="10"/>
<path d="M19.4127 178.09C19.4127 178.09 16.2652 181.553 15.216 181.343C14.1669 181.133 11.6489 179.664 10.4948 180.713C9.86534 181.343 9.55059 184.49 11.0194 186.064C11.9636 187.008 14.3767 185.434 15.5308 185.644C18.4684 186.169 15.9504 187.847 20.0421 187.847C24.1339 187.952 28.96 188.057 31.0583 187.847C33.1566 187.638 31.1632 186.064 34.3107 185.854C35.5697 185.749 38.0877 186.693 39.1368 185.33C40.6056 183.336 39.7663 179.664 37.9827 179.874C34.3107 180.294 35.3598 181.657 33.7861 181.028C33.0517 180.713 30.0091 178.09 30.0091 178.09" fill="url(#paint22_linear)" fill-opacity="0.5"/>
<path d="M19.4127 178.09C19.4127 178.09 16.2652 181.553 15.216 181.343C14.1669 181.133 11.6489 179.664 10.4948 180.713C9.86534 181.343 9.55059 184.49 11.0194 186.064C11.9636 187.008 14.3767 185.434 15.5308 185.644C18.4684 186.169 15.9504 187.847 20.0421 187.847C24.1339 187.952 28.96 188.057 31.0583 187.847C33.1566 187.638 31.1632 186.064 34.3107 185.854C35.5697 185.749 38.0877 186.693 39.1368 185.33C40.6056 183.336 39.7663 179.664 37.9827 179.874C34.3107 180.294 35.3598 181.657 33.7861 181.028C33.0517 180.713 30.0091 178.09 30.0091 178.09" stroke="white" stroke-miterlimit="10"/>
<path d="M19.4127 188.058C19.4127 188.058 16.2652 191.52 15.216 191.31C14.1669 191.1 11.6489 189.631 10.4948 190.681C9.86534 191.31 9.55059 194.457 11.0194 196.031C11.9636 196.975 14.3767 195.402 15.5308 195.612C18.4684 196.136 15.9504 197.815 20.0421 197.815C24.1339 197.92 28.96 198.025 31.0583 197.815C33.1566 197.605 31.1632 196.031 34.3107 195.821C35.5697 195.716 38.0877 196.661 39.1368 195.297C40.6056 193.303 39.7663 189.631 37.9827 189.841C34.3107 190.261 35.3598 191.625 33.7861 190.995C33.0517 190.68 30.0091 188.058 30.0091 188.058" fill="url(#paint23_linear)" fill-opacity="0.5"/>
<path d="M19.4127 188.058C19.4127 188.058 16.2652 191.52 15.216 191.31C14.1669 191.1 11.6489 189.631 10.4948 190.681C9.86534 191.31 9.55059 194.457 11.0194 196.031C11.9636 196.975 14.3767 195.402 15.5308 195.612C18.4684 196.136 15.9504 197.815 20.0421 197.815C24.1339 197.92 28.96 198.025 31.0583 197.815C33.1566 197.605 31.1632 196.031 34.3107 195.821C35.5697 195.716 38.0877 196.661 39.1368 195.297C40.6056 193.303 39.7663 189.631 37.9827 189.841C34.3107 190.261 35.3598 191.625 33.7861 190.995C33.0517 190.68 30.0091 188.058 30.0091 188.058" stroke="white" stroke-miterlimit="10"/>
<path d="M19.4122 197.92C19.4122 197.92 16.2647 201.382 15.2156 201.172C14.1664 200.962 10.1796 197.92 9.13044 199.074C8.50095 199.703 8.92061 203.376 10.3894 204.949C11.3337 205.893 14.4811 205.369 15.6352 205.579C18.5728 206.103 16.0549 207.782 20.1466 207.782C24.2383 207.887 29.0644 207.992 31.1627 207.782C33.261 207.572 31.2677 205.998 34.4151 205.789C35.6741 205.684 38.9265 206.313 39.9756 204.949C41.4445 202.956 41.7592 198.235 39.9756 198.445C36.3036 198.864 35.4643 201.592 33.7856 200.962C33.0512 200.648 30.0086 198.025 30.0086 198.025" fill="url(#paint24_linear)" fill-opacity="0.5"/>
<path d="M19.4122 197.92C19.4122 197.92 16.2647 201.382 15.2156 201.172C14.1664 200.962 10.1796 197.92 9.13044 199.074C8.50095 199.703 8.92061 203.376 10.3894 204.949C11.3337 205.893 14.4811 205.369 15.6352 205.579C18.5728 206.103 16.0549 207.782 20.1466 207.782C24.2383 207.887 29.0644 207.992 31.1627 207.782C33.261 207.572 31.2677 205.998 34.4151 205.789C35.6741 205.684 38.9265 206.313 39.9756 204.949C41.4445 202.956 41.7592 198.235 39.9756 198.445C36.3036 198.864 35.4643 201.592 33.7856 200.962C33.0512 200.648 30.0086 198.025 30.0086 198.025" stroke="white" stroke-miterlimit="10"/>
<path d="M21.1962 141.58C21.1962 141.58 18.993 144.622 18.3635 144.412C18.0488 144.307 16.3701 145.147 16.3701 146.091C16.3701 147.035 18.1537 148.084 18.5734 148.189C20.5667 148.609 18.8881 150.078 21.6159 150.183C24.3437 150.183 27.701 150.288 29.1698 150.183C30.6387 150.078 29.2748 148.609 31.3731 148.399C31.8977 148.399 33.4714 147.035 33.3665 145.881C33.2616 145.042 31.478 144.412 30.9534 144.098C30.4288 143.888 28.3305 141.58 28.3305 141.58" fill="url(#paint25_linear)" fill-opacity="0.5"/>
<path d="M21.1962 141.58C21.1962 141.58 18.993 144.622 18.3635 144.412C18.0488 144.307 16.3701 145.147 16.3701 146.091C16.3701 147.035 18.1537 148.084 18.5734 148.189C20.5667 148.609 18.8881 150.078 21.6159 150.183C24.3437 150.183 27.701 150.288 29.1698 150.183C30.6387 150.078 29.2748 148.609 31.3731 148.399C31.8977 148.399 33.4714 147.035 33.3665 145.881C33.2616 145.042 31.478 144.412 30.9534 144.098C30.4288 143.888 28.3305 141.58 28.3305 141.58" stroke="white" stroke-miterlimit="10"/>
<path d="M24.9733 209.67C24.9733 209.67 15.8457 209.88 10.0753 206.418C4.30495 202.956 -0.101506 211.244 0.947651 215.021C1.99681 218.798 6.82294 221.526 6.08853 224.359C5.35412 227.191 4.51479 230.129 6.29836 232.962C8.08192 235.794 12.2785 236.319 12.6982 238.732C13.1179 241.145 12.5933 242.089 16.9998 243.453C21.4062 244.817 21.0915 244.817 21.3013 246.076C21.4062 247.335 20.8816 248.384 21.9308 248.699C22.9799 249.014 28.6454 248.909 29.065 248.699C29.4847 248.489 29.3798 246.286 29.065 245.447C28.7503 244.607 34.4157 243.453 35.7796 242.719C37.1435 241.984 37.773 240.725 38.2976 237.998C38.8222 235.375 41.8647 235.375 44.068 232.647C46.2712 229.919 43.7532 225.513 44.068 223.834C44.3827 222.155 48.8941 218.483 48.999 214.811C49.1039 211.139 47.6351 203.585 41.1303 206.628C34.3108 209.775 24.9733 209.67 24.9733 209.67Z" fill="url(#paint26_linear)" fill-opacity="0.5" stroke="white" stroke-miterlimit="10"/>
<path d="M24.8686 250.167C24.8686 250.167 21.4064 249.958 19.413 248.699C17.4196 247.44 17.2098 248.489 17.7343 250.167C18.2589 251.846 20.4622 251.951 21.4064 256.148C22.3506 260.344 23.7145 266.22 25.3932 265.695C26.9669 265.17 28.5407 257.931 28.8554 255.833C29.2751 253.839 31.6881 251.846 32.4226 250.062C33.0521 248.699 33.5766 247.02 31.0586 248.699C28.5407 250.482 27.3866 250.272 24.8686 250.167Z" fill="url(#paint27_linear)" fill-opacity="0.5" stroke="white" stroke-miterlimit="10"/>
</g>
<defs>
<filter id="filter0_i" x="0.29248" y="0.904297" width="49.2117" height="265.324" filterUnits="userSpaceOnUse" color-interpolation-filters="sRGB">
<feFlood flood-opacity="0" result="BackgroundImageFix"/>
<feBlend mode="normal" in="SourceGraphic" in2="BackgroundImageFix" result="shape"/>
<feColorMatrix in="SourceAlpha" type="matrix" values="0 0 0 0 0 0 0 0 0 0 0 0 0 0 0 0 0 0 127 0" result="hardAlpha"/>
<feOffset/>
<feGaussianBlur stdDeviation="2"/>
<feComposite in2="hardAlpha" operator="arithmetic" k2="-1" k3="1"/>
<feColorMatrix type="matrix" values="0 0 0 0 1 0 0 0 0 1 0 0 0 0 1 0 0 0 1 0"/>
<feBlend mode="normal" in2="shape" result="effect1_innerShadow"/>
</filter>
<linearGradient id="paint0_linear" x1="24.8161" y1="1.4043" x2="24.8161" y2="14.8548" gradientUnits="userSpaceOnUse">
<stop offset="0.557292" stop-color="white"/>
<stop offset="1" stop-color="white" stop-opacity="0"/>
</linearGradient>
<linearGradient id="paint1_linear" x1="21.6465" y1="5.18555" x2="21.6465" y2="8.23857" gradientUnits="userSpaceOnUse">
<stop offset="0.557292" stop-color="white"/>
<stop offset="1" stop-color="white" stop-opacity="0"/>
</linearGradient>
<linearGradient id="paint2_linear" x1="28.2098" y1="5.18555" x2="28.2098" y2="8.23857" gradientUnits="userSpaceOnUse">
<stop offset="0.557292" stop-color="white"/>
<stop offset="1" stop-color="white" stop-opacity="0"/>
</linearGradient>
<linearGradient id="paint3_linear" x1="24.7743" y1="14.6313" x2="24.7743" y2="20.9263" gradientUnits="userSpaceOnUse">
<stop offset="0.557292" stop-color="white"/>
<stop offset="1" stop-color="white" stop-opacity="0"/>
</linearGradient>
<linearGradient id="paint4_linear" x1="24.8696" y1="20.4023" x2="24.8696" y2="26.6973" gradientUnits="userSpaceOnUse">
<stop offset="0.557292" stop-color="white"/>
<stop offset="1" stop-color="white" stop-opacity="0"/>
</linearGradient>
<linearGradient id="paint5_linear" x1="24.8176" y1="26.0674" x2="24.8176" y2="32.9918" gradientUnits="userSpaceOnUse">
<stop offset="0.557292" stop-color="white"/>
<stop offset="1" stop-color="white" stop-opacity="0"/>
</linearGradient>
<linearGradient id="paint6_linear" x1="24.8176" y1="31.9424" x2="24.8176" y2="39.1816" gradientUnits="userSpaceOnUse">
<stop offset="0.557292" stop-color="white"/>
<stop offset="1" stop-color="white" stop-opacity="0"/>
</linearGradient>
<linearGradient id="paint7_linear" x1="24.8449" y1="38.7622" x2="24.8449" y2="47.444" gradientUnits="userSpaceOnUse">
<stop offset="0.557292" stop-color="white"/>
<stop offset="1" stop-color="white" stop-opacity="0"/>
</linearGradient>
<linearGradient id="paint8_linear" x1="24.9654" y1="46.9458" x2="24.9654" y2="55.5955" gradientUnits="userSpaceOnUse">
<stop offset="0.557292" stop-color="white"/>
<stop offset="1" stop-color="white" stop-opacity="0"/>
</linearGradient>
<linearGradient id="paint9_linear" x1="24.9577" y1="55.5488" x2="24.9577" y2="64.1986" gradientUnits="userSpaceOnUse">
<stop offset="0.557292" stop-color="white"/>
<stop offset="1" stop-color="white" stop-opacity="0"/>
</linearGradient>
<linearGradient id="paint10_linear" x1="24.9577" y1="64.1523" x2="24.9577" y2="72.8341" gradientUnits="userSpaceOnUse">
<stop offset="0.557292" stop-color="white"/>
<stop offset="1" stop-color="white" stop-opacity="0"/>
</linearGradient>
<linearGradient id="paint11_linear" x1="25.0765" y1="72.7549" x2="25.0765" y2="81.4046" gradientUnits="userSpaceOnUse">
<stop offset="0.557292" stop-color="white"/>
<stop offset="1" stop-color="white" stop-opacity="0"/>
</linearGradient>
<linearGradient id="paint12_linear" x1="25.0765" y1="81.3584" x2="25.0765" y2="90.0402" gradientUnits="userSpaceOnUse">
<stop offset="0.557292" stop-color="white"/>
<stop offset="1" stop-color="white" stop-opacity="0"/>
</linearGradient>
<linearGradient id="paint13_linear" x1="25.001" y1="89.9614" x2="25.001" y2="98.6111" gradientUnits="userSpaceOnUse">
<stop offset="0.557292" stop-color="white"/>
<stop offset="1" stop-color="white" stop-opacity="0"/>
</linearGradient>
<linearGradient id="paint14_linear" x1="25.001" y1="98.3545" x2="25.001" y2="107.004" gradientUnits="userSpaceOnUse">
<stop offset="0.557292" stop-color="white"/>
<stop offset="1" stop-color="white" stop-opacity="0"/>
</linearGradient>
<linearGradient id="paint15_linear" x1="25.001" y1="107.062" x2="25.001" y2="115.744" gradientUnits="userSpaceOnUse">
<stop offset="0.557292" stop-color="white"/>
<stop offset="1" stop-color="white" stop-opacity="0"/>
</linearGradient>
<linearGradient id="paint16_linear" x1="25.001" y1="115.666" x2="25.001" y2="124.347" gradientUnits="userSpaceOnUse">
<stop offset="0.557292" stop-color="white"/>
<stop offset="1" stop-color="white" stop-opacity="0"/>
</linearGradient>
<linearGradient id="paint17_linear" x1="25.001" y1="124.164" x2="25.001" y2="132.814" gradientUnits="userSpaceOnUse">
<stop offset="0.557292" stop-color="white"/>
<stop offset="1" stop-color="white" stop-opacity="0"/>
</linearGradient>
<linearGradient id="paint18_linear" x1="25.0684" y1="132.977" x2="25.0684" y2="141.626" gradientUnits="userSpaceOnUse">
<stop offset="0.557292" stop-color="white"/>
<stop offset="1" stop-color="white" stop-opacity="0"/>
</linearGradient>
<linearGradient id="paint19_linear" x1="25.0684" y1="150.078" x2="25.0684" y2="158.728" gradientUnits="userSpaceOnUse">
<stop offset="0.557292" stop-color="white"/>
<stop offset="1" stop-color="white" stop-opacity="0"/>
</linearGradient>
<linearGradient id="paint20_linear" x1="24.9047" y1="158.366" x2="24.9047" y2="168.245" gradientUnits="userSpaceOnUse">
<stop offset="0.557292" stop-color="white"/>
<stop offset="1" stop-color="white" stop-opacity="0"/>
</linearGradient>
<linearGradient id="paint21_linear" x1="24.9289" y1="168.229" x2="24.9289" y2="178.107" gradientUnits="userSpaceOnUse">
<stop offset="0.557292" stop-color="white"/>
<stop offset="1" stop-color="white" stop-opacity="0"/>
</linearGradient>
<linearGradient id="paint22_linear" x1="24.9289" y1="178.09" x2="24.9289" y2="187.969" gradientUnits="userSpaceOnUse">
<stop offset="0.557292" stop-color="white"/>
<stop offset="1" stop-color="white" stop-opacity="0"/>
</linearGradient>
<linearGradient id="paint23_linear" x1="24.9289" y1="188.058" x2="24.9289" y2="197.936" gradientUnits="userSpaceOnUse">
<stop offset="0.557292" stop-color="white"/>
<stop offset="1" stop-color="white" stop-opacity="0"/>
</linearGradient>
<linearGradient id="paint24_linear" x1="25.0226" y1="197.92" x2="25.0226" y2="207.903" gradientUnits="userSpaceOnUse">
<stop offset="0.557292" stop-color="white"/>
<stop offset="1" stop-color="white" stop-opacity="0"/>
</linearGradient>
<linearGradient id="paint25_linear" x1="24.8708" y1="141.58" x2="24.8708" y2="150.229" gradientUnits="userSpaceOnUse">
<stop offset="0.557292" stop-color="white"/>
<stop offset="1" stop-color="white" stop-opacity="0"/>
</linearGradient>
<linearGradient id="paint26_linear" x1="24.8983" y1="205.591" x2="24.8983" y2="248.898" gradientUnits="userSpaceOnUse">
<stop offset="0.557292" stop-color="white"/>
<stop offset="1" stop-color="white" stop-opacity="0"/>
</linearGradient>
<linearGradient id="paint27_linear" x1="25.2158" y1="247.995" x2="25.2158" y2="265.728" gradientUnits="userSpaceOnUse">
<stop offset="0.557292" stop-color="white"/>
<stop offset="1" stop-color="white" stop-opacity="0"/>
</linearGradient>
</defs>
</svg>
