<svg width="10" height="19" viewBox="0 0 10 19" fill="none" xmlns="http://www.w3.org/2000/svg">
<path d="M0.552439 10.8284H2.40716V17.6843C2.40716 17.9891 2.65392 18.2365 2.9596 18.2365L5.9111 18.2372C6.21678 18.2372 6.46354 17.9891 6.46354 17.685V10.8291H8.22177C8.5002 10.8291 8.73517 10.6215 8.76979 10.3454L9.13661 7.40046C9.17786 7.07209 8.92079 6.77981 8.58859 6.77981H6.46354C6.54677 4.96055 6.14313 4.42235 7.32682 4.42235C8.12822 4.32664 9.3922 4.73231 9.3922 3.87017V1.23663C9.3922 0.960537 9.18817 0.727148 8.9149 0.689599C8.68361 0.657941 7.76951 0.567383 6.6359 0.567383C1.47244 0.567383 2.53533 6.28947 2.4079 6.77907H0.552439C0.247493 6.77907 0 7.02645 0 7.33125V10.2762C0 10.581 0.247493 10.8284 0.552439 10.8284ZM1.10488 7.88417H2.9596C3.26455 7.88417 3.51204 7.63679 3.51204 7.33199V5.01208C3.51204 2.88949 4.65006 1.67248 6.63516 1.67248C7.28189 1.67248 7.87705 1.70414 8.28659 1.73654V3.31872C7.99048 3.46965 5.35792 2.66789 5.35792 5.30437V7.33272C5.35792 7.63753 5.60542 7.88491 5.91036 7.88491H7.96249L7.73268 9.72552H5.91036C5.60542 9.72552 5.35792 9.97289 5.35792 10.2777V17.1329H3.51278V10.277C3.51278 9.97216 3.26528 9.72478 2.96034 9.72478H1.10488V7.88417Z" fill="white"/>
</svg>
