<svg width="14" height="14" viewBox="0 0 14 14" fill="none" xmlns="http://www.w3.org/2000/svg">
<path d="M13.6252 7.04777C13.6252 8.00293 13.6059 8.96084 13.6307 9.916C13.6719 11.6067 12.6086 12.9132 11.254 13.4951C10.71 13.7284 10.1385 13.8519 9.54778 13.8519C7.69867 13.8547 5.84681 13.8794 3.9977 13.8437C2.60469 13.8162 1.45896 13.2344 0.637435 12.0871C0.206067 11.4832 0 10.7971 0 10.0532C0 8.08528 0 6.12006 0 4.1521C0 2.54645 0.783056 1.42386 2.17332 0.693767C2.77779 0.378125 3.43445 0.243634 4.1186 0.24089C5.91276 0.24089 7.70966 0.229911 9.50382 0.246379C10.8968 0.257358 12.0591 0.789832 12.9163 1.90967C13.3944 2.53547 13.6252 3.25458 13.6252 4.04506C13.6252 5.04414 13.6252 6.04596 13.6252 7.04777ZM1.01385 7.04777C1.01385 8.05508 1.01385 9.05965 1.01385 10.067C1.01385 10.5171 1.11826 10.9398 1.3518 11.3213C1.96451 12.3231 2.89044 12.8117 4.03892 12.8309C5.88253 12.8583 7.72889 12.8419 9.57526 12.8364C10.0286 12.8364 10.4682 12.7431 10.8776 12.5482C11.9931 12.0157 12.6168 11.1676 12.6113 9.89404C12.6003 7.9453 12.6086 5.99655 12.6086 4.04781C12.6086 3.49612 12.452 2.99109 12.125 2.54645C11.4931 1.69284 10.6193 1.2729 9.57526 1.26192C7.73439 1.23996 5.89352 1.25369 4.05266 1.25643C3.65975 1.25643 3.28059 1.33603 2.91242 1.47327C1.90131 1.84929 0.961647 2.80171 1.00561 4.20425C1.03858 5.15392 1.01385 6.10085 1.01385 7.04777Z" fill="white"/>
<path d="M6.83844 10.2152C5.06626 10.2152 3.63753 8.80439 3.63478 7.04777C3.63203 5.31861 5.07175 3.90233 6.83294 3.90233C8.59963 3.89959 10.0339 5.31312 10.0366 7.05601C10.0366 8.79616 8.60512 10.2124 6.83844 10.2152ZM6.83844 9.19963C8.04462 9.19963 9.02275 8.23623 9.02 7.05052C9.01725 5.87578 8.03912 4.91513 6.83844 4.91513C5.63226 4.91513 4.64863 5.87304 4.64863 7.05601C4.65138 8.24172 5.63226 9.20237 6.83844 9.19963Z" fill="white"/>
<path d="M10.3968 2.68368C10.7677 2.68368 11.0699 2.99933 11.0699 3.38633C11.0672 3.77333 10.7622 4.08623 10.3913 4.08349C10.0259 4.08074 9.72637 3.76784 9.72637 3.38907C9.72363 3.00207 10.0259 2.68368 10.3968 2.68368Z" fill="white"/>
</svg>
