<svg width="630" height="632" viewBox="0 0 630 632" fill="none" xmlns="http://www.w3.org/2000/svg">
<circle cx="155" cy="283" r="143.5" fill="url(#paint0_linear)" fill-opacity="0.1" stroke="#58DCE3"/>
<path d="M236.288 221.454C246.006 243.819 251.656 292.264 231.191 301.631C205.055 313.597 168.013 269.897 156.337 236.161C144.246 201.226 146.991 163.232 172.994 160.927C198.998 158.622 226.572 199.082 236.288 221.454Z" fill="url(#paint1_linear)" fill-opacity="0.1" stroke="#58DCE3" stroke-miterlimit="10"/>
<path d="M213.879 228.272C217.584 236.801 219.738 255.268 211.938 258.842C201.972 263.401 187.853 246.745 183.403 233.885C178.792 220.568 179.841 206.086 189.751 205.205C199.661 204.324 210.174 219.743 213.879 228.272Z" fill="url(#paint2_linear)" fill-opacity="0.1" stroke="#58DCE3" stroke-miterlimit="10"/>
<path d="M160.217 166.204C153.35 170.016 127.52 209.219 100.868 224.246C74.2154 239.272 14.5585 256.115 32.4934 306.192C38.6596 323.418 54.1393 334.234 69.3065 334.622C98.2373 335.373 127.069 311.794 154.686 309.206C186.677 306.209 223.01 303.614 223.01 303.614C223.01 303.614 190.832 307.788 159.263 243.608C159.261 243.614 136.273 189.831 160.217 166.204Z" fill="url(#paint3_linear)" fill-opacity="0.1" stroke="#58DCE3" stroke-miterlimit="10"/>
<path d="M130.771 315.506L140.778 338.118L91.8364 361.002L79.205 334" fill="url(#paint4_linear)" fill-opacity="0.1"/>
<path d="M130.771 315.506L140.778 338.118L91.8364 361.002L79.205 334" stroke="#58DCE3" stroke-miterlimit="10"/>
<path d="M116.316 321.524L126.738 344.686" stroke="#58DCE3" stroke-miterlimit="10"/>
<path d="M130.198 407.677C130.198 407.677 140.362 398.715 134.135 383.515C127.914 368.318 118.417 348.576 118.417 348.576L130.555 342.905C130.555 342.905 144.12 372.586 148.595 381.782C152.615 390.048 150.901 402.116 138.25 406.328C125.599 410.541 118.179 404.197 115.065 397.843C111.952 391.489 96.7394 358.713 96.7394 358.713" fill="url(#paint5_linear)" fill-opacity="0.1"/>
<path d="M130.198 407.677C130.198 407.677 140.362 398.715 134.135 383.515C127.914 368.318 118.417 348.576 118.417 348.576L130.555 342.905C130.555 342.905 144.12 372.586 148.595 381.782C152.615 390.048 150.901 402.116 138.25 406.328C125.599 410.541 118.179 404.197 115.065 397.843C111.952 391.489 96.7394 358.713 96.7394 358.713" stroke="#58DCE3" stroke-miterlimit="10"/>
<path d="M211.932 258.839L176.969 273.219C176.969 273.219 163.246 254.288 159.253 243.617C155.265 232.949 152.458 222.758 152.458 222.758L187.579 205.649" fill="url(#paint6_linear)" fill-opacity="0.1"/>
<path d="M211.932 258.839L176.969 273.219C176.969 273.219 163.246 254.288 159.253 243.617C155.265 232.949 152.458 222.758 152.458 222.758L187.579 205.649" stroke="#58DCE3" stroke-miterlimit="10"/>
<path d="M44.5 191.313L259.5 381.313" stroke="#58DCE3"/>
<path d="M242.5 200.313L254.284 196.467L249.417 220.078L261.5 215.813" stroke="#58DCE3"/>
<path d="M268.869 168.506L287.48 162.532L279.452 201.474L298.5 194.813" stroke="#58DCE3"/>
<path d="M307.942 131.42L334.754 122.813L323.188 178.916L350 170.309" stroke="#58DCE3"/>
<path d="M307 128.813L309 134.313" stroke="#58DCE3"/>
<path d="M267.713 166.908L269.287 170.719" stroke="#58DCE3"/>
<path d="M261 213.895L262.073 217.352" stroke="#58DCE3"/>
<path d="M242 198.895L243.073 202.352" stroke="#58DCE3"/>
<path d="M349 166.813L351 172.313" stroke="#58DCE3"/>
<path d="M298 192.919L299.418 196.791" stroke="#58DCE3"/>
<path d="M427.941 621.165L338.636 590.363C324.641 585.536 317.212 570.286 322.039 556.29L394.963 344.858L404.469 317.296C409.296 303.3 424.546 295.872 438.542 300.699L527.847 331.5C541.843 336.327 549.271 351.578 544.444 365.573L462.014 604.568C457.19 618.555 441.928 625.989 427.941 621.165Z" fill="url(#paint7_linear)" fill-opacity="0.1" stroke="#58DCE3" stroke-miterlimit="10"/>
<path d="M428.159 613.559L343.154 584.241C329.832 579.646 322.761 565.13 327.356 551.808L396.768 350.556L405.816 324.321C410.411 311 424.927 303.929 438.249 308.524L523.254 337.842C536.576 342.437 543.646 356.953 539.052 370.274L460.591 597.761C455.999 611.075 441.472 618.151 428.159 613.559Z" fill="url(#paint8_linear)" fill-opacity="0.1" stroke="#58DCE3" stroke-miterlimit="10"/>
<path d="M496.143 328.425L464.894 317.647C462.409 316.79 461.083 314.081 461.942 311.588L462.814 309.061L503.065 322.943L502.193 325.471C501.333 327.964 498.628 329.282 496.143 328.425Z" fill="url(#paint9_linear)" fill-opacity="0.1" stroke="#58DCE3" stroke-miterlimit="10"/>
<path d="M401.288 326.492L398.966 325.691C398.433 325.507 397.847 325.786 397.66 326.327L394.351 335.921C394.167 336.454 394.446 337.041 394.987 337.228L397.308 338.029" fill="url(#paint10_linear)" fill-opacity="0.1"/>
<path d="M401.288 326.492L398.966 325.691C398.433 325.507 397.847 325.786 397.66 326.327L394.351 335.921C394.167 336.454 394.446 337.041 394.987 337.228L397.308 338.029" stroke="#58DCE3" stroke-miterlimit="10"/>
<path d="M391.27 344.882L384.171 365.464C383.949 366.108 384.296 366.805 384.932 367.024L387.055 367.757L394.957 344.846L392.834 344.114C392.195 343.903 391.492 344.238 391.27 344.882Z" fill="url(#paint11_linear)" fill-opacity="0.1" stroke="#58DCE3" stroke-miterlimit="10"/>
<path d="M381.274 373.863L374.176 394.444C373.954 395.088 374.3 395.785 374.936 396.005L377.06 396.737L384.962 373.826L382.838 373.094C382.202 372.874 381.497 373.218 381.274 373.863Z" fill="url(#paint12_linear)" fill-opacity="0.1" stroke="#58DCE3" stroke-miterlimit="10"/>
<path d="M537.528 396.279L524.929 432.808C524.535 433.951 523.693 434.69 523.057 434.471L520.934 433.738L534.956 393.083L537.079 393.816C537.724 394.038 537.922 395.136 537.528 396.279Z" fill="url(#paint13_linear)" fill-opacity="0.1" stroke="#58DCE3" stroke-miterlimit="10"/>
<path d="M412.582 403.987L410.461 403.281L423.672 388.39L425.473 388.99L427.111 408.829L424.866 408.081L424.389 402.112L416.52 399.49L412.582 403.987ZM424.232 399.867L423.582 391.456L418.016 397.796L424.232 399.867ZM435.885 408.41C436.017 408.015 435.921 407.618 435.597 407.218C435.274 406.817 434.844 406.436 434.306 406.075C433.791 405.702 433.276 405.302 432.761 404.874C432.245 404.447 431.864 403.918 431.618 403.288C431.376 402.641 431.379 401.948 431.626 401.208C431.938 400.27 432.536 399.629 433.418 399.284C434.3 398.938 435.309 398.955 436.444 399.333C438.072 399.875 439.201 400.736 439.831 401.914L438.393 403.106C437.811 402.109 437.003 401.437 435.967 401.092C435.441 400.917 434.969 400.906 434.553 401.059C434.136 401.213 433.862 401.487 433.731 401.882C433.588 402.309 433.676 402.731 433.994 403.148C434.317 403.548 434.737 403.934 435.252 404.307C435.789 404.669 436.315 405.063 436.831 405.491C437.351 405.902 437.738 406.414 437.99 407.028C438.242 407.642 438.25 408.303 438.015 409.01C437.648 410.111 436.957 410.813 435.943 411.115C434.951 411.405 433.838 411.345 432.605 410.934C431.733 410.644 430.963 410.186 430.294 409.561C429.615 408.914 429.212 408.342 429.086 407.843L430.664 406.807C430.867 407.295 431.234 407.782 431.766 408.27C432.331 408.769 432.876 409.106 433.402 409.281C433.978 409.473 434.49 409.498 434.94 409.355C435.411 409.202 435.726 408.887 435.885 408.41ZM450.537 404.303L453.053 405.142L446.624 408.727L449.946 416.439L447.257 415.543L444.182 408.078L450.537 404.303ZM441.831 413.734L439.857 413.077L445.611 395.81L447.585 396.468L441.831 413.734ZM452.72 415.828C452.007 414.349 451.928 412.778 452.481 411.117C453.04 409.44 454.043 408.24 455.49 407.516C456.959 406.781 458.573 406.707 460.333 407.294C462.092 407.88 463.331 408.905 464.049 410.368C464.789 411.821 464.88 413.386 464.321 415.063C463.762 416.74 462.748 417.946 461.279 418.681C459.832 419.404 458.229 419.473 456.469 418.887C454.726 418.306 453.476 417.286 452.72 415.828ZM456.608 409.341C455.644 409.824 454.967 410.649 454.578 411.816C454.189 412.984 454.227 414.047 454.693 415.006C455.17 415.987 455.968 416.664 457.086 417.037C458.204 417.409 459.237 417.352 460.185 416.864C461.156 416.365 461.835 415.532 462.224 414.364C462.602 413.23 462.556 412.163 462.084 411.166C461.624 410.19 460.834 409.516 459.716 409.144C458.598 408.771 457.562 408.837 456.608 409.341ZM467.292 422.219L465.319 421.562L469.018 410.462L470.991 411.119L470.539 412.476C471.103 412.153 471.761 411.961 472.512 411.9C473.285 411.829 474.009 411.906 474.683 412.13C477.758 413.155 478.753 415.296 477.668 418.551L475.531 424.965L473.557 424.307L475.571 418.264C476.327 415.995 475.661 414.512 473.573 413.816C472.323 413.4 471.12 413.528 469.963 414.203L467.292 422.219ZM482.366 417.514L482.374 415.762C483.701 415.455 485.047 415.529 486.411 415.984C487.908 416.483 488.87 417.214 489.298 418.179C489.725 419.144 489.681 420.399 489.166 421.945L486.898 428.753L485.023 428.128L485.5 426.697C484.272 427.476 482.91 427.616 481.413 427.117C480.394 426.777 479.673 426.199 479.251 425.382C478.834 424.549 478.801 423.606 479.152 422.554C479.514 421.469 480.185 420.742 481.166 420.375C482.153 419.991 483.271 420.008 484.521 420.424C485.688 420.813 486.53 421.359 487.045 422.06C487.462 420.81 487.588 419.857 487.423 419.199C487.259 418.541 486.683 418.048 485.696 417.719C484.693 417.385 483.583 417.316 482.366 417.514ZM482.696 425.571C483.798 425.938 484.91 425.779 486.034 425.094L486.503 423.688C485.976 422.965 485.228 422.441 484.258 422.118C483.584 421.893 482.961 421.869 482.391 422.044C481.843 422.209 481.473 422.579 481.282 423.154C481.101 423.697 481.131 424.182 481.372 424.609C481.63 425.042 482.071 425.363 482.696 425.571Z" fill="#58DCE3"/>
<path d="M381.933 486.27C381.933 486.27 386.684 511.694 390.438 515.612C394.198 519.533 406.373 524.544 410.28 524.357C414.194 524.173 427.923 517.049 430.589 518.48C433.256 519.911 449.265 535.225 449.265 535.225" fill="url(#paint14_linear)" fill-opacity="0.1"/>
<path d="M381.933 486.27C381.933 486.27 386.684 511.694 390.438 515.612C394.198 519.533 406.373 524.544 410.28 524.357C414.194 524.173 427.923 517.049 430.589 518.48C433.256 519.911 449.265 535.225 449.265 535.225" stroke="#58DCE3" stroke-miterlimit="10" stroke-linecap="round"/>
<path d="M415.179 429.859L413.973 429.459L416.249 422.598L417.464 423.001L418.743 426.983L422.041 424.52L423.178 424.897L420.902 431.757L419.707 431.36L421.351 426.401L418.175 428.731L417.998 428.672L416.814 424.929L415.179 429.859Z" fill="#58DCE3"/>
<path d="M425.591 433.312L424.375 432.909L429.558 426.991L430.617 427.342L431.236 435.185L429.952 434.759L429.818 432.767L426.888 431.795L425.591 433.312ZM429.731 431.487L429.541 428.715L427.722 430.821L429.731 431.487Z" fill="#58DCE3"/>
<path d="M438.072 435.429C438.141 435.22 438.124 435.011 438.019 434.802C437.923 434.589 437.777 434.395 437.58 434.221C437.386 434.041 437.174 433.84 436.943 433.618C436.72 433.392 436.519 433.169 436.338 432.95C436.159 432.724 436.034 432.454 435.964 432.14C435.903 431.823 435.93 431.491 436.044 431.144C436.22 430.615 436.561 430.232 437.068 429.993C437.588 429.76 438.168 429.749 438.808 429.962C439.677 430.25 440.25 430.711 440.525 431.347L439.579 432.034C439.345 431.579 438.996 431.275 438.533 431.121C438.239 431.024 437.981 431.014 437.759 431.093C437.543 431.174 437.398 431.328 437.322 431.557C437.283 431.675 437.269 431.793 437.28 431.913C437.293 432.026 437.315 432.124 437.346 432.207C437.383 432.292 437.45 432.394 437.549 432.514C437.653 432.635 437.735 432.728 437.794 432.791C437.861 432.849 437.97 432.947 438.121 433.084C438.271 433.221 438.377 433.318 438.438 433.374C438.682 433.6 438.888 433.821 439.056 434.036C439.25 434.26 439.375 434.53 439.43 434.845C439.491 435.163 439.464 435.495 439.349 435.841C439.159 436.416 438.785 436.811 438.228 437.025C437.671 437.239 437.066 437.238 436.412 437.021C435.955 436.87 435.532 436.624 435.144 436.285C434.778 435.946 434.572 435.584 434.526 435.199L435.485 434.603C435.587 434.906 435.76 435.173 436.002 435.406C436.25 435.64 436.518 435.805 436.806 435.901C437.106 436 437.372 436.009 437.603 435.926C437.833 435.843 437.99 435.677 438.072 435.429Z" fill="#58DCE3"/>
<path d="M445.939 438.038C446.009 437.829 445.991 437.62 445.886 437.411C445.79 437.198 445.644 437.005 445.448 436.831C445.254 436.65 445.041 436.449 444.81 436.228C444.588 436.002 444.386 435.779 444.205 435.559C444.026 435.333 443.902 435.063 443.832 434.75C443.77 434.432 443.797 434.1 443.912 433.754C444.087 433.225 444.429 432.841 444.935 432.603C445.455 432.369 446.035 432.359 446.676 432.571C447.545 432.859 448.117 433.321 448.392 433.956L447.446 434.643C447.213 434.189 446.864 433.885 446.4 433.731C446.106 433.633 445.848 433.624 445.626 433.702C445.411 433.783 445.265 433.938 445.189 434.167C445.15 434.284 445.136 434.403 445.147 434.523C445.16 434.636 445.182 434.734 445.213 434.816C445.25 434.901 445.318 435.004 445.416 435.123C445.521 435.245 445.602 435.337 445.661 435.4C445.729 435.459 445.838 435.557 445.988 435.694C446.139 435.831 446.244 435.927 446.305 435.984C446.549 436.21 446.755 436.43 446.923 436.646C447.117 436.87 447.242 437.139 447.297 437.455C447.358 437.773 447.332 438.105 447.217 438.451C447.026 439.026 446.652 439.421 446.095 439.635C445.538 439.849 444.933 439.848 444.28 439.631C443.822 439.479 443.4 439.234 443.012 438.895C442.645 438.556 442.439 438.194 442.393 437.808L443.352 437.213C443.455 437.515 443.627 437.783 443.869 438.015C444.118 438.25 444.386 438.415 444.673 438.51C444.974 438.61 445.239 438.618 445.47 438.535C445.7 438.452 445.857 438.286 445.939 438.038Z" fill="#58DCE3"/>
<path d="M450.781 441.668L449.566 441.265L454.749 435.347L455.807 435.698L456.426 443.54L455.142 443.114L455.009 441.123L452.079 440.151L450.781 441.668ZM454.922 439.843L454.732 437.071L452.913 439.176L454.922 439.843Z" fill="#58DCE3"/>
<path d="M465.025 443.542L463.368 442.993L463.742 441.865L466.526 442.789L465.583 445.631C465.191 445.827 464.721 445.933 464.173 445.946C463.626 445.954 463.134 445.885 462.697 445.74C461.586 445.371 460.817 444.761 460.389 443.908C459.965 443.064 459.933 442.1 460.293 441.015C460.627 440.009 461.219 439.273 462.069 438.808C462.922 438.337 463.861 438.271 464.887 438.612C465.762 438.902 466.421 439.378 466.861 440.039L466.033 440.83C465.917 440.611 465.734 440.408 465.484 440.224C465.235 440.033 464.961 439.887 464.66 439.787C463.974 439.56 463.35 439.592 462.789 439.885C462.224 440.169 461.816 440.686 461.567 441.438C461.326 442.163 461.345 442.818 461.622 443.403C461.895 443.98 462.384 444.385 463.09 444.619C463.338 444.701 463.621 444.745 463.939 444.748C464.259 444.746 464.502 444.703 464.667 444.62L465.025 443.542Z" fill="#58DCE3"/>
<path d="M473.303 449.138L469.236 447.789L471.511 440.929L475.481 442.245L475.107 443.372L472.343 442.455L471.777 444.161L474.247 444.98L473.873 446.107L471.403 445.288L470.815 447.062L473.677 448.011L473.303 449.138Z" fill="#58DCE3"/>
<path d="M370.037 533.409L370.088 534.391C369.476 534.622 368.799 534.608 368.056 534.35C367.292 534.084 366.75 533.638 366.429 533.011C366.119 532.395 366.096 531.709 366.36 530.953C366.606 530.245 367.042 529.731 367.67 529.41C368.297 529.089 368.992 529.061 369.756 529.327C370.386 529.546 370.847 529.941 371.141 530.51C371.434 531.08 371.469 531.687 371.245 532.331C371.146 532.614 371.045 532.825 370.942 532.963L367.493 531.763C367.422 532.127 367.479 532.452 367.665 532.739C367.858 533.028 368.149 533.24 368.538 533.376C369.069 533.56 369.568 533.572 370.037 533.409ZM369.349 530.327C368.656 530.086 368.118 530.287 367.735 530.931L370.08 531.747C370.193 531.446 370.18 531.163 370.041 530.901C369.912 530.634 369.681 530.443 369.349 530.327Z" fill="#58DCE3"/>
<path d="M375.17 536.694L373.95 536.27L375.611 531.495L376.832 531.919L376.669 532.386C377.059 532.109 377.487 532.052 377.954 532.215C378.286 532.33 378.513 532.477 378.634 532.653L377.8 533.648C377.637 533.456 377.453 533.325 377.248 533.254C376.894 533.131 376.573 533.209 376.285 533.49L375.17 536.694Z" fill="#58DCE3"/>
<path d="M379.503 538.927C379.633 538.552 379.879 538.289 380.241 538.137C380.606 537.979 381.047 537.93 381.565 537.991C381.543 537.872 381.553 537.753 381.595 537.633C381.641 537.498 381.716 537.397 381.819 537.33C381.514 537.065 381.309 536.756 381.202 536.402C381.105 536.043 381.118 535.686 381.241 535.333C381.411 534.845 381.745 534.489 382.242 534.266C382.74 534.042 383.294 534.037 383.902 534.248C384.362 534.408 384.729 534.663 385.004 535.012L386.558 535.196L386.261 536.187L385.402 536.091C385.406 536.33 385.374 536.549 385.305 536.747C385.137 537.228 384.805 537.58 384.307 537.803C383.821 538.015 383.274 538.015 382.665 537.803L382.58 537.773C382.547 537.825 382.519 537.883 382.496 537.946C382.464 538.038 382.457 538.127 382.475 538.213L382.528 538.231C383.271 538.489 383.823 538.828 384.185 539.247C384.551 539.676 384.646 540.145 384.469 540.655C384.291 541.164 383.926 541.473 383.373 541.582C382.829 541.686 382.186 541.609 381.443 541.351C380.679 541.085 380.121 540.74 379.769 540.316C379.414 539.899 379.325 539.436 379.503 538.927ZM380.638 539.322C380.574 539.506 380.642 539.688 380.841 539.868C381.044 540.058 381.358 540.227 381.783 540.374C382.674 540.684 383.187 540.645 383.323 540.256C383.384 540.079 383.317 539.897 383.12 539.71C382.924 539.522 382.613 539.355 382.189 539.207C381.771 539.062 381.424 539.001 381.146 539.023C380.869 539.046 380.7 539.145 380.638 539.322ZM383.009 536.816C383.27 536.907 383.507 536.91 383.719 536.825C383.938 536.743 384.088 536.585 384.169 536.352C384.253 536.111 384.239 535.888 384.128 535.683C384.017 535.478 383.827 535.329 383.559 535.235C383.29 535.142 383.047 535.144 382.83 535.243C382.616 535.335 382.468 535.498 382.387 535.731C382.308 535.958 382.324 536.174 382.435 536.379C382.549 536.577 382.74 536.723 383.009 536.816Z" fill="#58DCE3"/>
<path d="M388.918 540.823C388.609 540.184 388.582 539.5 388.835 538.772C389.089 538.043 389.534 537.528 390.17 537.226C390.809 536.917 391.521 536.899 392.306 537.172C393.084 537.443 393.628 537.898 393.937 538.536C394.255 539.171 394.288 539.852 394.034 540.581C393.783 541.302 393.334 541.82 392.685 542.133C392.042 542.433 391.335 542.449 390.564 542.18C389.778 541.907 389.23 541.455 388.918 540.823ZM390.851 538.379C390.515 538.547 390.278 538.83 390.14 539.226C390.002 539.622 390.008 539.993 390.158 540.338C390.317 540.679 390.584 540.915 390.959 541.045C391.341 541.178 391.696 541.159 392.025 540.988C392.361 540.819 392.6 540.533 392.74 540.13C392.878 539.734 392.867 539.366 392.708 539.025C392.549 538.684 392.282 538.448 391.907 538.318C391.539 538.19 391.187 538.21 390.851 538.379Z" fill="#58DCE3"/>
<path d="M405.245 543.66L404.16 546.78L402.939 546.355L403.914 543.554C404.126 542.946 403.959 542.547 403.414 542.357C402.948 542.195 402.555 542.264 402.236 542.566C402.231 542.58 402.211 542.636 402.177 542.735C402.152 542.83 402.134 542.891 402.124 542.919L401.146 545.731L399.926 545.307L400.93 542.421C401.019 542.166 401.018 541.94 400.928 541.742C400.846 541.547 400.677 541.405 400.422 541.316C399.977 541.161 399.585 541.215 399.248 541.478L398.133 544.683L396.913 544.258L398.574 539.483L399.794 539.908L399.609 540.439C400.12 540.156 400.69 540.125 401.32 540.344C401.666 540.464 401.935 540.637 402.126 540.862C402.327 541.083 402.433 541.326 402.444 541.591C403.01 541.217 403.636 541.15 404.322 541.388C405.341 541.743 405.649 542.5 405.245 543.66Z" fill="#58DCE3"/>
<path d="M408.669 547.694C408.36 547.055 408.332 546.372 408.585 545.643C408.839 544.914 409.284 544.399 409.92 544.097C410.559 543.788 411.271 543.77 412.056 544.043C412.834 544.314 413.378 544.769 413.687 545.407C414.005 546.042 414.038 546.723 413.785 547.452C413.534 548.173 413.084 548.691 412.435 549.005C411.792 549.304 411.085 549.32 410.314 549.051C409.529 548.778 408.98 548.326 408.669 547.694ZM410.601 545.25C410.265 545.418 410.028 545.701 409.89 546.097C409.753 546.493 409.758 546.864 409.908 547.209C410.067 547.55 410.334 547.786 410.709 547.916C411.091 548.049 411.446 548.03 411.775 547.859C412.112 547.69 412.35 547.405 412.49 547.001C412.628 546.605 412.617 546.237 412.458 545.896C412.299 545.555 412.032 545.32 411.657 545.189C411.29 545.061 410.938 545.081 410.601 545.25Z" fill="#58DCE3"/>
<path d="M417.188 549.278L418.679 544.991L419.899 545.416L419.438 546.742L420.977 547.277L420.578 548.423L419.039 547.888L418.434 549.628C418.235 550.201 418.326 550.554 418.708 550.687C418.948 550.771 419.224 550.764 419.536 550.666L419.579 551.74C419.082 551.915 418.557 551.907 418.005 551.715C417.489 551.536 417.164 551.249 417.032 550.854C416.91 550.454 416.961 549.929 417.188 549.278Z" fill="#58DCE3"/>
<path d="M424.54 553.87L423.319 553.445L424.981 548.67L426.201 549.095L424.54 553.87ZM425.451 546.907C425.525 546.695 425.655 546.55 425.841 546.472C426.036 546.389 426.243 546.386 426.463 546.462C426.654 546.529 426.793 546.652 426.881 546.833C426.975 547.017 426.987 547.211 426.916 547.417C426.837 547.643 426.702 547.802 426.511 547.895C426.328 547.989 426.14 548.003 425.949 547.937C425.73 547.861 425.571 547.726 425.472 547.533C425.379 547.342 425.373 547.134 425.451 546.907Z" fill="#58DCE3"/>
<path d="M429.351 554.89C429.042 554.251 429.015 553.567 429.268 552.838C429.522 552.11 429.966 551.595 430.603 551.293C431.242 550.984 431.954 550.966 432.739 551.239C433.517 551.509 434.061 551.964 434.37 552.603C434.688 553.237 434.721 553.919 434.467 554.647C434.216 555.369 433.767 555.886 433.118 556.2C432.475 556.5 431.768 556.515 430.996 556.247C430.211 555.974 429.663 555.521 429.351 554.89ZM431.284 552.446C430.948 552.614 430.711 552.896 430.573 553.293C430.435 553.689 430.441 554.059 430.591 554.405C430.75 554.746 431.017 554.981 431.391 555.112C431.773 555.245 432.129 555.226 432.458 555.055C432.794 554.886 433.033 554.6 433.173 554.197C433.311 553.801 433.3 553.432 433.141 553.092C432.982 552.751 432.715 552.515 432.34 552.385C431.972 552.257 431.62 552.277 431.284 552.446Z" fill="#58DCE3"/>
<path d="M438.566 558.75L437.345 558.325L439.007 553.55L440.227 553.975L440.061 554.452C440.545 554.2 441.066 554.172 441.625 554.366C442.934 554.821 443.349 555.735 442.872 557.107L441.897 559.909L440.677 559.484L441.578 556.895C441.839 556.145 441.612 555.646 440.898 555.398C440.509 555.262 440.109 555.294 439.699 555.492L438.566 558.75Z" fill="#58DCE3"/>
<path d="M233.888 494.439L226.448 489.943L226.977 481.211L220.82 487.453L212.819 484.963L217.572 491.316L211.406 498.157L220.4 496.084L224.384 503.723L225.569 495.134L233.888 494.439Z" fill="url(#paint15_linear)" fill-opacity="0.3" stroke="#58DCE3" stroke-miterlimit="10"/>
<path d="M593.333 325.913L604.21 330.666L605.058 342.582L612.274 333.029L623.551 334.968L615.98 327.218L623.101 316.854L611.298 321.271L604.537 311.643L604.471 323.482L593.333 325.913Z" fill="url(#paint16_linear)" fill-opacity="0.3" stroke="#58DCE3" stroke-miterlimit="10"/>
<path d="M450.974 210.3L455.863 210.361L458.044 214.578L459.307 209.982L463.911 208.955L459.816 207.292L460.917 202.415L457.103 205.842L453.024 203.37L454.843 207.699L450.974 210.3Z" fill="url(#paint17_linear)" fill-opacity="0.3" stroke="#58DCE3" stroke-miterlimit="10"/>
<path d="M558.694 201.628L566.503 205.041L567.112 213.596L572.293 206.737L580.389 208.129L574.954 202.565L580.066 195.124L571.592 198.295L566.737 191.383L566.69 199.882L558.694 201.628Z" fill="url(#paint18_linear)" fill-opacity="0.3" stroke="#58DCE3" stroke-miterlimit="10"/>
<path d="M319.837 10.2996L324.727 10.3606L326.907 14.5777L328.171 9.98211L332.774 8.95457L328.679 7.29194L329.78 2.41496L325.966 5.84222L321.887 3.36989L323.706 7.69921L319.837 10.2996Z" fill="url(#paint19_linear)" fill-opacity="0.3" stroke="#58DCE3" stroke-miterlimit="10"/>
<path d="M53.3623 452.092L46.6194 448.018L47.0984 440.103L41.5192 445.761L34.2678 443.504L38.5749 449.262L32.9873 455.461L41.1379 453.582L44.7488 460.505L45.8225 452.722L53.3623 452.092Z" fill="url(#paint20_linear)" fill-opacity="0.3" stroke="#58DCE3" stroke-miterlimit="10"/>
<path d="M218.984 40.4289L210.686 41.5979L205.766 34.7494L204.965 43.1626L197.468 46.1717L204.888 48.0272L204.444 56.893L209.904 49.8691L217.532 53.1531L213.189 46.0129L218.984 40.4289Z" fill="url(#paint21_linear)" fill-opacity="0.3" stroke="#58DCE3" stroke-miterlimit="10"/>
<path d="M430.284 72.0524L438.467 75.6287L439.106 84.5942L444.534 77.4064L453.019 78.8652L447.323 73.0346L452.681 65.2366L443.8 68.5597L438.713 61.3163L438.663 70.2232L430.284 72.0524Z" fill="url(#paint22_linear)" fill-opacity="0.3" stroke="#58DCE3" stroke-miterlimit="10"/>
<path d="M110.974 540.3L115.863 540.361L118.044 544.578L119.307 539.982L123.911 538.955L119.816 537.292L120.917 532.415L117.103 535.842L113.023 533.37L114.843 537.699L110.974 540.3Z" fill="url(#paint23_linear)" fill-opacity="0.3" stroke="#58DCE3" stroke-miterlimit="10"/>
<defs>
<linearGradient id="paint0_linear" x1="17" y1="320" x2="272.5" y2="239" gradientUnits="userSpaceOnUse">
<stop stop-color="#58DCE3"/>
<stop offset="1" stop-color="#58DCE3" stop-opacity="0"/>
</linearGradient>
<linearGradient id="paint1_linear" x1="218.565" y1="174.949" x2="176.813" y2="289.027" gradientUnits="userSpaceOnUse">
<stop stop-color="#58DCE3"/>
<stop offset="1" stop-color="#58DCE3" stop-opacity="0"/>
</linearGradient>
<linearGradient id="paint2_linear" x1="207.124" y1="210.55" x2="191.208" y2="254.036" gradientUnits="userSpaceOnUse">
<stop stop-color="#58DCE3"/>
<stop offset="1" stop-color="#58DCE3" stop-opacity="0"/>
</linearGradient>
<linearGradient id="paint3_linear" x1="170.936" y1="170.127" x2="105.209" y2="349.708" gradientUnits="userSpaceOnUse">
<stop stop-color="#58DCE3"/>
<stop offset="1" stop-color="#58DCE3" stop-opacity="0"/>
</linearGradient>
<linearGradient id="paint4_linear" x1="119.08" y1="311.227" x2="99.7958" y2="363.916" gradientUnits="userSpaceOnUse">
<stop stop-color="#58DCE3"/>
<stop offset="1" stop-color="#58DCE3" stop-opacity="0"/>
</linearGradient>
<linearGradient id="paint5_linear" x1="135.13" y1="344.579" x2="113.839" y2="402.751" gradientUnits="userSpaceOnUse">
<stop stop-color="#58DCE3"/>
<stop offset="1" stop-color="#58DCE3" stop-opacity="0"/>
</linearGradient>
<linearGradient id="paint6_linear" x1="194.176" y1="208.064" x2="171.114" y2="271.076" gradientUnits="userSpaceOnUse">
<stop stop-color="#58DCE3"/>
<stop offset="1" stop-color="#58DCE3" stop-opacity="0"/>
</linearGradient>
<linearGradient id="paint7_linear" x1="425" y1="480.313" x2="383.289" y2="605.764" gradientUnits="userSpaceOnUse">
<stop stop-color="#58DCE3" stop-opacity="0"/>
<stop offset="1" stop-color="#58DCE3"/>
</linearGradient>
<linearGradient id="paint8_linear" x1="480.751" y1="323.183" x2="410.5" y2="523.313" gradientUnits="userSpaceOnUse">
<stop stop-color="#58DCE3"/>
<stop offset="1" stop-color="#58DCE3" stop-opacity="0"/>
</linearGradient>
<linearGradient id="paint9_linear" x1="482.94" y1="316.002" x2="480.514" y2="323.034" gradientUnits="userSpaceOnUse">
<stop stop-color="#58DCE3"/>
<stop offset="1" stop-color="#58DCE3" stop-opacity="0"/>
</linearGradient>
<linearGradient id="paint10_linear" x1="399.641" y1="325.924" x2="395.662" y2="337.461" gradientUnits="userSpaceOnUse">
<stop stop-color="#58DCE3"/>
<stop offset="1" stop-color="#58DCE3" stop-opacity="0"/>
</linearGradient>
<linearGradient id="paint11_linear" x1="393.315" y1="344.28" x2="385.413" y2="367.19" gradientUnits="userSpaceOnUse">
<stop stop-color="#58DCE3"/>
<stop offset="1" stop-color="#58DCE3" stop-opacity="0"/>
</linearGradient>
<linearGradient id="paint12_linear" x1="383.32" y1="373.26" x2="375.418" y2="396.171" gradientUnits="userSpaceOnUse">
<stop stop-color="#58DCE3"/>
<stop offset="1" stop-color="#58DCE3" stop-opacity="0"/>
</linearGradient>
<linearGradient id="paint13_linear" x1="536.598" y1="393.65" x2="522.576" y2="434.305" gradientUnits="userSpaceOnUse">
<stop stop-color="#58DCE3"/>
<stop offset="1" stop-color="#58DCE3" stop-opacity="0"/>
</linearGradient>
<linearGradient id="paint14_linear" x1="418.27" y1="505.77" x2="407.587" y2="525.677" gradientUnits="userSpaceOnUse">
<stop stop-color="#58DCE3"/>
<stop offset="1" stop-color="#58DCE3" stop-opacity="0"/>
</linearGradient>
<linearGradient id="paint15_linear" x1="226.843" y1="481.156" x2="218.593" y2="501.358" gradientUnits="userSpaceOnUse">
<stop stop-color="#58DCE3"/>
<stop offset="1" stop-color="#58DCE3" stop-opacity="0"/>
</linearGradient>
<linearGradient id="paint16_linear" x1="605.249" y1="342.632" x2="612.799" y2="313.808" gradientUnits="userSpaceOnUse">
<stop stop-color="#58DCE3"/>
<stop offset="1" stop-color="#58DCE3" stop-opacity="0"/>
</linearGradient>
<linearGradient id="paint17_linear" x1="458.124" y1="214.567" x2="456.513" y2="202.888" gradientUnits="userSpaceOnUse">
<stop stop-color="#58DCE3"/>
<stop offset="1" stop-color="#58DCE3" stop-opacity="0"/>
</linearGradient>
<linearGradient id="paint18_linear" x1="567.249" y1="213.632" x2="572.67" y2="192.937" gradientUnits="userSpaceOnUse">
<stop stop-color="#58DCE3"/>
<stop offset="1" stop-color="#58DCE3" stop-opacity="0"/>
</linearGradient>
<linearGradient id="paint19_linear" x1="326.987" y1="14.5666" x2="325.376" y2="2.88846" gradientUnits="userSpaceOnUse">
<stop stop-color="#58DCE3"/>
<stop offset="1" stop-color="#58DCE3" stop-opacity="0"/>
</linearGradient>
<linearGradient id="paint20_linear" x1="46.9775" y1="440.054" x2="39.5006" y2="458.362" gradientUnits="userSpaceOnUse">
<stop stop-color="#58DCE3"/>
<stop offset="1" stop-color="#58DCE3" stop-opacity="0"/>
</linearGradient>
<linearGradient id="paint21_linear" x1="205.633" y1="34.7898" x2="211.764" y2="54.9106" gradientUnits="userSpaceOnUse">
<stop stop-color="#58DCE3"/>
<stop offset="1" stop-color="#58DCE3" stop-opacity="0"/>
</linearGradient>
<linearGradient id="paint22_linear" x1="439.249" y1="84.6317" x2="444.93" y2="62.9448" gradientUnits="userSpaceOnUse">
<stop stop-color="#58DCE3"/>
<stop offset="1" stop-color="#58DCE3" stop-opacity="0"/>
</linearGradient>
<linearGradient id="paint23_linear" x1="118.124" y1="544.567" x2="116.512" y2="532.889" gradientUnits="userSpaceOnUse">
<stop stop-color="#58DCE3"/>
<stop offset="1" stop-color="#58DCE3" stop-opacity="0"/>
</linearGradient>
</defs>
</svg>
