<svg width="785" height="560" viewBox="0 0 785 560" fill="none" xmlns="http://www.w3.org/2000/svg">
<path d="M66.6002 228.32C91.0109 210.689 156.455 198.805 178.379 187.334C200.303 175.862 230.288 160.891 243.644 143.466C257 126.042 297.591 89.165 312.563 78.7702C327.536 68.3753 346.233 30.858 416.771 77.7349C487.308 124.612 498.761 121.908 536 140.198C573.239 158.487 600.855 174.716 629 191.198C657.145 207.679 736.5 208.179 751 250.698C765.5 293.216 667.778 322.163 629 391.198C590.222 460.232 569.15 477.631 540.284 496.113C511.417 514.595 466.84 529.14 423.467 495.977C380.094 462.814 376.56 419.462 312.03 393.978C263.128 374.666 166.359 335.562 141.62 318.977C127.583 309.571 78.4929 280.57 59.5195 259.868C45.056 244.085 56.0412 235.952 66.6002 228.32Z" fill="url(#paint0_linear)" fill-opacity="0.1" stroke="#58DCE3" stroke-miterlimit="10"/>
<path d="M68.4999 227.198C68.4999 227.198 72.2824 239.229 80.037 248.738C87.7915 258.248 99.5384 267.966 134.627 291.955C169.715 315.945 258.723 350.57 308.509 373.328C358.295 396.082 399.539 421.701 428.577 456.139C457.615 490.576 500.156 494.941 526.954 486.555C553.752 478.168 599.508 438.523 599.508 438.523C599.508 438.523 531.522 541.11 446.887 509.494C401.666 492.601 383.261 437.871 340.691 408.38C318.987 393.344 238.014 367.871 157.104 327.626C105.044 300.404 55.8426 259.461 53.6526 251.167C51.4626 242.872 45.988 241.04 68.4999 227.198Z" fill="url(#paint1_linear)" fill-opacity="0.1" stroke="#58DCE3" stroke-miterlimit="10"/>
<path d="M251.5 469.198C297.848 469.198 335.421 440.411 335.421 404.9C335.421 369.389 297.848 340.602 251.5 340.602C205.152 340.602 167.579 369.389 167.579 404.9C167.579 440.411 205.152 469.198 251.5 469.198Z" fill="url(#paint2_linear)" fill-opacity="0.1" stroke="#58DCE3" stroke-miterlimit="10"/>
<path d="M314.406 352.601C314.406 365.563 300.869 376.073 284.17 376.073C268.261 376.073 255.22 366.532 254.025 354.415C253.969 353.818 253.935 353.209 253.935 352.601C253.935 339.639 267.472 329.128 284.17 329.128C300.869 329.128 314.406 339.639 314.406 352.601Z" fill="url(#paint3_linear)" fill-opacity="0.1" stroke="#58DCE3" stroke-miterlimit="10"/>
<path d="M256.657 379.686C256.657 379.686 261.627 393.809 263.617 396.993C265.606 400.177 278.935 405.148 286.689 403.559C294.444 401.969 293.593 399.225 294.185 399.225C294.777 399.225 298.62 401.969 307.772 402.967C316.925 403.959 326.072 402.37 327.266 394.615C328.461 386.86 314.733 376.118 311.751 373.729C308.77 371.339 314.896 369.384 314.034 356.286C314.034 356.286 304.391 339.317 281.516 342.699C258.64 346.08 256.651 362.35 256.651 362.35C256.651 362.35 253.377 357.098 253.935 352.612C254.493 348.115 252.678 362.384 256.657 379.686Z" fill="url(#paint4_linear)" fill-opacity="0.1" stroke="#58DCE3" stroke-miterlimit="10"/>
<path d="M299.815 391.025L305.586 382.673C305.586 382.673 317.522 385.457 320.306 391.025C323.09 396.593 311.554 396.993 299.815 391.025Z" fill="url(#paint5_linear)" fill-opacity="0.1" stroke="#58DCE3" stroke-miterlimit="10"/>
<path d="M218.069 422.055C210.185 424.219 194.596 417.282 201.759 407.735C208.922 398.188 230.8 392.22 234.582 399.58C238.363 406.94 239.755 419.671 222.048 417.084C204.346 414.498 193.802 411.714 191.018 401.969C188.234 392.225 197.978 377.167 210.111 373.058C222.245 368.95 242.934 373.723 244.72 383.868C246.507 394.012 241.739 400.876 237.957 404.9C235.957 407.036 237.54 410.603 235.438 413.833C233.567 416.69 228.636 419.153 218.069 422.055Z" fill="url(#paint6_linear)" fill-opacity="0.1" stroke="#58DCE3" stroke-miterlimit="10"/>
<path d="M189.823 397.016C190.589 397.061 186.639 389.83 188.831 380.481C191.018 371.131 192.213 370.336 199.375 368.15C206.538 365.963 206.736 364.965 216.085 359.995C225.435 355.024 228.219 358.8 236.971 358.203C245.723 357.605 248.705 357.803 250.097 362.576C251.489 367.349 249.167 370.331 249.037 378.288C248.902 386.246 248.028 391.239 244.585 393.02" fill="url(#paint7_linear)" fill-opacity="0.1"/>
<path d="M189.823 397.016C190.589 397.061 186.639 389.83 188.831 380.481C191.018 371.131 192.213 370.336 199.375 368.15C206.538 365.963 206.736 364.965 216.085 359.995C225.435 355.024 228.219 358.8 236.971 358.203C245.723 357.605 248.705 357.803 250.097 362.576C251.489 367.349 249.167 370.331 249.037 378.288C248.902 386.246 248.028 391.239 244.585 393.02" stroke="#58DCE3" stroke-miterlimit="10"/>
<path d="M238.2 404.793C238.104 404.855 238.104 404.99 238.2 405.052L239.947 406.145C241.936 407.391 240.246 402.189 245.109 397.021C249.973 391.853 252.081 402.37 255.462 404.906C258.843 407.442 260.235 403.959 265.606 404.906C270.977 405.852 273.361 410.327 280.327 412.514C287.287 414.7 293.058 414.903 301.607 424.05C310.162 433.202 302.999 437.576 296.636 440.557C290.274 443.538 291.463 445.33 282.316 449.709C273.169 454.088 267.798 457.07 262.428 460.846C257.057 464.627 250.097 464.627 239.953 463.235C229.808 461.843 230.603 458.659 222.251 455.875C213.899 453.091 211.115 452.493 208.528 449.112C205.941 445.731 203.952 445.33 198.384 440.76C192.816 436.184 190.032 433.597 189.034 425.048C188.036 416.498 199.082 411.336 199.082 411.336C199.178 410.13 192.613 402.674 199.376 395.364C206.138 388.055 227.024 380.39 234.182 392.428C240.06 402.302 238.831 404.37 238.2 404.793Z" fill="url(#paint8_linear)" fill-opacity="0.1" stroke="#58DCE3" stroke-miterlimit="10"/>
<path d="M223.406 456.281C223.637 454.472 218.864 448.706 227.413 436.375C235.968 424.044 240.877 406.021 240.877 406.021" fill="url(#paint9_linear)" fill-opacity="0.1"/>
<path d="M223.406 456.281C223.637 454.472 218.864 448.706 227.413 436.375C235.968 424.044 240.877 406.021 240.877 406.021" stroke="#58DCE3" stroke-miterlimit="10"/>
<path d="M255.462 404.9C255.462 404.9 259.04 418.076 260.038 428.22C261.035 438.365 270.785 451.293 264.017 459.747" fill="url(#paint10_linear)" fill-opacity="0.1"/>
<path d="M255.462 404.9C255.462 404.9 259.04 418.076 260.038 428.22C261.035 438.365 270.785 451.293 264.017 459.747" stroke="#58DCE3" stroke-miterlimit="10"/>
<path d="M282.316 449.704C282.316 449.704 288.087 441.014 283.308 429.844C278.534 418.674 275.243 410.169 275.243 410.169" fill="url(#paint11_linear)" fill-opacity="0.1"/>
<path d="M282.316 449.704C282.316 449.704 288.087 441.014 283.308 429.844C278.534 418.674 275.243 410.169 275.243 410.169" stroke="#58DCE3" stroke-miterlimit="10"/>
<path d="M205.326 445.939C205.326 445.939 205.338 439.808 210.111 432.323C214.885 424.839 216.079 422.45 216.079 422.45" fill="url(#paint12_linear)" fill-opacity="0.1"/>
<path d="M205.326 445.939C205.326 445.939 205.338 439.808 210.111 432.323C214.885 424.839 216.079 422.45 216.079 422.45" stroke="#58DCE3" stroke-miterlimit="10"/>
<path d="M277.821 352.053C278.228 352.452 278.539 352.715 278.7 352.835C278.37 352.835 278.046 352.609 277.821 352.053C275 349.297 267.531 340.074 272.739 327.232C278.7 312.534 280.829 302.103 274.442 291.198C279.552 297.835 288.237 315.283 282.106 331.973C277.401 344.782 277.076 350.218 277.821 352.053Z" fill="url(#paint13_linear)" fill-opacity="0.1"/>
<path d="M278.7 352.835C277.423 351.886 266.779 341.93 272.739 327.232C278.7 312.534 280.829 302.103 274.442 291.198C279.552 297.835 288.237 315.283 282.106 331.973C275.975 348.662 277.281 352.835 278.7 352.835Z" stroke="#58DCE3"/>
<path d="M290.992 350.481C291.225 350.714 291.402 350.868 291.495 350.938C291.306 350.938 291.121 350.806 290.992 350.481C289.38 348.87 285.112 343.478 288.088 335.97C291.495 327.377 292.711 321.279 289.062 314.904C291.981 318.785 296.944 328.985 293.441 338.742C290.752 346.231 290.566 349.408 290.992 350.481Z" fill="url(#paint14_linear)" fill-opacity="0.1"/>
<path d="M291.495 350.938C290.765 350.384 284.682 344.563 288.088 335.97C291.495 327.377 292.711 321.279 289.062 314.904C291.981 318.785 296.944 328.985 293.441 338.742C289.937 348.499 290.684 350.938 291.495 350.938Z" stroke="#58DCE3"/>
<path d="M572.097 227.687L344.423 246.756C340.716 247.069 337.409 244.467 336.826 240.794L317.078 115.635C316.495 111.918 319.245 108.515 322.996 108.307L572.385 94.2074C575.927 94.0073 578.886 96.8793 578.79 100.43L575.361 224.25C575.3 226.051 573.899 227.54 572.097 227.687Z" fill="url(#paint15_linear)" fill-opacity="0.1" stroke="#58DCE3" stroke-miterlimit="10"/>
<path d="M609.46 319.027C610.6 322.204 608.468 325.606 605.117 325.955L344.38 353.378C340.507 353.77 337.156 350.706 337.191 346.816L338.035 251.839C338.061 249.376 339.95 247.33 342.404 247.122L571.192 228.044C574.473 227.774 577.502 229.828 578.459 232.979L609.46 319.027Z" fill="url(#paint16_linear)" fill-opacity="0.1" stroke="#58DCE3" stroke-miterlimit="10"/>
<path d="M354.493 252.831L563.534 234.833C565.675 234.65 567.659 235.964 568.329 238.009L581.245 277.6C582.019 279.976 580.392 282.465 577.903 282.7L355.407 303.788C353.336 303.988 351.543 302.378 351.508 300.298L350.812 256.93C350.768 254.798 352.378 253.005 354.493 252.831Z" fill="url(#paint17_linear)" fill-opacity="0.1" stroke="#58DCE3" stroke-miterlimit="10"/>
<path d="M429.296 300.237L509.496 292.212C511.585 292.004 513.499 293.361 513.995 295.398L521.132 324.623C521.558 326.355 520.357 328.069 518.582 328.261L433.126 337.712C432.073 337.826 431.124 337.068 431.002 336.015L427.356 302.621C427.234 301.429 428.095 300.359 429.296 300.237Z" fill="url(#paint18_linear)" fill-opacity="0.1" stroke="#58DCE3" stroke-miterlimit="10"/>
<path d="M366.738 257.478L355.163 258.453C354.989 258.47 354.832 258.331 354.832 258.157L354.789 255.659C354.78 255.32 355.041 255.033 355.389 254.998L366.695 254.101C366.869 254.084 367.025 254.232 367.025 254.406V257.174C367.025 257.33 366.904 257.461 366.738 257.478Z" fill="url(#paint19_linear)" fill-opacity="0.1" stroke="#58DCE3" stroke-miterlimit="10"/>
<path d="M383.161 255.598C383.161 255.746 383.048 256.068 382.9 256.077L371.307 256.738C371.133 256.756 370.977 256.617 370.977 256.443L370.916 253.953C370.907 253.614 371.168 253.318 371.507 253.292L382.778 252.509C382.952 252.491 383.144 252.7 383.144 252.883L383.161 255.598Z" fill="url(#paint20_linear)" fill-opacity="0.1" stroke="#58DCE3" stroke-miterlimit="10"/>
<path d="M398.766 254.441C398.766 254.589 398.653 254.711 398.505 254.728L386.929 255.633C386.755 255.651 386.599 255.52 386.59 255.346L386.459 252.509C386.442 252.169 386.66 252.004 386.999 251.969L398.339 250.986C398.513 250.968 398.67 251.108 398.679 251.282L398.766 254.441Z" fill="url(#paint21_linear)" fill-opacity="0.1" stroke="#58DCE3" stroke-miterlimit="10"/>
<path d="M414.153 253.431C414.161 253.579 414.048 253.71 413.9 253.719L402.334 254.737C402.16 254.754 402.003 254.624 401.995 254.45L401.838 251.621C401.82 251.282 402.029 251.116 402.369 251.073L413.7 249.976C413.874 249.959 414.04 250.089 414.04 250.272L414.153 253.431Z" fill="url(#paint22_linear)" fill-opacity="0.1" stroke="#58DCE3" stroke-miterlimit="10"/>
<path d="M429.644 252.213C429.653 252.361 429.54 252.491 429.392 252.5L417.826 253.501C417.652 253.518 417.495 253.388 417.486 253.214L417.338 250.385C417.321 250.046 417.53 249.88 417.869 249.837L429.201 248.758C429.375 248.74 429.54 248.871 429.54 249.054L429.644 252.213Z" fill="url(#paint23_linear)" fill-opacity="0.1" stroke="#58DCE3" stroke-miterlimit="10"/>
<path d="M445.38 250.733C445.38 250.881 445.275 251.003 445.127 251.021L433.552 251.943C433.378 251.961 433.222 251.83 433.213 251.656L433.082 248.819C433.065 248.479 433.274 248.314 433.622 248.27L444.962 247.27C445.136 247.252 445.293 247.391 445.302 247.565L445.38 250.733Z" fill="url(#paint24_linear)" fill-opacity="0.1" stroke="#58DCE3" stroke-miterlimit="10"/>
<path d="M460.898 249.115C460.906 249.263 460.793 249.393 460.645 249.402L449.079 250.359C448.905 250.377 448.748 250.246 448.739 250.072L448.6 247.235C448.583 246.895 448.791 246.73 449.131 246.686L460.462 245.651C460.636 245.633 460.793 245.764 460.802 245.947L460.898 249.115Z" fill="url(#paint25_linear)" fill-opacity="0.1" stroke="#58DCE3" stroke-miterlimit="10"/>
<path d="M476.024 247.905C476.024 248.053 475.919 248.175 475.771 248.192L464.196 249.115C464.022 249.132 463.865 249.001 463.857 248.827L463.726 245.99C463.709 245.651 463.917 245.485 464.266 245.451L475.606 244.45C475.78 244.432 475.936 244.571 475.945 244.746L476.024 247.905Z" fill="url(#paint26_linear)" fill-opacity="0.1" stroke="#58DCE3" stroke-miterlimit="10"/>
<path d="M490.775 246.521C490.775 246.669 490.671 246.791 490.523 246.808L478.948 247.731C478.774 247.748 478.617 247.618 478.608 247.444L478.478 244.606C478.46 244.267 478.669 244.102 479.017 244.058L490.358 243.057C490.532 243.04 490.688 243.179 490.697 243.353L490.775 246.521Z" fill="url(#paint27_linear)" fill-opacity="0.1" stroke="#58DCE3" stroke-miterlimit="10"/>
<path d="M506.284 244.902C506.293 245.05 506.18 245.181 506.032 245.189L494.466 246.147C494.291 246.164 494.135 246.034 494.126 245.86L493.987 243.022C493.969 242.683 494.178 242.518 494.518 242.474L505.849 241.438C506.023 241.421 506.18 241.552 506.189 241.734L506.284 244.902Z" fill="url(#paint28_linear)" fill-opacity="0.1" stroke="#58DCE3" stroke-miterlimit="10"/>
<path d="M521.419 243.692C521.419 243.84 521.315 243.962 521.167 243.98L509.591 244.902C509.417 244.92 509.261 244.789 509.252 244.615L509.121 241.778C509.104 241.438 509.313 241.273 509.661 241.238L521.001 240.237C521.167 240.211 521.419 243.692 521.419 243.692Z" fill="url(#paint29_linear)" fill-opacity="0.1" stroke="#58DCE3" stroke-miterlimit="10"/>
<path d="M536.127 242.578C536.127 242.726 536.023 242.848 535.875 242.866L524.3 243.788C524.126 243.806 523.969 243.675 523.96 243.501L523.83 240.664C523.812 240.324 524.021 240.159 524.369 240.116L535.71 239.115C535.884 239.106 536.127 242.578 536.127 242.578Z" fill="url(#paint30_linear)" fill-opacity="0.1" stroke="#58DCE3" stroke-miterlimit="10"/>
<path d="M550.844 240.96C550.853 241.108 550.74 241.229 550.592 241.247L539.025 242.204C538.851 242.222 538.695 242.091 538.686 241.917L538.399 238.662C538.381 238.323 550.409 237.505 550.409 237.505C550.592 237.478 550.844 240.96 550.844 240.96Z" fill="url(#paint31_linear)" fill-opacity="0.1" stroke="#58DCE3" stroke-miterlimit="10"/>
<path d="M564.839 239.854C564.839 240.002 553.377 240.96 553.377 240.96C553.203 240.977 552.907 237.835 552.907 237.835C552.89 237.496 553.098 237.331 553.447 237.296L563.995 236.364C564.169 236.338 564.839 239.854 564.839 239.854Z" fill="url(#paint32_linear)" fill-opacity="0.1" stroke="#58DCE3" stroke-miterlimit="10"/>
<path d="M401.525 256.521L412.23 255.624C412.473 255.607 412.691 255.781 412.717 256.034L413.152 260.899C413.178 261.142 412.987 261.369 412.743 261.386L401.594 262.317C401.333 262.343 401.107 262.134 401.107 261.873V256.973C401.116 256.73 401.298 256.538 401.525 256.521Z" fill="url(#paint33_linear)" fill-opacity="0.1" stroke="#58DCE3" stroke-miterlimit="10"/>
<path d="M416.59 255.085L427.295 254.188C427.538 254.171 427.756 254.345 427.782 254.598L428.217 259.463C428.243 259.706 428.052 259.933 427.808 259.95L416.659 260.881C416.398 260.907 416.172 260.698 416.172 260.437V255.537C416.181 255.294 416.355 255.102 416.59 255.085Z" fill="url(#paint34_linear)" fill-opacity="0.1" stroke="#58DCE3" stroke-miterlimit="10"/>
<path d="M431.585 253.701L442.29 252.805C442.534 252.787 442.751 252.961 442.777 253.214L443.213 258.079C443.239 258.322 443.047 258.549 442.804 258.566L431.655 259.497C431.394 259.523 431.167 259.315 431.167 259.054V254.154C431.176 253.91 431.35 253.718 431.585 253.701Z" fill="url(#paint35_linear)" fill-opacity="0.1" stroke="#58DCE3" stroke-miterlimit="10"/>
<path d="M446.511 252.465L457.216 251.569C457.46 251.551 457.677 251.725 457.703 251.978L458.139 256.843C458.165 257.087 457.973 257.313 457.73 257.33L446.581 258.262C446.32 258.288 446.094 258.079 446.094 257.818V252.918C446.102 252.683 446.276 252.483 446.511 252.465Z" fill="url(#paint36_linear)" fill-opacity="0.1" stroke="#58DCE3" stroke-miterlimit="10"/>
<path d="M461.576 251.029L472.281 250.133C472.525 250.115 472.743 250.289 472.769 250.542L473.204 255.407C473.23 255.651 473.038 255.877 472.795 255.894L461.646 256.826C461.385 256.852 461.159 256.643 461.159 256.382V251.482C461.159 251.238 461.341 251.047 461.576 251.029Z" fill="url(#paint37_linear)" fill-opacity="0.1" stroke="#58DCE3" stroke-miterlimit="10"/>
<path d="M476.337 249.663L487.277 248.74C487.52 248.723 487.738 248.897 487.764 249.149L488.199 254.014C488.225 254.258 488.034 254.484 487.79 254.502L476.641 255.433C476.38 255.459 476.154 255.25 476.154 254.989L476.023 250.403C476.023 250.168 476.102 249.68 476.337 249.663Z" fill="url(#paint38_linear)" fill-opacity="0.1" stroke="#58DCE3" stroke-miterlimit="10"/>
<path d="M355.198 260.542L365.903 259.645C366.147 259.628 366.364 259.802 366.39 260.054L366.825 264.919C366.851 265.163 366.66 265.389 366.416 265.407L355.268 266.338C355.006 266.364 354.78 266.155 354.78 265.894V260.994C354.789 260.759 354.963 260.559 355.198 260.542Z" fill="url(#paint39_linear)" fill-opacity="0.1" stroke="#58DCE3" stroke-miterlimit="10"/>
<path d="M370.254 259.106L380.959 258.209C381.203 258.192 381.42 258.366 381.446 258.618L381.882 263.483C381.908 263.727 381.716 263.953 381.473 263.971L370.324 264.902C370.063 264.928 369.836 264.719 369.836 264.458V259.55C369.845 259.315 370.028 259.123 370.254 259.106Z" fill="url(#paint40_linear)" fill-opacity="0.1" stroke="#58DCE3" stroke-miterlimit="10"/>
<path d="M385.25 257.722L395.955 256.826C396.198 256.808 396.416 256.982 396.442 257.235L396.877 262.1C396.903 262.343 396.712 262.57 396.468 262.587L385.319 263.518C385.058 263.544 384.832 263.335 384.832 263.074V258.175C384.841 257.94 385.023 257.739 385.25 257.722Z" fill="url(#paint41_linear)" fill-opacity="0.1" stroke="#58DCE3" stroke-miterlimit="10"/>
<path d="M379.332 266.033L390.037 265.137C390.28 265.12 390.498 265.294 390.524 265.546L390.959 270.411C390.985 270.655 390.794 270.881 390.55 270.899L379.401 271.83C379.14 271.856 378.914 271.647 378.914 271.386V266.486C378.923 266.251 379.105 266.06 379.332 266.033Z" fill="url(#paint42_linear)" fill-opacity="0.1" stroke="#58DCE3" stroke-miterlimit="10"/>
<path d="M394.397 264.597L405.102 263.701C405.345 263.684 405.563 263.858 405.589 264.11L406.024 268.975C406.05 269.219 405.859 269.445 405.615 269.463L394.466 270.394C394.205 270.42 393.979 270.211 393.979 269.95V265.05C393.988 264.815 394.162 264.615 394.397 264.597Z" fill="url(#paint43_linear)" fill-opacity="0.1" stroke="#58DCE3" stroke-miterlimit="10"/>
<path d="M409.392 263.214L420.097 262.317C420.341 262.3 420.558 262.474 420.584 262.726L421.02 267.591C421.046 267.835 420.854 268.061 420.611 268.079L409.462 269.01C409.201 269.036 408.974 268.827 408.974 268.566V263.666C408.983 263.431 409.157 263.231 409.392 263.214Z" fill="url(#paint44_linear)" fill-opacity="0.1" stroke="#58DCE3" stroke-miterlimit="10"/>
<path d="M424.745 262.422L435.45 261.525C435.693 261.508 435.911 261.682 435.937 261.934L436.372 266.799C436.398 267.043 436.207 267.269 435.963 267.287L424.814 268.218C424.553 268.244 424.327 268.035 424.327 267.774V262.874C424.336 262.639 424.51 262.448 424.745 262.422Z" fill="url(#paint45_linear)" fill-opacity="0.1" stroke="#58DCE3" stroke-miterlimit="10"/>
<path d="M439.81 260.986L450.514 260.089C450.758 260.072 450.976 260.246 451.002 260.498L451.437 265.363C451.463 265.607 451.272 265.833 451.028 265.851L439.879 266.782C439.618 266.808 439.392 266.599 439.392 266.338V261.438C439.392 261.195 439.575 261.003 439.81 260.986Z" fill="url(#paint46_linear)" fill-opacity="0.1" stroke="#58DCE3" stroke-miterlimit="10"/>
<path d="M454.805 259.602L465.51 258.705C465.754 258.688 465.971 258.862 465.998 259.114L466.433 263.98C466.459 264.223 466.267 264.449 466.024 264.467L454.875 265.398C454.614 265.424 454.388 265.215 454.388 264.954V260.054C454.388 259.819 454.57 259.619 454.805 259.602Z" fill="url(#paint47_linear)" fill-opacity="0.1" stroke="#58DCE3" stroke-miterlimit="10"/>
<path d="M469.766 258.148L480.706 257.226C480.949 257.208 481.167 257.383 481.193 257.635L481.628 262.5C481.654 262.744 481.463 262.97 481.219 262.987L470.071 263.919C469.809 263.945 469.583 263.736 469.583 263.475L469.2 258.671C469.209 258.436 469.531 258.175 469.766 258.148Z" fill="url(#paint48_linear)" fill-opacity="0.1" stroke="#58DCE3" stroke-miterlimit="10"/>
<path d="M484.84 256.225L495.901 255.32C496.145 255.303 496.363 255.477 496.389 255.729L496.824 260.594C496.85 260.838 496.659 261.064 496.415 261.081L485.266 262.013C485.005 262.039 484.779 261.83 484.779 261.569L484.526 256.765C484.535 256.53 484.605 256.251 484.84 256.225Z" fill="url(#paint49_linear)" fill-opacity="0.1" stroke="#58DCE3" stroke-miterlimit="10"/>
<path d="M500.192 254.841L510.897 253.945C511.141 253.927 511.358 254.101 511.384 254.354L511.82 259.219C511.846 259.463 511.654 259.689 511.411 259.706L500.262 260.638C500.001 260.664 499.774 260.455 499.774 260.194V255.294C499.783 255.059 499.957 254.867 500.192 254.841Z" fill="url(#paint50_linear)" fill-opacity="0.1" stroke="#58DCE3" stroke-miterlimit="10"/>
<path d="M514.309 253.788L525.318 252.97C525.562 252.953 525.779 253.127 525.805 253.379L526.241 258.244C526.267 258.488 526.075 258.714 525.832 258.732L514.683 259.663C514.422 259.689 514.195 259.48 514.195 259.219L513.926 254.249C513.926 254.014 514.074 253.806 514.309 253.788Z" fill="url(#paint51_linear)" fill-opacity="0.1" stroke="#58DCE3" stroke-miterlimit="10"/>
<path d="M529.269 252.561L540.375 251.534C540.618 251.517 540.836 251.691 540.862 251.943L541.297 256.808C541.323 257.052 541.132 257.278 540.888 257.296L529.739 258.227C529.478 258.253 529.252 258.044 529.252 257.783L528.791 252.979C528.799 252.744 529.043 252.587 529.269 252.561Z" fill="url(#paint52_linear)" fill-opacity="0.1" stroke="#58DCE3" stroke-miterlimit="10"/>
<path d="M544.334 251.047L554.917 250.159C555.161 250.142 555.544 250.324 555.57 250.568L556.292 255.433C556.319 255.677 556.127 255.903 555.883 255.92L544.735 256.852C544.474 256.878 544.247 256.669 544.247 256.408L543.882 251.63C543.891 251.386 544.099 251.064 544.334 251.047Z" fill="url(#paint53_linear)" fill-opacity="0.1" stroke="#58DCE3" stroke-miterlimit="10"/>
<path d="M557.929 249.663L568.033 248.766C568.277 248.749 568.642 248.906 568.669 249.149L569.896 254.041C569.922 254.284 569.73 254.51 569.487 254.528L558.982 255.459C558.721 255.485 558.225 255.285 558.225 255.024L557.494 250.229C557.494 250.002 557.703 249.68 557.929 249.663Z" fill="url(#paint54_linear)" fill-opacity="0.1" stroke="#58DCE3" stroke-miterlimit="10"/>
<path d="M547.972 243.518C547.946 243.353 548.068 243.205 548.233 243.188L566.319 241.517C566.562 241.499 566.928 241.656 566.954 241.9L568.181 246.791C568.207 247.034 568.016 247.261 567.772 247.278L548.999 249.08C548.843 249.097 548.703 248.984 548.677 248.827L547.972 243.518Z" fill="url(#paint55_linear)" fill-opacity="0.1" stroke="#58DCE3" stroke-miterlimit="10"/>
<path d="M491.176 248.279L501.846 247.417C502.089 247.4 502.377 247.626 502.394 247.87L502.803 252.448C502.829 252.692 502.638 252.918 502.394 252.935L491.245 253.866C490.984 253.893 490.758 253.684 490.758 253.423L490.645 248.853C490.653 248.627 490.941 248.296 491.176 248.279Z" fill="url(#paint56_linear)" fill-opacity="0.1" stroke="#58DCE3" stroke-miterlimit="10"/>
<path d="M517.468 246.504L517.72 251.195C517.746 251.438 517.581 251.49 517.337 251.508L506.319 252.43C506.058 252.457 505.832 252.248 505.832 251.987L505.431 247.539C505.414 247.339 505.562 247.165 505.762 247.148L517.076 246.182C517.276 246.155 517.45 246.303 517.468 246.504Z" fill="url(#paint57_linear)" fill-opacity="0.1" stroke="#58DCE3" stroke-miterlimit="10"/>
<path d="M520.34 246.129L530.958 245.233C531.158 245.216 531.341 245.364 531.367 245.564L531.959 250.298C531.985 250.516 531.828 250.707 531.611 250.725L520.871 251.499C520.662 251.517 520.488 251.36 520.47 251.16L520.001 246.538C519.974 246.338 520.131 246.147 520.34 246.129Z" fill="url(#paint58_linear)" fill-opacity="0.1" stroke="#58DCE3" stroke-miterlimit="10"/>
<path d="M383.57 274.11L394.275 273.214C394.519 273.196 394.736 273.37 394.762 273.623L395.197 278.488C395.224 278.731 395.032 278.958 394.788 278.975L383.64 279.906C383.379 279.932 383.152 279.723 383.152 279.462V274.563C383.161 274.328 383.335 274.136 383.57 274.11Z" fill="url(#paint59_linear)" fill-opacity="0.1" stroke="#58DCE3" stroke-miterlimit="10"/>
<path d="M398.635 272.674L409.34 271.778C409.584 271.76 409.801 271.934 409.828 272.187L410.263 277.052C410.289 277.295 410.097 277.522 409.854 277.539L398.705 278.47C398.444 278.496 398.218 278.287 398.218 278.026V273.127C398.218 272.892 398.4 272.691 398.635 272.674Z" fill="url(#paint60_linear)" fill-opacity="0.1" stroke="#58DCE3" stroke-miterlimit="10"/>
<path d="M413.631 271.29L424.336 270.394C424.579 270.376 424.797 270.55 424.823 270.803L425.258 275.668C425.284 275.912 425.093 276.138 424.849 276.155L413.7 277.086C413.439 277.113 413.213 276.904 413.213 276.643V271.743C413.213 271.508 413.396 271.316 413.631 271.29Z" fill="url(#paint61_linear)" fill-opacity="0.1" stroke="#58DCE3" stroke-miterlimit="10"/>
<path d="M430.054 270.063L440.758 269.167C441.002 269.149 441.22 269.323 441.246 269.576L441.681 274.441C441.707 274.684 441.516 274.911 441.272 274.928L430.123 275.859C429.862 275.885 429.636 275.677 429.636 275.415V270.516C429.644 270.272 429.819 270.08 430.054 270.063Z" fill="url(#paint62_linear)" fill-opacity="0.1" stroke="#58DCE3" stroke-miterlimit="10"/>
<path d="M445.119 268.618L455.824 267.722C456.067 267.704 456.285 267.879 456.311 268.131L456.746 272.996C456.772 273.24 456.581 273.466 456.337 273.483L445.188 274.415C444.927 274.441 444.701 274.232 444.701 273.971V269.071C444.71 268.836 444.884 268.636 445.119 268.618Z" fill="url(#paint63_linear)" fill-opacity="0.1" stroke="#58DCE3" stroke-miterlimit="10"/>
<path d="M460.114 267.234L470.819 266.338C471.063 266.321 471.28 266.495 471.306 266.747L471.742 271.612C471.768 271.856 471.576 272.082 471.333 272.1L460.184 273.031C459.923 273.057 459.696 272.848 459.696 272.587V267.687C459.705 267.452 459.879 267.261 460.114 267.234Z" fill="url(#paint64_linear)" fill-opacity="0.1" stroke="#58DCE3" stroke-miterlimit="10"/>
<path d="M475.51 265.746L486.215 264.85C486.458 264.832 486.676 265.006 486.702 265.259L487.137 270.124C487.163 270.368 486.972 270.594 486.728 270.611L475.58 271.543C475.318 271.569 475.092 271.36 475.092 271.099V266.199C475.101 265.955 475.275 265.764 475.51 265.746Z" fill="url(#paint65_linear)" fill-opacity="0.1" stroke="#58DCE3" stroke-miterlimit="10"/>
<path d="M490.575 264.302L501.28 263.405C501.524 263.388 501.741 263.562 501.767 263.814L502.202 268.679C502.229 268.923 502.037 269.149 501.793 269.167L490.645 270.098C490.384 270.124 490.157 269.915 490.157 269.654V264.754C490.157 264.519 490.34 264.328 490.575 264.302Z" fill="url(#paint66_linear)" fill-opacity="0.1" stroke="#58DCE3" stroke-miterlimit="10"/>
<path d="M505.571 262.926L516.275 262.03C516.519 262.013 516.737 262.187 516.763 262.439L517.198 267.304C517.224 267.548 517.033 267.774 516.789 267.791L505.64 268.723C505.379 268.749 505.153 268.54 505.153 268.279V263.379C505.153 263.135 505.336 262.944 505.571 262.926Z" fill="url(#paint67_linear)" fill-opacity="0.1" stroke="#58DCE3" stroke-miterlimit="10"/>
<path d="M391.377 281.499L402.082 280.603C402.325 280.585 402.543 280.759 402.569 281.012L403.004 285.877C403.03 286.12 402.839 286.347 402.595 286.364L391.446 287.295C391.185 287.321 390.959 287.112 390.959 286.851V281.951C390.968 281.708 391.142 281.516 391.377 281.499Z" fill="url(#paint68_linear)" fill-opacity="0.1" stroke="#58DCE3" stroke-miterlimit="10"/>
<path d="M407.312 280.054L418.017 279.158C418.261 279.14 418.478 279.314 418.505 279.567L418.94 284.432C418.966 284.676 418.774 284.902 418.531 284.919L407.382 285.851C407.121 285.877 406.895 285.668 406.895 285.407V280.507C406.903 280.272 407.077 280.08 407.312 280.054Z" fill="url(#paint69_linear)" fill-opacity="0.1" stroke="#58DCE3" stroke-miterlimit="10"/>
<path d="M424.048 278.679L434.231 277.783C434.701 277.783 434.675 277.939 434.692 278.183L434.805 283.057C434.832 283.301 434.64 283.527 434.396 283.544L423.248 284.475C422.987 284.502 422.76 284.293 422.76 284.032V279.132C422.769 278.888 422.943 278.697 424.048 278.679Z" fill="url(#paint70_linear)" fill-opacity="0.1" stroke="#58DCE3" stroke-miterlimit="10"/>
<path d="M438.374 277.435L449.079 276.538C449.322 276.521 449.54 276.695 449.566 276.947L450.001 281.812C450.027 282.056 449.836 282.282 449.592 282.3L438.443 283.231C438.182 283.257 437.956 283.048 437.956 282.787V277.887C437.965 277.643 438.139 277.452 438.374 277.435Z" fill="url(#paint71_linear)" fill-opacity="0.1" stroke="#58DCE3" stroke-miterlimit="10"/>
<path d="M454.309 275.99L465.014 275.093C465.258 275.076 465.475 275.25 465.501 275.502L465.937 280.368C465.963 280.611 465.771 280.838 465.528 280.855L454.797 281.751C454.536 281.777 454.179 281.595 454.179 281.334L453.891 276.442C453.891 276.207 454.074 276.016 454.309 275.99Z" fill="url(#paint72_linear)" fill-opacity="0.1" stroke="#58DCE3" stroke-miterlimit="10"/>
<path d="M469.305 274.615L480.01 273.718C480.253 273.701 480.471 273.875 480.497 274.127L480.932 278.992C480.958 279.236 480.767 279.462 480.523 279.48L469.374 280.411C469.113 280.437 468.887 280.228 468.887 279.967V275.067C468.887 274.824 469.07 274.632 469.305 274.615Z" fill="url(#paint73_linear)" fill-opacity="0.1" stroke="#58DCE3" stroke-miterlimit="10"/>
<path d="M484.518 272.778L495.223 271.882C495.466 271.865 495.684 272.039 495.71 272.291L496.145 277.156C496.171 277.4 495.98 277.626 495.736 277.643L485.205 278.522C484.944 278.549 484.683 278.357 484.683 278.096L484.1 273.231C484.109 272.996 484.283 272.804 484.518 272.778Z" fill="url(#paint74_linear)" fill-opacity="0.1" stroke="#58DCE3" stroke-miterlimit="10"/>
<path d="M499.583 271.342L510.288 270.446C510.531 270.428 510.749 270.603 510.775 270.855L511.21 275.72C511.236 275.964 511.045 276.19 510.801 276.207L500.575 277.06C500.314 277.086 499.774 277.113 499.774 276.851L499.165 271.795C499.165 271.56 499.348 271.36 499.583 271.342Z" fill="url(#paint75_linear)" fill-opacity="0.1" stroke="#58DCE3" stroke-miterlimit="10"/>
<path d="M514.578 269.959L525.283 269.062C525.527 269.045 525.745 269.219 525.771 269.471L526.206 274.336C526.232 274.58 526.04 274.806 525.797 274.824L515.614 275.755C515.353 275.781 514.77 275.494 514.77 275.224L514.161 270.402C514.161 270.176 514.343 269.985 514.578 269.959Z" fill="url(#paint76_linear)" fill-opacity="0.1" stroke="#58DCE3" stroke-miterlimit="10"/>
<path d="M529.034 268.792L540.07 267.905C540.314 267.887 540.531 268.061 540.557 268.314L541.306 273.248C541.332 273.492 541.227 273.684 540.975 273.71L529.791 274.667C529.53 274.693 529.252 274.528 529.252 274.258L528.677 269.236C528.686 268.993 528.799 268.81 529.034 268.792Z" fill="url(#paint77_linear)" fill-opacity="0.1" stroke="#58DCE3" stroke-miterlimit="10"/>
<path d="M502.446 279.706L515.98 278.34C516.354 278.296 516.554 278.549 516.641 278.905L517.677 284.266C517.79 284.702 517.494 285.137 517.041 285.189L503.369 286.843C502.96 286.895 502.594 286.608 502.542 286.199L501.793 280.542C501.733 280.133 502.028 279.75 502.446 279.706Z" fill="url(#paint78_linear)" fill-opacity="0.1" stroke="#58DCE3" stroke-miterlimit="10"/>
<path d="M424.431 287.199L496.868 280.481C497.355 280.437 497.799 280.768 497.903 281.247L498.948 286.225C499.069 286.79 498.669 287.33 498.095 287.382L424.988 294.162C424.449 294.214 423.979 293.814 423.935 293.274L423.561 288.235C423.518 287.713 423.909 287.252 424.431 287.199Z" fill="url(#paint79_linear)" fill-opacity="0.1" stroke="#58DCE3" stroke-miterlimit="10"/>
<path d="M404.153 288.488C406.903 288.313 416.964 287.574 419.688 287.374C420.071 287.347 420.393 287.626 420.428 288.009L420.968 294.327C421.002 294.71 420.715 295.05 420.323 295.076L404.545 296.207C404.153 296.233 403.822 295.937 403.805 295.546L403.509 289.219C403.483 288.836 403.77 288.514 404.153 288.488Z" fill="url(#paint80_linear)" fill-opacity="0.1" stroke="#58DCE3" stroke-miterlimit="10"/>
<path d="M388.235 289.984C390.228 289.837 397.748 289.193 399.819 289.01C400.115 288.984 400.358 289.21 400.376 289.497L400.776 296.364C400.794 296.651 400.576 296.895 400.298 296.912L388.313 297.826C388.009 297.852 387.756 297.608 387.756 297.304V290.498C387.756 290.228 387.965 290.002 388.235 289.984Z" fill="url(#paint81_linear)" fill-opacity="0.1" stroke="#58DCE3" stroke-miterlimit="10"/>
<path d="M372.778 291.142L383.431 290.115C384.057 290.054 384.606 290.533 384.632 291.159L384.893 297.182C384.919 297.774 384.475 298.279 383.883 298.322L372.961 299.175C372.326 299.227 371.777 298.722 371.777 298.078V292.23C371.786 291.673 372.212 291.194 372.778 291.142Z" fill="url(#paint82_linear)" fill-opacity="0.1" stroke="#58DCE3" stroke-miterlimit="10"/>
<path d="M368.253 292.117V299.306C368.253 299.61 368.018 299.863 367.713 299.88L356.451 300.672C356.129 300.698 355.851 300.446 355.833 300.115L355.572 293.022C355.563 292.709 355.798 292.447 356.103 292.421L367.626 291.542C367.965 291.516 368.253 291.786 368.253 292.117Z" fill="url(#paint83_linear)" fill-opacity="0.1" stroke="#58DCE3" stroke-miterlimit="10"/>
<path d="M355.798 284.232L387.112 281.812C387.46 281.786 387.756 282.056 387.756 282.404V287.452C387.756 287.765 387.521 288.018 387.208 288.044L355.894 290.646C355.546 290.672 355.25 290.402 355.25 290.054V284.815C355.25 284.519 355.485 284.258 355.798 284.232Z" fill="url(#paint84_linear)" fill-opacity="0.1" stroke="#58DCE3" stroke-miterlimit="10"/>
<path d="M355.581 276.059L378.827 274.345C379.192 274.319 379.506 274.606 379.506 274.98V280.011C379.506 280.341 379.253 280.62 378.923 280.646L355.711 282.439C355.346 282.465 355.033 282.178 355.033 281.812L354.998 276.703C354.998 276.364 355.25 276.086 355.581 276.059Z" fill="url(#paint85_linear)" fill-opacity="0.1" stroke="#58DCE3" stroke-miterlimit="10"/>
<path d="M355.711 274.214L374.771 272.639C375.224 272.604 375.563 272.221 375.554 271.769L375.441 267.243C375.433 266.756 375.006 266.373 374.519 266.416L355.572 267.992C355.128 268.026 354.789 268.401 354.789 268.845V273.379C354.789 273.866 355.215 274.258 355.711 274.214Z" fill="url(#paint86_linear)" fill-opacity="0.1" stroke="#58DCE3" stroke-miterlimit="10"/>
<path d="M324.067 112.667L571.984 98.5851C573.89 98.4807 575.483 100.021 575.431 101.927L572.245 220.464C572.202 222.126 570.905 223.493 569.251 223.632L345.128 241.952C343.44 242.091 341.925 240.907 341.647 239.236L321.038 116.47C320.716 114.555 322.135 112.78 324.067 112.667Z" fill="url(#paint87_linear)" fill-opacity="0.1" stroke="#58DCE3" stroke-miterlimit="10"/>
<path d="M536.536 283.884L548.251 282.848C548.538 282.822 548.73 282.535 548.643 282.256L547.555 278.897C547.494 278.697 547.302 278.575 547.093 278.583L535.892 279.445C535.631 279.462 535.44 279.706 535.483 279.967L536.058 283.509C536.093 283.736 536.301 283.901 536.536 283.884Z" fill="url(#paint88_linear)" fill-opacity="0.1" stroke="#58DCE3" stroke-miterlimit="10"/>
<path d="M566.649 281.229L578.364 280.193C578.651 280.167 578.842 279.88 578.755 279.602L577.667 276.242C577.606 276.042 577.415 275.92 577.206 275.929L565.631 276.921C565.37 276.938 565.335 277.043 565.379 277.304L566.171 280.855C566.205 281.09 566.414 281.255 566.649 281.229Z" fill="url(#paint89_linear)" fill-opacity="0.1" stroke="#58DCE3" stroke-miterlimit="10"/>
<path d="M551.732 282.683L563.621 281.638C563.908 281.612 564.099 281.325 564.012 281.046L562.924 277.687C562.863 277.487 562.672 277.365 562.463 277.374L551.036 278.366C550.775 278.383 550.653 278.496 550.696 278.757L551.323 282.308C551.358 282.552 551.497 282.7 551.732 282.683Z" fill="url(#paint90_linear)" fill-opacity="0.1" stroke="#58DCE3" stroke-miterlimit="10"/>
<path d="M550.644 277.121L561.723 276.19C562.011 276.164 562.298 276.234 562.298 275.781L561.549 273.544C561.549 273.544 561.427 273.013 561.219 273.031L550.122 274.023C549.861 274.04 549.617 274.093 549.661 274.354L550.052 276.547C550.157 277.156 550.409 277.147 550.644 277.121Z" fill="url(#paint91_linear)" fill-opacity="0.1" stroke="#58DCE3" stroke-miterlimit="10"/>
<path d="M520.94 277.774C523.003 277.6 529.217 277.095 531.001 276.904C531.262 276.878 531.593 277.113 531.663 277.365L533.299 283.266C533.386 283.588 533.168 283.91 532.838 283.936L521.985 284.85C521.724 284.876 521.48 284.702 521.428 284.441L520.584 278.383C520.505 278.079 520.618 277.8 520.94 277.774Z" fill="url(#paint92_linear)" fill-opacity="0.1" stroke="#58DCE3" stroke-miterlimit="10"/>
<path d="M544.004 267.417L573.307 264.336C573.472 264.319 573.629 264.423 573.673 264.58L575.326 270.08C575.378 270.263 575.257 270.455 575.065 270.472L544.891 273.231C544.709 273.248 544.552 273.118 544.517 272.944L543.699 267.809C543.673 267.626 543.812 267.443 544.004 267.417Z" fill="url(#paint93_linear)" fill-opacity="0.1" stroke="#58DCE3" stroke-miterlimit="10"/>
<path d="M549.286 258.531L570.888 256.504C570.983 256.495 571.079 256.556 571.105 256.651L572.863 262.343C572.898 262.465 572.82 262.596 572.689 262.613L550.183 264.728C550.078 264.737 549.861 264.528 549.835 264.432L549.017 259.114C548.991 258.984 549.165 258.549 549.286 258.531Z" fill="url(#paint94_linear)" fill-opacity="0.1" stroke="#58DCE3" stroke-miterlimit="10"/>
<path d="M534.448 260.002C536.319 259.819 544.648 259.149 546.223 259.01C546.371 258.993 546.467 259.245 546.51 259.393L547.233 264.711C547.285 264.902 547.154 265.094 546.954 265.102L535.222 265.938C535.074 265.946 534.944 265.859 534.9 265.711L534.143 260.603C534.082 260.429 534.247 260.02 534.448 260.002Z" fill="url(#paint95_linear)" fill-opacity="0.1" stroke="#58DCE3" stroke-miterlimit="10"/>
<path d="M531.053 260.411L519.121 261.516C518.965 261.534 518.86 261.664 518.878 261.821L519.504 267.121C519.522 267.269 519.652 267.374 519.791 267.356L532.08 266.364C532.246 266.347 532.359 266.19 532.324 266.033L531.367 260.611C531.323 260.481 531.184 260.402 531.053 260.411Z" fill="url(#paint96_linear)" fill-opacity="0.1" stroke="#58DCE3" stroke-miterlimit="10"/>
<path d="M534.073 244.746L544.935 243.806C545.039 243.797 545.135 243.875 545.153 243.98L545.84 249.054C545.857 249.167 545.77 249.271 545.657 249.28L534.848 250.316C534.744 250.324 534.648 250.246 534.63 250.142L533.891 244.972C533.882 244.859 533.96 244.754 534.073 244.746Z" fill="url(#paint97_linear)" fill-opacity="0.1" stroke="#58DCE3" stroke-miterlimit="10"/>
<path d="M326.904 114.503L569.878 100.848C571.749 100.743 573.307 102.24 573.255 104.094L570.139 219.08C570.096 220.699 568.834 222.022 567.206 222.152L347.548 239.924C345.894 240.055 344.406 238.914 344.136 237.296L323.936 118.193C323.623 116.331 325.007 114.616 326.904 114.503Z" fill="url(#paint98_linear)" fill-opacity="0.1" stroke="#58DCE3" stroke-miterlimit="10"/>
<path d="M178.535 81.6708C178.281 74.1104 181.89 68.0923 187.917 62.8684C205.474 47.6681 243.589 39.1993 266.971 19.0204C298.393 -8.08785 318.107 1.07507 331.799 23.4926C345.49 45.9101 364.683 39.8602 367.822 56.0767C370.96 72.2932 384.204 81.669 321.653 106.504C259.103 131.339 274.231 158.058 236.395 148.376C220.018 144.186 220.97 125.088 211.513 113.619C199.125 98.6055 178.825 90.3013 178.535 81.6708Z" fill="url(#paint99_linear)" fill-opacity="0.1" stroke="#58DCE3" stroke-miterlimit="10"/>
<path d="M189.062 67.7415C190.387 73.8883 211.485 90.1518 218.486 96.4578C225.488 102.764 222.128 118.107 234.996 125.853C247.865 133.607 257.841 128.936 281.401 114.586C304.96 100.236 312.733 96.1277 330.762 88.8126C364.473 76.5663 369.342 62.0169 369.342 62.0169C369.342 62.0169 379.792 79.0574 353.995 91.4593C320.059 109.91 302.664 108.779 271.172 139.003C271.172 139.003 262.285 153.72 241.206 149.479C220.118 145.231 218.368 125.363 214.542 118.109C210.715 110.855 182.201 89.855 178.623 84.5273C175.044 79.1995 184.316 66.9209 187.909 62.8686C191.501 58.8163 188.106 63.2785 189.062 67.7415Z" fill="url(#paint100_linear)" fill-opacity="0.1" stroke="#58DCE3" stroke-miterlimit="10"/>
<path d="M17.3918 204.256C16.0286 195.858 19.0714 188.641 24.8474 181.972C41.6749 162.565 81.7356 147.793 104.155 122.019C134.286 87.3918 156.955 94.8581 175.009 117.95C193.062 141.042 212.979 131.613 218.711 149.263C224.435 166.922 240.136 175.52 175.966 211.96C111.796 248.401 132.024 276.09 89.6531 270.576C71.3139 268.191 69.5969 246.756 57.705 235.284C42.1261 220.26 18.9481 213.842 17.3918 204.256Z" fill="url(#paint101_linear)" fill-opacity="0.1" stroke="#58DCE3" stroke-miterlimit="10"/>
<path d="M26.7866 187.239C29.1056 193.911 44.0778 201.317 55.8348 210.388C66.5643 218.171 69.8451 238.799 84.896 245.641C99.9484 252.492 110.081 245.888 133.532 226.59C156.982 207.292 163.514 201.282 183.283 190.946C217.282 176.159 221.21 155.668 221.21 155.668C221.21 155.668 234.98 173.215 208.826 190.652C181.513 211.526 155.725 217.142 125.967 255.254C125.967 255.254 118.46 272.912 95.0207 271.126C71.5704 269.334 66.8171 247.418 61.629 239.86C56.441 232.303 22.5378 212.864 17.8957 207.421C13.2535 201.978 21.5282 186.987 24.8362 181.965C28.1555 176.95 25.11 182.403 26.7866 187.239Z" fill="url(#paint102_linear)" fill-opacity="0.1" stroke="#58DCE3" stroke-miterlimit="10"/>
<defs>
<linearGradient id="paint0_linear" x1="442.096" y1="69.0073" x2="364.966" y2="496.567" gradientUnits="userSpaceOnUse">
<stop stop-color="#58DCE3"/>
<stop offset="1" stop-color="#58DCE3" stop-opacity="0"/>
</linearGradient>
<linearGradient id="paint1_linear" x1="340.357" y1="271.916" x2="301.929" y2="484.938" gradientUnits="userSpaceOnUse">
<stop stop-color="#58DCE3"/>
<stop offset="1" stop-color="#58DCE3" stop-opacity="0"/>
</linearGradient>
<linearGradient id="paint2_linear" x1="251.5" y1="340.602" x2="251.5" y2="469.198" gradientUnits="userSpaceOnUse">
<stop stop-color="#58DCE3"/>
<stop offset="1" stop-color="#58DCE3" stop-opacity="0"/>
</linearGradient>
<linearGradient id="paint3_linear" x1="284.17" y1="329.128" x2="284.17" y2="376.073" gradientUnits="userSpaceOnUse">
<stop stop-color="#58DCE3"/>
<stop offset="1" stop-color="#58DCE3" stop-opacity="0"/>
</linearGradient>
<linearGradient id="paint4_linear" x1="290.605" y1="342.253" x2="290.605" y2="403.864" gradientUnits="userSpaceOnUse">
<stop stop-color="#58DCE3"/>
<stop offset="1" stop-color="#58DCE3" stop-opacity="0"/>
</linearGradient>
<linearGradient id="paint5_linear" x1="310.27" y1="382.673" x2="310.27" y2="395.352" gradientUnits="userSpaceOnUse">
<stop stop-color="#58DCE3"/>
<stop offset="1" stop-color="#58DCE3" stop-opacity="0"/>
</linearGradient>
<linearGradient id="paint6_linear" x1="217.823" y1="371.586" x2="217.823" y2="422.453" gradientUnits="userSpaceOnUse">
<stop stop-color="#58DCE3"/>
<stop offset="1" stop-color="#58DCE3" stop-opacity="0"/>
</linearGradient>
<linearGradient id="paint7_linear" x1="219.35" y1="357.388" x2="219.35" y2="397.016" gradientUnits="userSpaceOnUse">
<stop stop-color="#58DCE3"/>
<stop offset="1" stop-color="#58DCE3" stop-opacity="0"/>
</linearGradient>
<linearGradient id="paint8_linear" x1="247.253" y1="386.139" x2="247.253" y2="464.088" gradientUnits="userSpaceOnUse">
<stop stop-color="#58DCE3"/>
<stop offset="1" stop-color="#58DCE3" stop-opacity="0"/>
</linearGradient>
<linearGradient id="paint9_linear" x1="231.58" y1="406.021" x2="231.58" y2="456.281" gradientUnits="userSpaceOnUse">
<stop stop-color="#58DCE3"/>
<stop offset="1" stop-color="#58DCE3" stop-opacity="0"/>
</linearGradient>
<linearGradient id="paint10_linear" x1="260.927" y1="404.9" x2="260.927" y2="459.747" gradientUnits="userSpaceOnUse">
<stop stop-color="#58DCE3"/>
<stop offset="1" stop-color="#58DCE3" stop-opacity="0"/>
</linearGradient>
<linearGradient id="paint11_linear" x1="280.223" y1="410.169" x2="280.223" y2="449.704" gradientUnits="userSpaceOnUse">
<stop stop-color="#58DCE3"/>
<stop offset="1" stop-color="#58DCE3" stop-opacity="0"/>
</linearGradient>
<linearGradient id="paint12_linear" x1="210.703" y1="422.45" x2="210.703" y2="445.939" gradientUnits="userSpaceOnUse">
<stop stop-color="#58DCE3"/>
<stop offset="1" stop-color="#58DCE3" stop-opacity="0"/>
</linearGradient>
<linearGradient id="paint13_linear" x1="277.577" y1="291.198" x2="277.577" y2="352.835" gradientUnits="userSpaceOnUse">
<stop stop-color="#58DCE3"/>
<stop offset="1" stop-color="#58DCE3" stop-opacity="0"/>
</linearGradient>
<linearGradient id="paint14_linear" x1="290.853" y1="314.904" x2="290.853" y2="350.938" gradientUnits="userSpaceOnUse">
<stop stop-color="#58DCE3"/>
<stop offset="1" stop-color="#58DCE3" stop-opacity="0"/>
</linearGradient>
<linearGradient id="paint15_linear" x1="447.896" y1="94.1976" x2="447.896" y2="246.782" gradientUnits="userSpaceOnUse">
<stop stop-color="#58DCE3"/>
<stop offset="1" stop-color="#58DCE3" stop-opacity="0"/>
</linearGradient>
<linearGradient id="paint16_linear" x1="473.48" y1="228.021" x2="473.48" y2="353.412" gradientUnits="userSpaceOnUse">
<stop stop-color="#58DCE3"/>
<stop offset="1" stop-color="#58DCE3" stop-opacity="0"/>
</linearGradient>
<linearGradient id="paint17_linear" x1="466.125" y1="234.816" x2="466.125" y2="303.805" gradientUnits="userSpaceOnUse">
<stop stop-color="#58DCE3"/>
<stop offset="1" stop-color="#58DCE3" stop-opacity="0"/>
</linearGradient>
<linearGradient id="paint18_linear" x1="474.281" y1="292.191" x2="474.281" y2="337.724" gradientUnits="userSpaceOnUse">
<stop stop-color="#58DCE3"/>
<stop offset="1" stop-color="#58DCE3" stop-opacity="0"/>
</linearGradient>
<linearGradient id="paint19_linear" x1="360.907" y1="254.1" x2="360.907" y2="258.454" gradientUnits="userSpaceOnUse">
<stop stop-color="#58DCE3"/>
<stop offset="1" stop-color="#58DCE3" stop-opacity="0"/>
</linearGradient>
<linearGradient id="paint20_linear" x1="377.038" y1="252.508" x2="377.038" y2="256.74" gradientUnits="userSpaceOnUse">
<stop stop-color="#58DCE3"/>
<stop offset="1" stop-color="#58DCE3" stop-opacity="0"/>
</linearGradient>
<linearGradient id="paint21_linear" x1="392.612" y1="250.984" x2="392.612" y2="255.635" gradientUnits="userSpaceOnUse">
<stop stop-color="#58DCE3"/>
<stop offset="1" stop-color="#58DCE3" stop-opacity="0"/>
</linearGradient>
<linearGradient id="paint22_linear" x1="407.995" y1="249.975" x2="407.995" y2="254.738" gradientUnits="userSpaceOnUse">
<stop stop-color="#58DCE3"/>
<stop offset="1" stop-color="#58DCE3" stop-opacity="0"/>
</linearGradient>
<linearGradient id="paint23_linear" x1="423.491" y1="248.756" x2="423.491" y2="253.502" gradientUnits="userSpaceOnUse">
<stop stop-color="#58DCE3"/>
<stop offset="1" stop-color="#58DCE3" stop-opacity="0"/>
</linearGradient>
<linearGradient id="paint24_linear" x1="439.231" y1="247.268" x2="439.231" y2="251.945" gradientUnits="userSpaceOnUse">
<stop stop-color="#58DCE3"/>
<stop offset="1" stop-color="#58DCE3" stop-opacity="0"/>
</linearGradient>
<linearGradient id="paint25_linear" x1="454.749" y1="245.649" x2="454.749" y2="250.361" gradientUnits="userSpaceOnUse">
<stop stop-color="#58DCE3"/>
<stop offset="1" stop-color="#58DCE3" stop-opacity="0"/>
</linearGradient>
<linearGradient id="paint26_linear" x1="469.874" y1="244.448" x2="469.874" y2="249.116" gradientUnits="userSpaceOnUse">
<stop stop-color="#58DCE3"/>
<stop offset="1" stop-color="#58DCE3" stop-opacity="0"/>
</linearGradient>
<linearGradient id="paint27_linear" x1="484.626" y1="243.056" x2="484.626" y2="247.732" gradientUnits="userSpaceOnUse">
<stop stop-color="#58DCE3"/>
<stop offset="1" stop-color="#58DCE3" stop-opacity="0"/>
</linearGradient>
<linearGradient id="paint28_linear" x1="500.135" y1="241.437" x2="500.135" y2="246.148" gradientUnits="userSpaceOnUse">
<stop stop-color="#58DCE3"/>
<stop offset="1" stop-color="#58DCE3" stop-opacity="0"/>
</linearGradient>
<linearGradient id="paint29_linear" x1="515.27" y1="240.237" x2="515.27" y2="244.904" gradientUnits="userSpaceOnUse">
<stop stop-color="#58DCE3"/>
<stop offset="1" stop-color="#58DCE3" stop-opacity="0"/>
</linearGradient>
<linearGradient id="paint30_linear" x1="529.978" y1="239.115" x2="529.978" y2="243.79" gradientUnits="userSpaceOnUse">
<stop stop-color="#58DCE3"/>
<stop offset="1" stop-color="#58DCE3" stop-opacity="0"/>
</linearGradient>
<linearGradient id="paint31_linear" x1="544.622" y1="237.504" x2="544.622" y2="242.206" gradientUnits="userSpaceOnUse">
<stop stop-color="#58DCE3"/>
<stop offset="1" stop-color="#58DCE3" stop-opacity="0"/>
</linearGradient>
<linearGradient id="paint32_linear" x1="558.873" y1="236.364" x2="558.873" y2="240.96" gradientUnits="userSpaceOnUse">
<stop stop-color="#58DCE3"/>
<stop offset="1" stop-color="#58DCE3" stop-opacity="0"/>
</linearGradient>
<linearGradient id="paint33_linear" x1="407.131" y1="255.623" x2="407.131" y2="262.319" gradientUnits="userSpaceOnUse">
<stop stop-color="#58DCE3"/>
<stop offset="1" stop-color="#58DCE3" stop-opacity="0"/>
</linearGradient>
<linearGradient id="paint34_linear" x1="422.196" y1="254.187" x2="422.196" y2="260.883" gradientUnits="userSpaceOnUse">
<stop stop-color="#58DCE3"/>
<stop offset="1" stop-color="#58DCE3" stop-opacity="0"/>
</linearGradient>
<linearGradient id="paint35_linear" x1="437.191" y1="252.803" x2="437.191" y2="259.5" gradientUnits="userSpaceOnUse">
<stop stop-color="#58DCE3"/>
<stop offset="1" stop-color="#58DCE3" stop-opacity="0"/>
</linearGradient>
<linearGradient id="paint36_linear" x1="452.117" y1="251.568" x2="452.117" y2="258.264" gradientUnits="userSpaceOnUse">
<stop stop-color="#58DCE3"/>
<stop offset="1" stop-color="#58DCE3" stop-opacity="0"/>
</linearGradient>
<linearGradient id="paint37_linear" x1="467.182" y1="250.132" x2="467.182" y2="256.828" gradientUnits="userSpaceOnUse">
<stop stop-color="#58DCE3"/>
<stop offset="1" stop-color="#58DCE3" stop-opacity="0"/>
</linearGradient>
<linearGradient id="paint38_linear" x1="482.112" y1="248.739" x2="482.112" y2="255.435" gradientUnits="userSpaceOnUse">
<stop stop-color="#58DCE3"/>
<stop offset="1" stop-color="#58DCE3" stop-opacity="0"/>
</linearGradient>
<linearGradient id="paint39_linear" x1="360.804" y1="259.644" x2="360.804" y2="266.34" gradientUnits="userSpaceOnUse">
<stop stop-color="#58DCE3"/>
<stop offset="1" stop-color="#58DCE3" stop-opacity="0"/>
</linearGradient>
<linearGradient id="paint40_linear" x1="375.86" y1="258.208" x2="375.86" y2="264.904" gradientUnits="userSpaceOnUse">
<stop stop-color="#58DCE3"/>
<stop offset="1" stop-color="#58DCE3" stop-opacity="0"/>
</linearGradient>
<linearGradient id="paint41_linear" x1="390.856" y1="256.824" x2="390.856" y2="263.52" gradientUnits="userSpaceOnUse">
<stop stop-color="#58DCE3"/>
<stop offset="1" stop-color="#58DCE3" stop-opacity="0"/>
</linearGradient>
<linearGradient id="paint42_linear" x1="384.938" y1="265.136" x2="384.938" y2="271.832" gradientUnits="userSpaceOnUse">
<stop stop-color="#58DCE3"/>
<stop offset="1" stop-color="#58DCE3" stop-opacity="0"/>
</linearGradient>
<linearGradient id="paint43_linear" x1="400.003" y1="263.7" x2="400.003" y2="270.396" gradientUnits="userSpaceOnUse">
<stop stop-color="#58DCE3"/>
<stop offset="1" stop-color="#58DCE3" stop-opacity="0"/>
</linearGradient>
<linearGradient id="paint44_linear" x1="414.998" y1="262.316" x2="414.998" y2="269.012" gradientUnits="userSpaceOnUse">
<stop stop-color="#58DCE3"/>
<stop offset="1" stop-color="#58DCE3" stop-opacity="0"/>
</linearGradient>
<linearGradient id="paint45_linear" x1="430.351" y1="261.524" x2="430.351" y2="268.22" gradientUnits="userSpaceOnUse">
<stop stop-color="#58DCE3"/>
<stop offset="1" stop-color="#58DCE3" stop-opacity="0"/>
</linearGradient>
<linearGradient id="paint46_linear" x1="445.416" y1="260.088" x2="445.416" y2="266.784" gradientUnits="userSpaceOnUse">
<stop stop-color="#58DCE3"/>
<stop offset="1" stop-color="#58DCE3" stop-opacity="0"/>
</linearGradient>
<linearGradient id="paint47_linear" x1="460.411" y1="258.704" x2="460.411" y2="265.4" gradientUnits="userSpaceOnUse">
<stop stop-color="#58DCE3"/>
<stop offset="1" stop-color="#58DCE3" stop-opacity="0"/>
</linearGradient>
<linearGradient id="paint48_linear" x1="475.415" y1="257.225" x2="475.415" y2="263.921" gradientUnits="userSpaceOnUse">
<stop stop-color="#58DCE3"/>
<stop offset="1" stop-color="#58DCE3" stop-opacity="0"/>
</linearGradient>
<linearGradient id="paint49_linear" x1="490.676" y1="255.319" x2="490.676" y2="262.015" gradientUnits="userSpaceOnUse">
<stop stop-color="#58DCE3"/>
<stop offset="1" stop-color="#58DCE3" stop-opacity="0"/>
</linearGradient>
<linearGradient id="paint50_linear" x1="505.798" y1="253.944" x2="505.798" y2="260.64" gradientUnits="userSpaceOnUse">
<stop stop-color="#58DCE3"/>
<stop offset="1" stop-color="#58DCE3" stop-opacity="0"/>
</linearGradient>
<linearGradient id="paint51_linear" x1="520.084" y1="252.969" x2="520.084" y2="259.665" gradientUnits="userSpaceOnUse">
<stop stop-color="#58DCE3"/>
<stop offset="1" stop-color="#58DCE3" stop-opacity="0"/>
</linearGradient>
<linearGradient id="paint52_linear" x1="535.045" y1="251.533" x2="535.045" y2="258.229" gradientUnits="userSpaceOnUse">
<stop stop-color="#58DCE3"/>
<stop offset="1" stop-color="#58DCE3" stop-opacity="0"/>
</linearGradient>
<linearGradient id="paint53_linear" x1="550.088" y1="250.158" x2="550.088" y2="256.854" gradientUnits="userSpaceOnUse">
<stop stop-color="#58DCE3"/>
<stop offset="1" stop-color="#58DCE3" stop-opacity="0"/>
</linearGradient>
<linearGradient id="paint54_linear" x1="563.696" y1="248.765" x2="563.696" y2="255.461" gradientUnits="userSpaceOnUse">
<stop stop-color="#58DCE3"/>
<stop offset="1" stop-color="#58DCE3" stop-opacity="0"/>
</linearGradient>
<linearGradient id="paint55_linear" x1="558.076" y1="241.515" x2="558.076" y2="249.081" gradientUnits="userSpaceOnUse">
<stop stop-color="#58DCE3"/>
<stop offset="1" stop-color="#58DCE3" stop-opacity="0"/>
</linearGradient>
<linearGradient id="paint56_linear" x1="496.725" y1="247.417" x2="496.725" y2="253.869" gradientUnits="userSpaceOnUse">
<stop stop-color="#58DCE3"/>
<stop offset="1" stop-color="#58DCE3" stop-opacity="0"/>
</linearGradient>
<linearGradient id="paint57_linear" x1="511.576" y1="246.179" x2="511.576" y2="252.433" gradientUnits="userSpaceOnUse">
<stop stop-color="#58DCE3"/>
<stop offset="1" stop-color="#58DCE3" stop-opacity="0"/>
</linearGradient>
<linearGradient id="paint58_linear" x1="525.98" y1="245.232" x2="525.98" y2="251.501" gradientUnits="userSpaceOnUse">
<stop stop-color="#58DCE3"/>
<stop offset="1" stop-color="#58DCE3" stop-opacity="0"/>
</linearGradient>
<linearGradient id="paint59_linear" x1="389.176" y1="273.212" x2="389.176" y2="279.908" gradientUnits="userSpaceOnUse">
<stop stop-color="#58DCE3"/>
<stop offset="1" stop-color="#58DCE3" stop-opacity="0"/>
</linearGradient>
<linearGradient id="paint60_linear" x1="404.241" y1="271.776" x2="404.241" y2="278.472" gradientUnits="userSpaceOnUse">
<stop stop-color="#58DCE3"/>
<stop offset="1" stop-color="#58DCE3" stop-opacity="0"/>
</linearGradient>
<linearGradient id="paint61_linear" x1="419.237" y1="270.393" x2="419.237" y2="277.089" gradientUnits="userSpaceOnUse">
<stop stop-color="#58DCE3"/>
<stop offset="1" stop-color="#58DCE3" stop-opacity="0"/>
</linearGradient>
<linearGradient id="paint62_linear" x1="435.66" y1="269.165" x2="435.66" y2="275.862" gradientUnits="userSpaceOnUse">
<stop stop-color="#58DCE3"/>
<stop offset="1" stop-color="#58DCE3" stop-opacity="0"/>
</linearGradient>
<linearGradient id="paint63_linear" x1="450.725" y1="267.721" x2="450.725" y2="274.417" gradientUnits="userSpaceOnUse">
<stop stop-color="#58DCE3"/>
<stop offset="1" stop-color="#58DCE3" stop-opacity="0"/>
</linearGradient>
<linearGradient id="paint64_linear" x1="465.72" y1="266.337" x2="465.72" y2="273.033" gradientUnits="userSpaceOnUse">
<stop stop-color="#58DCE3"/>
<stop offset="1" stop-color="#58DCE3" stop-opacity="0"/>
</linearGradient>
<linearGradient id="paint65_linear" x1="481.116" y1="264.849" x2="481.116" y2="271.545" gradientUnits="userSpaceOnUse">
<stop stop-color="#58DCE3"/>
<stop offset="1" stop-color="#58DCE3" stop-opacity="0"/>
</linearGradient>
<linearGradient id="paint66_linear" x1="496.181" y1="263.404" x2="496.181" y2="270.1" gradientUnits="userSpaceOnUse">
<stop stop-color="#58DCE3"/>
<stop offset="1" stop-color="#58DCE3" stop-opacity="0"/>
</linearGradient>
<linearGradient id="paint67_linear" x1="511.177" y1="262.029" x2="511.177" y2="268.725" gradientUnits="userSpaceOnUse">
<stop stop-color="#58DCE3"/>
<stop offset="1" stop-color="#58DCE3" stop-opacity="0"/>
</linearGradient>
<linearGradient id="paint68_linear" x1="396.983" y1="280.601" x2="396.983" y2="287.297" gradientUnits="userSpaceOnUse">
<stop stop-color="#58DCE3"/>
<stop offset="1" stop-color="#58DCE3" stop-opacity="0"/>
</linearGradient>
<linearGradient id="paint69_linear" x1="412.918" y1="279.157" x2="412.918" y2="285.853" gradientUnits="userSpaceOnUse">
<stop stop-color="#58DCE3"/>
<stop offset="1" stop-color="#58DCE3" stop-opacity="0"/>
</linearGradient>
<linearGradient id="paint70_linear" x1="428.784" y1="277.783" x2="428.784" y2="284.478" gradientUnits="userSpaceOnUse">
<stop stop-color="#58DCE3"/>
<stop offset="1" stop-color="#58DCE3" stop-opacity="0"/>
</linearGradient>
<linearGradient id="paint71_linear" x1="443.98" y1="276.537" x2="443.98" y2="283.233" gradientUnits="userSpaceOnUse">
<stop stop-color="#58DCE3"/>
<stop offset="1" stop-color="#58DCE3" stop-opacity="0"/>
</linearGradient>
<linearGradient id="paint72_linear" x1="459.915" y1="275.092" x2="459.915" y2="281.754" gradientUnits="userSpaceOnUse">
<stop stop-color="#58DCE3"/>
<stop offset="1" stop-color="#58DCE3" stop-opacity="0"/>
</linearGradient>
<linearGradient id="paint73_linear" x1="474.911" y1="273.717" x2="474.911" y2="280.413" gradientUnits="userSpaceOnUse">
<stop stop-color="#58DCE3"/>
<stop offset="1" stop-color="#58DCE3" stop-opacity="0"/>
</linearGradient>
<linearGradient id="paint74_linear" x1="490.124" y1="271.881" x2="490.124" y2="278.525" gradientUnits="userSpaceOnUse">
<stop stop-color="#58DCE3"/>
<stop offset="1" stop-color="#58DCE3" stop-opacity="0"/>
</linearGradient>
<linearGradient id="paint75_linear" x1="505.189" y1="270.445" x2="505.189" y2="277.076" gradientUnits="userSpaceOnUse">
<stop stop-color="#58DCE3"/>
<stop offset="1" stop-color="#58DCE3" stop-opacity="0"/>
</linearGradient>
<linearGradient id="paint76_linear" x1="520.184" y1="269.061" x2="520.184" y2="275.756" gradientUnits="userSpaceOnUse">
<stop stop-color="#58DCE3"/>
<stop offset="1" stop-color="#58DCE3" stop-opacity="0"/>
</linearGradient>
<linearGradient id="paint77_linear" x1="534.994" y1="267.903" x2="534.994" y2="274.67" gradientUnits="userSpaceOnUse">
<stop stop-color="#58DCE3"/>
<stop offset="1" stop-color="#58DCE3" stop-opacity="0"/>
</linearGradient>
<linearGradient id="paint78_linear" x1="509.743" y1="278.335" x2="509.743" y2="286.849" gradientUnits="userSpaceOnUse">
<stop stop-color="#58DCE3"/>
<stop offset="1" stop-color="#58DCE3" stop-opacity="0"/>
</linearGradient>
<linearGradient id="paint79_linear" x1="461.264" y1="280.477" x2="461.264" y2="294.167" gradientUnits="userSpaceOnUse">
<stop stop-color="#58DCE3"/>
<stop offset="1" stop-color="#58DCE3" stop-opacity="0"/>
</linearGradient>
<linearGradient id="paint80_linear" x1="412.239" y1="287.372" x2="412.239" y2="296.209" gradientUnits="userSpaceOnUse">
<stop stop-color="#58DCE3"/>
<stop offset="1" stop-color="#58DCE3" stop-opacity="0"/>
</linearGradient>
<linearGradient id="paint81_linear" x1="394.267" y1="289.008" x2="394.267" y2="297.828" gradientUnits="userSpaceOnUse">
<stop stop-color="#58DCE3"/>
<stop offset="1" stop-color="#58DCE3" stop-opacity="0"/>
</linearGradient>
<linearGradient id="paint82_linear" x1="378.336" y1="290.11" x2="378.336" y2="299.179" gradientUnits="userSpaceOnUse">
<stop stop-color="#58DCE3"/>
<stop offset="1" stop-color="#58DCE3" stop-opacity="0"/>
</linearGradient>
<linearGradient id="paint83_linear" x1="361.912" y1="291.541" x2="361.912" y2="300.674" gradientUnits="userSpaceOnUse">
<stop stop-color="#58DCE3"/>
<stop offset="1" stop-color="#58DCE3" stop-opacity="0"/>
</linearGradient>
<linearGradient id="paint84_linear" x1="371.503" y1="281.81" x2="371.503" y2="290.648" gradientUnits="userSpaceOnUse">
<stop stop-color="#58DCE3"/>
<stop offset="1" stop-color="#58DCE3" stop-opacity="0"/>
</linearGradient>
<linearGradient id="paint85_linear" x1="367.252" y1="274.343" x2="367.252" y2="282.44" gradientUnits="userSpaceOnUse">
<stop stop-color="#58DCE3"/>
<stop offset="1" stop-color="#58DCE3" stop-opacity="0"/>
</linearGradient>
<linearGradient id="paint86_linear" x1="365.172" y1="266.413" x2="365.172" y2="274.218" gradientUnits="userSpaceOnUse">
<stop stop-color="#58DCE3"/>
<stop offset="1" stop-color="#58DCE3" stop-opacity="0"/>
</linearGradient>
<linearGradient id="paint87_linear" x1="448.212" y1="98.5801" x2="448.212" y2="241.963" gradientUnits="userSpaceOnUse">
<stop stop-color="#58DCE3"/>
<stop offset="1" stop-color="#58DCE3" stop-opacity="0"/>
</linearGradient>
<linearGradient id="paint88_linear" x1="542.07" y1="278.583" x2="542.07" y2="283.885" gradientUnits="userSpaceOnUse">
<stop stop-color="#58DCE3"/>
<stop offset="1" stop-color="#58DCE3" stop-opacity="0"/>
</linearGradient>
<linearGradient id="paint89_linear" x1="572.07" y1="275.928" x2="572.07" y2="281.232" gradientUnits="userSpaceOnUse">
<stop stop-color="#58DCE3"/>
<stop offset="1" stop-color="#58DCE3" stop-opacity="0"/>
</linearGradient>
<linearGradient id="paint90_linear" x1="557.361" y1="277.373" x2="557.361" y2="282.684" gradientUnits="userSpaceOnUse">
<stop stop-color="#58DCE3"/>
<stop offset="1" stop-color="#58DCE3" stop-opacity="0"/>
</linearGradient>
<linearGradient id="paint91_linear" x1="555.977" y1="273.03" x2="555.977" y2="277.13" gradientUnits="userSpaceOnUse">
<stop stop-color="#58DCE3"/>
<stop offset="1" stop-color="#58DCE3" stop-opacity="0"/>
</linearGradient>
<linearGradient id="paint92_linear" x1="526.939" y1="276.902" x2="526.939" y2="284.852" gradientUnits="userSpaceOnUse">
<stop stop-color="#58DCE3"/>
<stop offset="1" stop-color="#58DCE3" stop-opacity="0"/>
</linearGradient>
<linearGradient id="paint93_linear" x1="559.517" y1="264.334" x2="559.517" y2="273.233" gradientUnits="userSpaceOnUse">
<stop stop-color="#58DCE3"/>
<stop offset="1" stop-color="#58DCE3" stop-opacity="0"/>
</linearGradient>
<linearGradient id="paint94_linear" x1="560.943" y1="256.503" x2="560.943" y2="264.728" gradientUnits="userSpaceOnUse">
<stop stop-color="#58DCE3"/>
<stop offset="1" stop-color="#58DCE3" stop-opacity="0"/>
</linearGradient>
<linearGradient id="paint95_linear" x1="540.687" y1="259.009" x2="540.687" y2="265.938" gradientUnits="userSpaceOnUse">
<stop stop-color="#58DCE3"/>
<stop offset="1" stop-color="#58DCE3" stop-opacity="0"/>
</linearGradient>
<linearGradient id="paint96_linear" x1="525.603" y1="260.411" x2="525.603" y2="267.358" gradientUnits="userSpaceOnUse">
<stop stop-color="#58DCE3"/>
<stop offset="1" stop-color="#58DCE3" stop-opacity="0"/>
</linearGradient>
<linearGradient id="paint97_linear" x1="539.866" y1="243.805" x2="539.866" y2="250.316" gradientUnits="userSpaceOnUse">
<stop stop-color="#58DCE3"/>
<stop offset="1" stop-color="#58DCE3" stop-opacity="0"/>
</linearGradient>
<linearGradient id="paint98_linear" x1="448.574" y1="100.843" x2="448.574" y2="239.934" gradientUnits="userSpaceOnUse">
<stop stop-color="#58DCE3"/>
<stop offset="1" stop-color="#58DCE3" stop-opacity="0"/>
</linearGradient>
<linearGradient id="paint99_linear" x1="272.386" y1="3.25411" x2="277.026" y2="149.561" gradientUnits="userSpaceOnUse">
<stop stop-color="#58DCE3"/>
<stop offset="1" stop-color="#58DCE3" stop-opacity="0"/>
</linearGradient>
<linearGradient id="paint100_linear" x1="274.045" y1="58.5998" x2="276.923" y2="149.365" gradientUnits="userSpaceOnUse">
<stop stop-color="#58DCE3"/>
<stop offset="1" stop-color="#58DCE3" stop-opacity="0"/>
</linearGradient>
<linearGradient id="paint101_linear" x1="107.749" y1="103.677" x2="134.129" y2="266.173" gradientUnits="userSpaceOnUse">
<stop stop-color="#58DCE3"/>
<stop offset="1" stop-color="#58DCE3" stop-opacity="0"/>
</linearGradient>
<linearGradient id="paint102_linear" x1="117.51" y1="165.175" x2="133.875" y2="265.978" gradientUnits="userSpaceOnUse">
<stop stop-color="#58DCE3"/>
<stop offset="1" stop-color="#58DCE3" stop-opacity="0"/>
</linearGradient>
</defs>
</svg>
